<svg xmlns="http://www.w3.org/2000/svg" xmlns:xlink="http://www.w3.org/1999/xlink" width="200px" height="140px" viewBox="0 0 200 140"><title>ic-ochno</title><desc>Created with Sketch.</desc><g id="ic-ochno" stroke="none" stroke-width="1" fill="none" fill-rule="evenodd"><g id="ik5" transform="translate(1.000000, 14.000000)" fill-rule="nonzero"><path d="M3.75419208,18.2877184 C5.11528204,25.442679 6.73517079,32.5493605 8.59468806,39.5884513 C9.28481818,42.1858661 10.0707997,44.8894949 11.9399021,46.8013468 C14.9208808,49.8622408 19.6751105,50.0263897 23.9213278,49.9974223 C27.956672,49.9684548 32.0016013,49.9394874 36.0369455,49.9105199 C41.9605623,49.8718966 47.9800306,49.8139617 53.6544338,48.0662588 C58.0252579,46.7241002 62.5686146,43.672862 62.9711905,39.0960046 C63.2491595,35.9288965 61.4663234,33.0031839 59.7505832,30.3381784 C55.9356973,24.4191624 51.823672,18.2297835 45.5454049,15.0916429 C39.9860234,12.3204234 33.2189142,12.2431768 28.1483748,8.63190118 C26.1930061,7.2414635 24.5922877,5.38754659 22.636919,3.99710891 C19.0616616,1.45762897 11.7577844,-0.116269242 7.55949288,1.95973147 C1.77965313,4.82750919 2.7669226,13.1025446 3.75419208,18.2877184 Z" id="Path" fill="#FFF1AA"></path><path d="M154.762276,23.5959681 C149.941928,26.4244452 144.530945,28.4323743 138.958014,28.5096024 C137.44332,28.5289094 135.871467,28.4130673 134.461563,28.9826241 C131.765598,30.0541632 130.536695,33.1722454 129.765059,35.991069 C128.983896,38.819546 128.193206,41.9472818 125.811611,43.6076847 C124.839921,44.2834301 123.668176,44.6599168 122.858434,45.5287322 C121.581899,46.89953 121.753374,49.3804809 123.21091,50.5582085 C123.887283,51.1084583 124.744657,51.369103 125.573452,51.6200941 C135.661887,54.6319878 145.921797,57.0743246 156.27697,58.9567582 C160.620999,59.7386921 165.069818,60.424091 169.423373,59.6807711 C174.34851,58.8409161 178.787803,56.2248161 183.055621,53.5797557 C184.837053,52.4792561 186.637539,51.3401424 188.047443,49.7762746 C191.286412,46.1948241 191.991364,41.0301988 192.734421,36.2227531 C193.849008,28.9633171 195.373228,21.7618021 197.307083,14.6857827 C197.954877,12.3206739 198.574091,9.53081088 197.059397,7.61941682 C195.154121,5.20604049 191.410255,5.9493604 188.514235,6.91471093 C181.998193,9.09640314 174.69146,10.660271 168.527893,13.7204322 C166.508301,14.7243967 164.850711,16.3461856 163.097857,17.7459439 C162.192851,18.4603033 154.762276,22.9298763 154.762276,23.5959681 Z" id="Path" fill="#FFF1AA"></path><path d="M5.17493262,92.6338864 C5.01282311,93.7623684 4.84117776,94.9487213 5.27029115,96.0000421 C5.69940454,97.051363 6.9867447,97.8326198 7.96893757,97.2828465 C8.69366241,96.8873955 8.96066629,95.9807519 9.1418475,95.1705596 C11.7642071,83.461353 10.9155162,71.2505987 12.5556829,59.3581343 C12.9180453,56.7346547 13.6999853,53.7253693 16.1125561,52.7029839 C17.8385455,51.9699529 19.8124671,52.5486616 21.5861358,53.1659509 C21.8531397,53.2624024 22.1392153,53.368499 22.3203965,53.5903373 C22.5587928,53.8893368 22.5492569,54.3137232 22.5301852,54.6898839 C22.1392153,62.6181935 21.7482453,70.5561483 21.3572753,78.4844579 C21.3000602,79.6129399 21.633815,81.1658083 22.7495099,81.1272278 C23.7412386,81.0886472 24.0845293,79.7865525 24.1322086,78.7738123 C24.5517861,70.5465031 24.7997183,62.319194 24.8664692,54.0822397 C31.1410606,54.4391101 37.4347236,54.3330135 43.6902432,53.7543048 C45.4257685,53.5903373 47.2947957,53.4263698 48.8014605,54.3233684 C51.1472803,55.7219145 51.5096428,58.9433931 51.6050013,61.7019047 C51.8720052,69.2347633 52.1771525,76.7579768 52.5109073,84.2811903 C52.663481,87.6666364 52.8160546,91.0713728 53.5312436,94.3796577 C53.893606,96.0675582 54.5229723,97.8904907 56.0201013,98.7199732 C56.7829695,99.1443596 57.9272719,99.1347144 58.3277777,98.3534577 C58.4898872,98.044813 58.4898872,97.6879426 58.4994231,97.3503625 C58.6901401,83.7699976 58.4708155,70.1799876 57.8509851,56.6092679 C57.8033058,55.5483018 57.7556265,54.4584004 58.0798455,53.4553053 C58.8331779,51.1597606 61.2457488,49.9444723 63.4294591,48.9799578 C64.3830444,59.3774246 65.3366297,69.7748915 66.2997509,80.1723584 C66.4046453,81.3008404 66.814687,82.7476122 67.9399176,82.7861928 C69.3035446,81.1561632 69.0651483,78.754522 68.7790727,76.6422351 C67.1865852,64.7304804 66.6048982,52.6933388 67.0244757,40.6851326 C67.0530833,39.7881341 67.0149399,38.7271681 66.2711433,38.2256205 C65.1745202,37.4925894 63.829965,38.6885875 63.0575609,39.7688438 C61.0073524,42.6430971 58.8999289,45.6330923 55.8675276,47.4174442 C52.9877,49.1149898 49.5261853,49.529731 46.1886367,49.3850539 C42.860624,49.2403767 39.5707547,48.5555713 36.2522778,48.198701 C27.8988705,47.3017024 19.3356745,48.4494747 11.1348408,46.6361874 C10.1907913,46.4239942 9.21813433,45.9803175 9.06556068,44.9289966 C7.74961295,46.877316 7.79729222,50.3977941 7.49214492,52.6836936 C7.07256738,55.8569465 6.83417105,59.0494897 6.67206155,62.251678 C6.3573784,68.7428609 6.40505767,75.243689 6.10944622,81.7252268 C5.96640842,85.3614466 5.68986868,89.0073116 5.17493262,92.6338864 Z" id="Path" fill="#000000"></path><path d="M1.27187776,15.1838438 C1.71371588,18.6722653 2.75107495,22.045367 3.69238225,25.4376887 C5.42131403,31.6457335 6.84288016,37.9306581 7.95708063,44.2828525 C8.18760487,45.5994193 8.45654981,47.0216958 9.41706747,47.9538635 C10.8674491,49.35692 13.1919018,49.0686207 15.1705682,48.6842217 C9.72443312,37.9979279 5.73828485,26.5716659 3.37541142,14.8090547 C2.96238883,12.7717397 2.6069973,10.7055948 2.54936624,8.6298399 C2.53976106,8.08207124 2.65502318,7.38054296 3.19291307,7.25561327 C3.52909425,7.17873346 3.85567025,7.38054296 4.12461519,7.58235247 C9.8973263,11.6954224 13.9411056,18.383966 20.6167033,20.7480202 C22.2976092,21.3438387 24.0649617,21.632138 25.8131038,21.9780972 C28.4833429,22.5162559 31.1151613,23.2081742 33.6989538,24.0538521 C36.1098531,24.8418701 38.5975938,25.8509177 40.2208686,27.8017429 C41.2390174,29.0318199 41.8441435,30.5501962 42.4300592,32.0397425 C44.6200395,37.6135288 46.8100197,43.1873152 49,48.7611015 C48.5389515,43.3987347 46.8388353,38.2189574 44.8697741,33.2121596 C43.9860978,30.9538152 43.015975,28.6762507 41.4599364,26.8215253 C39.0106164,23.9193124 35.3606493,22.3432763 31.7298926,21.228519 C29.4822813,20.5366007 27.1866441,19.988832 24.8621913,19.585213 C22.3168196,19.1431541 19.675396,18.8548548 17.3797588,17.6728277 C15.5355649,16.7214401 14.0275522,15.2318937 12.5387498,13.7807873 C10.1278505,11.4071231 7.71695122,9.02384893 5.30605191,6.65018475 C4.84500343,6.19851586 4.36474461,5.68918711 4.31671872,5.04531869 C4.23027214,3.87290156 5.5942072,3.18098326 6.74682839,2.9215139 C13.9315004,1.30703785 21.9518229,4.57442984 25.9763918,10.7440347 C22.9603664,5.09336857 16.8130534,1.24937799 10.4160058,1.00912858 C7.61129428,0.903418843 3.19291307,1.69143691 1.97305565,4.65130965 C0.762803404,7.6111824 0.878065523,12.0798214 1.27187776,15.1838438 Z" id="Path" fill="#000000"></path><path d="M34.5588048,13.8484848 C36.1712497,14.0405041 37.7836945,14.2325233 39.4057947,14.4149415 C43.0362095,14.8469847 46.8307654,15.3270327 49.8432372,17.3816382 C52.3343197,19.0714071 54.0626288,21.7020702 55.1247182,24.5151515 C56.1868077,27.3282328 56.6309541,30.3237324 56.978547,33.30003 C53.6281377,32.5607561 50.1039319,32.6183618 46.7824886,33.4536454 C50.1522087,33.9624962 53.6281377,33.8376838 56.9302703,34.7017702 C60.2324028,35.5562556 63.5055693,37.7164716 64.3455855,41 C65.5911267,40.6543654 66.2380358,39.1278128 65.9194089,37.879688 C65.6007821,36.6315632 64.5386927,35.6810681 63.3703943,35.1242124 C62.2020959,34.5673567 60.9082779,34.3369337 59.6530813,34.020102 C59.2765223,33.9240924 58.8806527,33.8184818 58.6006473,33.549655 C58.2047776,33.1752175 58.1178793,32.5991599 58.0406365,32.0711071 C57.6833882,29.4980498 57.2006203,26.9441944 56.5923327,24.4191419 C56.2640505,23.0462046 55.8874915,21.6540654 55.1247182,20.4635464 C54.2074592,19.0330033 52.7977769,17.9768977 51.3591285,17.0648065 C49.003221,15.5670567 46.4735171,14.3093309 43.7603614,13.6084608 C40.5547824,12.7731773 37.2140284,12.7251725 33.9312065,12.3027303 C30.7835597,11.9282928 27.4717718,11.0642064 25,9 C25.8303608,9.53765377 27.0662467,11.4578458 28.3890308,12.2355236 C30.2235489,13.3108311 32.4732474,13.5988599 34.5588048,13.8484848 Z" id="Path" fill="#000000"></path><path d="M116.837449,57.0560681 C116.32356,70.826954 116.047582,84.607423 116,98.387892 C116,99.0203753 116.009516,99.6911909 116.342593,100.21826 C116.675669,100.754913 117.465536,101.042405 117.950876,100.639916 C118.245887,100.390756 118.331535,99.9786833 118.407667,99.6049431 C120.539357,88.1914949 121.909728,76.6343004 122.499749,65.0291906 C122.642497,62.2788466 123.023155,59.0397656 125.421306,57.7173006 C126.572799,57.0848173 127.943171,57.0560681 129.256444,57.0848173 C134.328723,57.1902312 139.381968,57.7939652 144.330533,58.8864363 C144.682643,58.963101 145.063302,59.0589318 145.31073,59.327258 C145.63429,59.681832 145.63429,60.2184844 145.60574,60.6976384 C145.225082,68.5940963 144.844423,76.4905542 144.463764,84.3774291 C144.406665,85.6423956 144.568445,87.2619361 145.76752,87.6356763 C146.633519,87.9135856 147.585166,87.2715192 147.984858,86.4473743 C148.38455,85.6232295 148.375033,84.6649215 148.356,83.7449458 C148.270352,76.4330558 148.727143,69.1115827 149.735889,61.8667742 C149.84057,61.0809616 150.011866,60.2089014 150.668503,59.7776628 C151.068195,59.5093365 151.572567,59.4710042 152.048391,59.4614211 C153.999267,59.4039226 155.95966,59.6530827 157.834405,60.1993183 C158.491042,60.3909799 159.166711,60.6305569 159.642535,61.128877 C160.204006,61.7134449 160.394336,62.556756 160.546599,63.3521516 C163.468156,78.3880041 160.546599,94.0467568 162.925717,109.17844 C163.135079,110.500905 163.839298,112.168361 165.152571,111.986282 C166.275515,111.832953 166.675206,110.433824 166.817954,109.30302 C167.369909,105.105631 167.931381,100.898659 168.007512,96.6629376 C168.150259,88.3639903 166.437295,80.0746262 167.170063,71.8140112 C167.350876,69.7057336 167.712502,67.5687068 168.692698,65.7000062 C170.044037,63.1221577 172.480254,61.2534571 175.116316,60.0651552 C177.752378,58.8672702 180.616836,58.2827023 183.452744,57.6981344 C184.033249,57.5735544 184.680369,57.4681405 185.203775,57.7364667 C185.936543,58.1197899 186.145905,59.0589318 186.279136,59.8734936 C187.973068,70.8557032 189.067462,81.9337437 189.552802,93.0405334 C189.600384,94.0275906 189.647967,95.0721463 190.180889,95.9058743 C190.713811,96.7396022 191.893854,97.2379224 192.71227,96.6821038 C193.254709,96.3083636 193.464071,95.6087988 193.597302,94.9667324 C194.853476,88.8814767 192.87405,82.6716408 191.713041,76.5672189 C190.009593,67.6262053 190.057175,58.4647808 189.581351,49.3704379 C189.562318,48.9487824 189.514736,48.4792115 189.191176,48.2108852 C188.8581,47.9329759 188.37276,47.9808913 187.954035,48.067139 C183.662107,48.8721178 179.712771,50.9324799 175.56359,52.2932773 C163.039915,56.4235848 149.431362,54.0853133 136.469928,51.7087094 C133.453207,51.1528908 130.42697,50.6066552 127.410248,50.0508366 C124.850318,49.5812657 120.777268,47.7508974 118.797842,49.9645889 C117.161009,51.8332895 116.923098,54.7082135 116.837449,57.0560681 Z" id="Path" fill="#000000"></path><path d="M128.568858,36.8005886 C128.962522,35.2808621 129.375389,33.7421391 130.162717,32.3838836 C132.486294,28.3851033 137.546316,26.8558786 142.193471,26.4664487 C146.840626,26.0770188 151.660608,26.4474521 156.019716,24.8137462 C162.913636,22.2207129 167.272744,15.1064935 174.157062,12.4659688 C176.29821,11.6396175 178.592982,11.297679 180.839747,10.8417611 C184.949214,10.0059116 188.972268,8.78063211 192.851298,7.18491933 C193.465798,6.92846549 194.118704,6.66251336 194.781211,6.76699456 C195.683758,6.90946891 196.355867,7.73582017 196.567101,8.60966288 C196.778336,9.48350559 196.624711,10.4048398 196.432679,11.2881808 C195.462922,15.7618755 193.552212,19.9696181 192.207993,24.34833 C189.653979,32.6498357 189.193104,41.4167577 188.74183,50.0791984 C189.567564,49.1578643 189.980432,47.9420831 190.326088,46.7642951 C193.369782,36.4396535 193.216157,25.4501316 195.558937,14.9450225 C196.279054,11.7061055 197.248812,8.43869366 196.941562,5.13328862 C193.907469,4.51589975 190.950189,6.17810056 188.088924,7.35588856 C179.697162,10.7942697 169.557915,10.4523312 162.577581,16.2082951 C159.620301,18.6493558 157.421544,22.059242 153.955381,23.7214428 C152.361522,24.481306 150.594835,24.8232445 148.847351,25.1176915 C145.08354,25.7445786 141.300526,26.2099949 137.488707,26.5139401 C134.838676,26.7229025 131.900599,26.9793564 130.124311,28.9360042 C129.212163,29.942823 128.760889,31.2630853 128.367226,32.5548528 C127.34946,35.9362441 126.648546,39.4031201 126.264484,42.9079892 C126.226078,43.2879209 126.168468,43.6868491 125.909226,43.9622995 C125.697992,44.1807602 125.381141,44.2662448 125.1315,44.437214 C123.412821,45.5390157 125.227516,48.4454925 124.152141,50.1551848 C123.307204,50.9055497 121.780556,50.4021403 121.348486,49.3573284 C120.906814,48.3220147 121.406095,47.0587421 122.279837,46.3463703 C123.614454,45.2635652 125.909226,44.8646371 126.091656,43.1739414 C124.324969,42.8320029 122.510274,43.8958114 121.511712,45.3775447 C120.51315,46.859278 120.186697,48.6829498 120.02347,50.4591301 C119.985064,50.84856 119.965861,51.2664847 120.196299,51.5799283 C120.551556,52.0643411 121.281275,52.0358463 121.876571,51.9503616 C122.644696,51.8458804 123.412821,51.7413993 124.190547,51.6274198 C125.832414,51.3994608 125.909226,47.0302472 126.341296,45.3775447 C127.071015,42.5090611 127.819937,39.659574 128.568858,36.8005886 Z" id="Path" fill="#000000"></path><path d="M163.343502,30.6224409 C164.359347,26.7062992 165.675107,22.7033465 168.461425,19.7614173 C170.551163,17.5622047 173.31813,16.1346457 176.094773,14.9192913 C181.193346,12.6911417 186.533787,11.0417323 192,10 C186.698258,11.9870079 181.512612,14.2537402 176.452737,16.8001969 C173.376179,18.3435039 170.231897,20.0990157 168.306629,22.9541339 C166.826398,25.1533465 166.216891,27.7962598 165.626734,30.3716535 C164.436744,35.6188976 163.23708,40.9143701 162.840417,46.2966535 C162.521151,50.6082677 163.604719,54.8330709 163.498297,59 C156.83242,52.4312992 161.38921,38.146063 163.343502,30.6224409 Z" id="Path" fill="#000000"></path><path d="M2.65500431,27.9999852 C0.363666516,20.7941549 -1.28647387,12.8409114 1.35375075,5.75965005 C2.10810064,3.72821918 3.29620172,1.73511719 5.15378833,0.671490654 C7.01137494,-0.392135887 9.67045831,-0.23882035 11,1.466815 C7.70914859,1.85010385 5.05006522,4.66727685 4.00340475,7.85815647 C2.95674427,11.0490361 3.27734298,14.5465468 3.99397537,17.8332486 C5.30465831,23.7742257 7.87887732,29.3606606 9.4252946,35.2441443 C10.9339944,41.0030592 11.4337512,47.5764629 8.5672216,53 C7.64314298,49.4258315 7.64314298,45.5833609 6.86050497,41.9516991 C5.84213261,37.179753 4.09769848,32.6377802 2.65500431,27.9999852 Z" id="Path" fill="#000000"></path><path d="M191.125543,24.0675879 C192.230607,19.9257387 193.345364,15.7262303 193.325977,11.4402332 C193.316284,10.1332924 193.219348,8.75908258 193.791267,7.57706993 C194.363186,6.39505727 195.90446,5.55899954 197.028911,6.25090939 C198.240604,6.99086853 198.085507,8.74947272 197.794701,10.1236826 C196.098331,17.9845472 194.547364,25.8742414 193.122413,33.7927652 C191.687768,41.7977778 190.951059,50.0910861 189.157753,58 C185.105852,54.4731818 184.301288,49.8988889 185.522674,45.0266904 C187.286899,38.0114933 189.264382,31.0443456 191.125543,24.0675879 Z" id="Path" fill="#000000"></path><path d="M7.9885123,12.0965791 C9.64546655,13.9361491 11.0342432,16.0274498 12.8923307,17.654017 C19.2711257,23.2501827 29.3565178,22.078667 36.1950458,27.0842339 C42.0757967,31.3927005 44.1350173,39.1092127 47.4680814,45.6251634 C47.7841478,46.2351261 48.2055697,46.9128625 48.8760136,47 C49.3453243,44.6569687 48.3971251,42.2848915 47.4585036,40.0774075 C45.6770383,35.8851242 43.8859953,31.673477 41.520286,27.7910161 C40.8019533,26.6195004 40.0165761,25.4576667 38.9534436,24.5862914 C38.0052443,23.8117356 36.8846452,23.2985924 35.7544683,22.824177 C32.4597154,21.4590224 29.0308736,20.423054 25.5349874,19.7453176 C23.5428112,19.3580397 21.4931684,19.0772633 19.6446587,18.2349338 C17.4992382,17.2570571 15.756084,15.5917621 14.0512409,13.955513 C10.7469101,10.7798342 7.44257939,7.59447347 4.13824865,4.41879467 C3.91795993,4.20579182 3.64978236,3.97342508 3.34329371,4.00247092 C1.39900635,4.21547377 1.84916155,7.65256515 2.91229405,8.47553069 C4.61713716,9.79227556 6.45606905,10.4022383 7.9885123,12.0965791 Z" id="Path" fill="#000000"></path><path d="M126.611197,51.172335 C128.317537,47.9665853 128.937157,44.3110737 129.92855,40.8182419 C130.929476,37.3254101 132.483293,33.7655925 135.438407,31.6698935 C139.546968,28.7703646 145.07589,29.4880698 150.032854,28.6268236 C156.743822,27.4689259 162.825636,23.0478621 166,17 C162.253679,20.0622087 158.392966,23.1914032 153.798241,24.6650911 C149.28931,26.1005014 144.437204,25.8325582 139.747153,26.4641387 C135.057102,27.0957193 130.071539,29.0000303 127.859971,33.2105672 C127.278481,34.3110485 126.925773,35.5167931 126.601664,36.7225378 C125.572141,40.4833128 124.752335,44.2919349 124.142247,48.1388345 C123.999258,49.0096501 123.884866,49.9378821 124.208976,50.7608507 C124.533085,51.5838193 125.476815,52.2345387 126.29662,51.9187484 C126.487273,51.4785559 126.677925,51.0383634 126.887643,50.5981709 C126.801849,50.7895589 126.706523,50.980947 126.611197,51.172335 Z" id="Path" fill="#000000"></path></g></g></svg>