<svg xmlns="http://www.w3.org/2000/svg" width="157" height="36" viewBox="0 0 157 36" fill="none"><path d="M18.6282 36C28.9163 36 37.2564 27.9411 37.2564 18C37.2564 8.05888 28.9163 0 18.6282 0C8.34013 0 0 8.05888 0 18C0 27.9411 8.34013 36 18.6282 36Z" fill="#BFF2DC"></path><path d="M42.2515 29.1698C40.4734 29.1698 38.9218 28.7762 37.5965 27.9885C36.2709 27.2011 35.2418 26.0995 34.5094 24.6835C33.7767 23.2675 33.4103 21.613 33.4103 19.7198C33.4103 17.8188 33.7767 16.1563 34.5094 14.7324C35.2418 13.3085 36.2709 12.2028 37.5965 11.4153C38.9218 10.6279 40.4734 10.2341 42.2515 10.2341C44.0299 10.2341 45.5815 10.6279 46.9068 11.4153C48.2324 12.2028 49.2614 13.3085 49.9939 14.7324C50.7266 16.1563 51.093 17.8188 51.093 19.7198C51.093 21.613 50.7266 23.2675 49.9939 24.6835C49.2614 26.0995 48.2324 27.2011 46.9068 27.9885C45.5815 28.7762 44.0299 29.1698 42.2515 29.1698ZM42.2639 26.1749C43.4164 26.1749 44.3714 25.8806 45.1287 25.2922C45.886 24.7034 46.4458 23.9198 46.8082 22.9414C47.1786 21.9631 47.3638 20.8853 47.3638 19.7078C47.3638 18.5385 47.1786 17.4648 46.8082 16.4863C46.4458 15.4999 45.886 14.7086 45.1287 14.112C44.3714 13.5153 43.4164 13.217 42.2639 13.217C41.1033 13.217 40.1401 13.5153 39.3746 14.112C38.617 14.7086 38.0532 15.4999 37.6829 16.4863C37.3205 17.4648 37.1394 18.5385 37.1394 19.7078C37.1394 20.8853 37.3205 21.9631 37.6829 22.9414C38.0532 23.9198 38.617 24.7034 39.3746 25.2922C40.1401 25.8806 41.1033 26.1749 42.2639 26.1749ZM69.4596 18.0972V21.1874H59.1858V18.0972H69.4596ZM60.223 10.4726V28.8H56.6052V10.4726H60.223ZM72.0405 10.4726V28.8H68.4348V10.4726H72.0405ZM89.6817 28.8V13.5153H85.1374C84.0589 13.5153 83.2194 13.758 82.6183 14.2433C82.0175 14.7283 81.717 15.3648 81.717 16.1522C81.717 16.9318 81.9927 17.5603 82.5443 18.0374C83.1042 18.5069 83.886 18.7414 84.8905 18.7414H90.7559V21.629H84.8905C83.4909 21.629 82.2808 21.4063 81.26 20.9609C80.2476 20.5073 79.4655 19.867 78.9138 19.0397C78.3706 18.2124 78.0989 17.2341 78.0989 16.1045C78.0989 14.951 78.3788 13.9567 78.9386 13.1215C79.5067 12.2784 80.3174 11.6261 81.3712 11.1648C82.433 10.7035 83.6886 10.4726 85.1374 10.4726H93.1515V28.8H89.6817ZM77.2345 28.8L82.5813 19.5408H86.3599L81.0131 28.8H77.2345ZM97.1046 13.5511V10.4726H113.108V13.5511H106.921V28.8H103.316V13.5511H97.1046ZM131.259 18.0972V21.1874H120.985V18.0972H131.259ZM122.022 10.4726V28.8H118.404V10.4726H122.022ZM133.839 10.4726V28.8H130.234V10.4726H133.839ZM148.159 29.1698C146.381 29.1698 144.829 28.7762 143.504 27.9885C142.178 27.2011 141.149 26.0995 140.416 24.6835C139.684 23.2675 139.317 21.613 139.317 19.7198C139.317 17.8188 139.684 16.1563 140.416 14.7324C141.149 13.3085 142.178 12.2028 143.504 11.4153C144.829 10.6279 146.381 10.2341 148.159 10.2341C149.937 10.2341 151.489 10.6279 152.814 11.4153C154.139 12.2028 155.168 13.3085 155.901 14.7324C156.634 16.1563 157 17.8188 157 19.7198C157 21.613 156.634 23.2675 155.901 24.6835C155.168 26.0995 154.139 27.2011 152.814 27.9885C151.489 28.7762 149.937 29.1698 148.159 29.1698ZM148.171 26.1749C149.324 26.1749 150.278 25.8806 151.036 25.2922C151.793 24.7034 152.353 23.9198 152.715 22.9414C153.086 21.9631 153.271 20.8853 153.271 19.7078C153.271 18.5385 153.086 17.4648 152.715 16.4863C152.353 15.4999 151.793 14.7086 151.036 14.112C150.278 13.5153 149.324 13.217 148.171 13.217C147.01 13.217 146.047 13.5153 145.282 14.112C144.524 14.7086 143.96 15.4999 143.59 16.4863C143.228 17.4648 143.046 18.5385 143.046 19.7078C143.046 20.8853 143.228 21.9631 143.59 22.9414C143.96 23.9198 144.524 24.7034 145.282 25.2922C146.047 25.8806 147.01 26.1749 148.171 26.1749Z" fill="black"></path><path d="M11.3001 28.2L11.3 9" stroke="black" stroke-width="3.2"></path><path d="M26 8.60001L26.0001 27.8" stroke="white" stroke-width="3.2"></path><path d="M9.69461 8.44153H27.5958" stroke="black" stroke-width="3.2"></path></svg>