<svg xmlns="http://www.w3.org/2000/svg" xmlns:xlink="http://www.w3.org/1999/xlink" width="71px" height="71px" viewBox="0 0 71 71"><title>ic-main-why-opit</title><desc>Created with Sketch.</desc><g id="ic-main-why-opit" stroke="none" stroke-width="1" fill="none" fill-rule="evenodd"><g id="ik4" transform="translate(11.000000, 0.000000)" fill-rule="nonzero"><path d="M0.423895883,69.0750548 C0.449213496,69.7006451 0.530229857,70.4217454 1.0770903,70.7799078 C1.49229915,71.0521113 2.04422312,71.0139073 2.55057538,70.9661523 C17.0575677,69.6337881 31.691148,69.5287271 46.2133309,70.6605204 C47.1855272,70.7369283 48.3400103,70.7464793 48.9172519,70.0015015 C49.2514444,69.5717066 49.2868891,69.0081978 49.3122067,68.4781174 C50.3350383,45.6751105 50.2185772,22.8291241 48.9526966,0.0356682651 C48.9476331,-0.0550662125 4.94055805,0.00701527215 1.0315186,0.46068766 C0.388451224,23.335327 -0.558427504,46.1287829 0.423895883,69.0750548 Z" id="Path" fill="#000000"></path><path d="M4.08237321,65 C15.9425898,63.483665 28.0062406,63.3790902 39.8918864,64.6910289 C40.9192293,64.8051106 42.1194914,64.8764116 42.8264254,64.1634014 C43.3400969,63.6452807 43.4112989,62.8752297 43.4468999,62.1669729 C44.4844145,43.2817101 44.0622884,24.3298997 42.1805217,5.50167777 C42.1093197,4.7981744 18.4041441,4.49871012 16.1663674,4.44166931 C13.496293,4.37512169 7.40343728,3.11071699 5.4758978,5.18795329 C3.73653499,7.06079334 4.68250424,12.6507931 4.6062164,14.9324257 C4.05185807,31.6216171 3.87893897,48.3108086 4.08237321,65 Z" id="Path" fill="#FFFFFF"></path><path d="M33.0765317,47.0327012 C31.2335696,46.7799735 29.4056316,48.0241713 28.6093517,49.657181 C27.8130719,51.2901907 27.8831846,53.2148092 28.328901,54.9693226 C28.43407,55.3872953 28.5692873,55.8198484 28.8647622,56.1454783 C29.350543,56.6898149 30.156839,56.825899 30.8980303,56.9036614 C32.4455175,57.0640463 34.0881577,57.0980673 35.4703793,56.4079263 C37.4535668,55.4164562 38.4501686,52.9329206 37.8041303,50.8576375 C37.1580919,48.7823544 35.0196548,47.2757086 32.7860649,47.1882259" id="Path" fill="#D3E3FD"></path><path d="M27.9765725,56.3020505 C27.3194001,57.5496845 26.6571724,58.7917981 26,60.0394322 C26.965538,59.4156151 27.9361311,58.7862776 28.9016691,58.1624606 C29.0583794,59.1506309 29.3616898,60.1111987 29.7964347,61 C30.4081105,59.2223975 31.0197864,57.4392744 31.914552,55.8107256 C31.9651037,55.7223975 32.0156554,55.6285489 31.9954347,55.5236593 C31.9651037,55.3249211 31.7224554,55.2862776 31.5404692,55.2807571 C30.4232761,55.2531546 29.4577381,54.7342271 28.5983587,54 C28.664076,54.9053628 28.3961518,55.5126183 27.9765725,56.3020505 Z" id="Path" fill="#000000"></path><path d="M32,56.4710095 C33.4276609,56.6355303 34.9216061,56.0597075 35.8240918,55 C36.8387508,56.4322987 38.4448693,57.3710351 40,58.2613829 C38.7660931,58.7791396 37.38942,57.8016925 36.0382409,57.8597586 C36.1300191,58.5613915 36.4308477,59.3307681 36.4053537,59.9936902 C34.6615679,60.1678887 33.8355641,56.6790799 32,56.4710095 Z" id="Path" fill="#000000"></path><path d="M28.2923304,53.0465851 C28.0993024,52.3443971 28.0696058,51.584495 28.3121282,50.901545 C28.5299033,50.2907376 28.9506054,49.7665013 29.3861557,49.2807411 C29.9256442,48.6843622 30.5591719,48.0976023 31.3609805,47.9629361 C32.2568283,47.8138414 33.1328784,48.2611256 33.9247881,48.6987907 C34.3454901,48.929647 34.7859899,49.1797414 35.0384111,49.58374 C35.2710346,49.9588816 35.3056806,50.4205943 35.3353772,50.8582594 C35.389821,51.7191612 35.434366,52.5944915 35.2611357,53.4457742 C35.0928549,54.2922475 34.6820517,55.1291017 33.9742825,55.653338 C32.8111651,56.5238588 31.1580536,56.3651451 29.742515,55.975575 C29.9206947,56.6200489 30.7373516,56.8316673 31.4203737,56.8990004 C32.0934969,56.9663335 32.7666202,57 33.4446929,57 C33.9148892,57 34.4048834,56.980762 34.8255854,56.7691437 C35.3452761,56.5094303 35.6768883,55.9996225 35.9788039,55.5090528 C36.503444,54.65777 37.0330336,53.7391542 36.9983876,52.7483957 C36.9785898,52.2289689 36.8053596,51.7335897 36.6271799,51.24302 C36.1817307,50.0117862 35.6719389,48.7324573 34.6424563,47.8907935 C33.1972211,46.7124643 30.9402785,46.7365118 29.3812062,47.7657463 C27.822134,48.7949808 26.9757806,50.6706886 27.0005277,52.4983013 C27.0104266,53.0706327 27.094567,53.6477735 27.3370894,54.1720098 C27.6934487,54.9463405 28.3467742,55.5427193 28.9902008,56.1150507 C29.2178749,56.31705 29.4554478,56.5286683 29.7573634,56.6104299 C30.0741272,56.6970011 30.6235146,56.5430968 30.6235146,56.1439077 C30.6235146,55.8168612 30.1087733,55.6870046 29.8909981,55.5234813 C29.0990884,54.9174834 28.5497011,53.984439 28.2923304,53.0465851 Z" id="Path" fill="#000000"></path><path d="M9,52.6963592 C9.64189411,52.4915891 10.2837882,52.2918134 10.9204209,52.0870433 C10.6573496,52.4965835 10.3995396,52.9011293 10.1364683,53.3106695 C10.6099967,53.1458545 11.1519237,53.4704901 11.3518579,53.9099966 C11.5517922,54.3495032 11.488655,54.8539368 11.3676422,55.3184154 C10.9151595,57.056464 9.73133838,58.5647706 9.3104242,60.3078137 C9.26833279,60.4776231 9.24202565,60.66741 9.35251562,60.8022586 C9.4261756,60.8871633 9.53666557,60.9321128 9.64715554,60.9570848 C10.3679711,61.1318885 11.1940151,60.757309 11.4991779,60.1130324 C11.7569878,59.5686436 11.6570207,58.9443445 11.7412036,58.3550061 C11.8885235,57.33615 12.5935548,56.4121874 12.5830319,55.3833425 C12.5777705,54.8139817 12.4462348,54.0598284 12.9986846,53.8350807 C13.3827688,54.1397387 13.5879645,54.5992228 13.8668201,54.9937798 C14.1456758,55.3883369 14.5876356,55.7579219 15.0874712,55.6979892 C15.4820783,55.6530397 15.7819796,55.3583705 16.0292667,55.0637013 C16.7342979,54.219649 17.2499178,53.2307592 17.5287734,52.1869311 C17.5392963,53.2107816 18.8336074,53.9000078 19.8806314,53.660277 C20.9276554,53.4205461 21.6905623,52.541533 22.1483065,51.612576 C22.6060506,50.6836189 22.8428149,49.6697572 23.3110819,48.7457945 C23.9319303,47.5071851 24.9736929,46.373458 25,45 C23.7898718,45.4744673 23.2532062,46.7780038 22.7060178,47.9067366 C21.8536666,49.654774 20.6856297,51.2679629 19.2703058,52.6514097 C18.8388688,52.6014657 18.3969089,52.5465274 18.0128247,52.3617349 C17.6287405,52.1769423 17.2972706,51.8273349 17.2709635,51.4128003 C17.2604406,51.2230133 17.3130549,51.028232 17.2814864,50.8384451 C17.2499178,50.6486582 17.0868135,50.4538769 16.8921407,50.4788488 C16.6501151,50.5138096 16.5817165,50.8084787 16.586978,51.0382208 C16.5922394,52.032105 16.7921736,53.125877 16.1818481,53.9299742 C15.7346268,54.5193125 14.7717856,54.7840153 14.1667215,54.3295256 C13.6142716,53.914991 13.5774416,53.1508489 13.5406116,52.4816003 C13.5300888,52.2368751 13.4511674,51.9322171 13.1986189,51.8872676 C12.9460704,51.842318 12.7671818,52.1020265 12.6566919,52.3267741 C12.4199277,52.8112302 12.1831634,53.2956863 11.9463992,53.7851368 C12.1305492,53.3755966 11.4570865,53.0609499 11.3781651,52.6214433 C11.2939822,52.1419816 11.9516606,51.702475 11.7622493,51.2479853 C11.0466952,51.0432152 10.7099638,50.9832825 10.0680697,51.4078059 C9.7365998,51.6375479 9.24728708,52.6114545 9,52.6963592 Z" id="Path" fill="#000000"></path><path d="M29.0708942,15.8341177 C29.7335233,15.826183 30.4282152,15.8063462 31,15.4532515 C26.5058782,15.1001567 21.995725,14.9533645 17.4909156,15.0128748 C16.9405059,15.0208096 16.3152832,15.092222 16,15.6357499 C20.1681511,16.2784617 24.8279302,15.8856934 29.0708942,15.8341177 Z" id="Path" fill="#000000"></path><path d="M17.4003054,17.1450713 C17.1763121,17.172689 16.8793908,17.4133581 17.0512926,17.5751193 C21.6665956,18.2300549 26.3444084,18.0367305 30.980548,17.6066825 C31.1107766,17.212143 30.5586072,17.003037 30.1731304,17.0148732 C27.8550606,17.0898357 25.3702981,17.4567575 23.0626466,17.2239792 C21.1352628,17.0267094 19.3589441,16.8767844 17.4003054,17.1450713 Z" id="Path" fill="#000000"></path><path d="M34.8099873,28.9600765 C35.1391634,28.7760467 35.0074929,28.3052725 34.6681884,28.1298022 C34.3288838,27.9586116 33.9085513,27.9928497 33.51354,28.0313676 C27.0920743,28.6433739 20.6098377,28.3908678 14.1529224,28.1683201 C13.879453,28.1597605 13.5907909,28.151201 13.3578355,28.2710344 C12.2082514,28.8573622 14.1731794,28.9600765 14.4365202,28.9686361 C15.3784702,28.9985944 16.3204202,29.0028742 17.2623702,28.9985944 C19.2171697,28.9900349 21.1669049,28.9215586 23.1217044,28.8573622 C27.0161106,28.733249 30.9257096,28.6091358 34.8099873,28.9600765 Z" id="Path" fill="#000000"></path><path d="M12.4981001,30.9638885 C12.3687576,30.9687079 12.2238939,30.9783468 12.1204199,31.0554579 C11.9238193,31.2000411 11.9859037,31.5181243 12.1773306,31.667527 C12.3687576,31.8169298 12.63779,31.8458464 12.8913013,31.8699436 C19.7619758,32.4338184 26.6843873,30.9494301 33.5602354,31.4747494 C33.7050991,30.9831662 33.8499627,30.4915831 34,30 C34,30.1301249 23.3421766,30.8048469 22.3643472,30.8771385 C20.6208101,31.0072634 18.8048412,31.2916105 17.0561304,31.2144995 C15.524715,31.1470273 14.0450366,30.9012357 12.4981001,30.9638885 Z" id="Path" fill="#000000"></path><path d="M14.7436289,36.2397315 C14.5521855,36.2548495 14.355956,36.273747 14.1980152,36.3606755 C14.0400743,36.447604 13.9443526,36.621461 14.0352883,36.7537435 C14.135796,36.8973645 14.3798864,36.916262 14.5856881,36.9200415 C16.3852561,36.946498 18.1800381,36.9729545 19.9796062,36.999411 C21.8222491,37.0258675 20.8267433,36.152803 19.6732968,36.0507565 C18.0938886,35.9033561 16.3182509,36.1112285 14.7436289,36.2397315 Z" id="Path" fill="#000000"></path><path d="M26.0558643,36.98783 C27.3736806,37.0482643 28.7287496,36.8830772 29.9580906,36.5043555 C29.9254945,36.3593132 29.9394643,36.2062129 30,36.0611706 C29.9348077,36.2223287 24.2211659,35.8033175 23.5878691,36.1256338 C21.5249976,37.1731619 25.5110427,36.9596273 26.0558643,36.98783 Z" id="Path" fill="#000000"></path></g></g></svg>