<svg xmlns="http://www.w3.org/2000/svg" xmlns:xlink="http://www.w3.org/1999/xlink" width="137px" height="123px" viewBox="0 0 137 123"><title>ik6</title><desc>Created with Sketch.</desc><g id="Web-20-07-25" stroke="none" stroke-width="1" fill="none" fill-rule="evenodd"><g id="Artboard" transform="translate(-1169.000000, -271.000000)" fill-rule="nonzero"><g id="ik6" transform="translate(1169.000000, 271.000000)"><path d="M1.24,84.6 C1.35,86.38 1.48,88.18 2.12,89.85 C4.21,95.28 10.76,97.29 16.51,98.23 C35.57,101.36 55.03,100.51 74.33,99.66 C91.15,98.92 107.97,98.17 124.79,97.43 C126.86,97.34 129.02,97.22 130.83,96.19 C134.65,94.01 135.29,88.87 135.5,84.48 C136.51,63.2 137.52,41.86 136.2,20.6 C135.79,13.96 134.45,6.22 128.54,3.17 C125.75,1.73 122.48,1.68 119.35,1.66 C84.48,1.43 49.62,1.21 14.75,0.979338562 C7.23,0.93 4.6,3.71 3.49,10.93 C2.34,18.45 1.8,26.09 1.31,33.67 C0.22,50.62 0.2,67.65 1.24,84.6 Z" id="Path" fill="#000000"></path><path d="M4.16,84.69 C4.12,87.17 4.13,89.82 5.47,91.91 C6.58,93.64 8.45,94.74 10.38,95.43 C14.66,96.96 19.33,96.74 23.87,96.53 C53.99,95.14 84.16,95.12 114.28,96.45 C117.93,96.61 121.87,96.72 124.9,94.67 C130.43,90.94 129.74,82.81 129.24,76.15 C127.96,58.98 132.15,41.79 131.2,24.6 C131.1,22.85 130.84,20.88 129.44,19.83 C128.46,19.09 127.16,18.99 125.93,18.93 C100.05,17.52 74.12,18.26 48.22,17.49 C38.53,17.2 24.73,13.53 15.44,16.8 C6.39,19.98 7.43,32.54 6.68,40.29 C5.27,55.06 4.42,69.87 4.16,84.69 Z" id="Path" fill="#FFFFFF"></path><path d="M16.4,9.62 C16.41,9.47 16.41,9.32 16.42,9.18 C16.43,8.9 16.37,8.65 16.25,8.41 C16.17,8.16 16.03,7.95 15.84,7.77 C15.66,7.57 15.44,7.44 15.2,7.36 C14.96,7.23 14.7,7.18 14.43,7.19 C14.25,7.21 14.08,7.24 13.9,7.26 C13.56,7.36 13.27,7.53 13.02,7.77 C12.92,7.9 12.81,8.04 12.71,8.17 C12.53,8.48 12.44,8.82 12.44,9.18 C12.43,9.33 12.43,9.48 12.42,9.62 C12.41,9.9 12.47,10.15 12.59,10.39 C12.67,10.64 12.81,10.85 13,11.03 C13.18,11.23 13.4,11.36 13.64,11.44 C13.88,11.57 14.14,11.62 14.41,11.61 C14.59,11.59 14.76,11.56 14.94,11.54 C15.28,11.44 15.57,11.27 15.82,11.03 C15.92,10.9 16.03,10.76 16.13,10.63 C16.31,10.32 16.4,9.98 16.4,9.62 L16.4,9.62 Z" id="Path" fill="#FFFFFF"></path><path d="M21.32,8.7 C21.31,8.85 21.31,9 21.3,9.14 C21.29,9.42 21.35,9.67 21.47,9.91 C21.55,10.16 21.69,10.37 21.88,10.55 C22.06,10.75 22.28,10.88 22.52,10.96 C22.76,11.09 23.02,11.14 23.29,11.13 C23.47,11.11 23.64,11.08 23.82,11.06 C24.16,10.96 24.45,10.79 24.7,10.55 C24.8,10.42 24.91,10.28 25.01,10.15 C25.19,9.84 25.28,9.5 25.28,9.14 C25.29,8.99 25.29,8.84 25.3,8.7 C25.31,8.42 25.25,8.17 25.13,7.93 C25.05,7.68 24.91,7.47 24.72,7.29 C24.54,7.09 24.32,6.96 24.08,6.88 C23.84,6.75 23.58,6.7 23.31,6.71 C23.13,6.73 22.96,6.76 22.78,6.78 C22.44,6.88 22.15,7.05 21.9,7.29 C21.8,7.42 21.69,7.56 21.59,7.69 C21.41,8 21.32,8.34 21.32,8.7 L21.32,8.7 Z" id="Path" fill="#FFFFFF"></path><path d="M4.7,82.54 C4.79,85.02 4.91,87.57 5.97,89.81 C8.81,95.81 16.69,96.99 23.33,97.38 C22.85,90.55 16.79,94.38 16.3,87.55 C15.91,82.12 21.9,64.65 26.91,62.52 C27.98,62.07 29.16,61.9 30.21,61.39 C31.44,60.79 32.41,59.73 33.07,58.53 C34.75,55.46 34.42,51.72 33.92,48.26 C33.42,44.8 32.8,41.16 34.03,37.88 C35.26,34.6 39.11,32.02 42.28,33.51 C44.22,34.42 45.31,36.51 45.98,38.55 C47.24,42.36 47.56,46.48 46.88,50.44 C46.51,52.64 45.85,55.02 46.85,57.02 C48.17,59.66 51.57,60.26 54.19,61.62 C58.75,63.99 61.24,69.2 61.86,74.3 C62.48,79.4 61.55,84.55 60.94,89.65 C60.83,90.59 60.74,91.59 61.14,92.44 C61.92,94.08 64.07,94.41 65.88,94.52 C77.58,95.25 89.29,95.98 100.99,96.71 C108.84,97.2 117.08,97.62 124.17,94.22 C126.49,93.11 128.66,91.57 130.2,89.51 C133.56,85 133.43,78.87 133.16,73.25 C132.38,57.35 131.6,41.45 130.82,25.54 C130.72,23.43 130.48,21.05 128.84,19.71 C128.11,19.12 127.19,18.82 126.29,18.56 C102.76,11.65 77.56,18.24 53.06,17.22 C40.82,16.71 14.67,8.73 7.86,23.58 C4.38,31.19 5.17,41.6 4.83,49.74 C4.37,60.68 4.33,71.62 4.7,82.54 Z" id="Path" fill="#FFF1AA"></path><path d="M33.3,9.07 C33.3,8.99 33.31,8.91 33.31,8.83 C33.43,6.26 29.43,6.26 29.31,8.83 C29.31,8.91 29.3,8.99 29.3,9.07 C29.18,11.64 33.18,11.63 33.3,9.07 C33.3,8.99 33.31,8.91 33.31,8.83 C33.43,6.26 29.43,6.26 29.31,8.83 C29.31,8.91 29.3,8.99 29.3,9.07 C29.18,11.64 33.18,11.63 33.3,9.07 L33.3,9.07 Z" id="Path" fill="#FFFFFF"></path><path d="M45.02,104.17 C45.23,105.43 45.58,106.87 46.72,107.45 C47.76,107.97 49.01,107.55 50.07,107.08 C53.05,105.77 55.87,104.1 58.46,102.13 C62.67,109.11 67.33,115.82 72.4,122.21 C73.61,119.37 78.09,117.82 77.29,114.85 C77.09,114.11 76.57,113.51 76.06,112.93 C73.34,109.85 70.62,106.78 67.9,103.7 C66.79,102.44 65.59,100.9 65.95,99.26 C66.55,96.5 70.77,96.15 71.96,93.58 C72.63,92.12 72.06,90.32 70.99,89.12 C69.92,87.92 68.43,87.18 66.99,86.47 C61.69,83.87 56.38,81.28 51.08,78.68 C48.11,77.23 43.67,73.22 42.18,76.62 C41.29,78.65 43.22,86.33 43.35,88.66 C43.61,93.68 45.25,99.22 45.02,104.17 Z" id="Path" fill="#000000"></path><path d="M18.33,75.92 C19.3,71.34 21.62,66.85 25.51,64.25 C28.38,62.33 32.21,61.26 33.62,58.1 C35.29,54.37 32.54,50.24 32.1,46.17 C31.57,41.24 35.02,36.19 39.81,34.89 C40.42,34.72 41.08,34.62 41.67,34.85 C42.1,35.02 42.44,35.35 42.75,35.68 C45.55,38.69 46.93,42.98 46.41,47.07 C46.13,49.22 45.36,51.28 45.04,53.42 C44.71,55.56 44.9,57.94 46.3,59.6 C47.63,61.17 49.73,61.77 51.59,62.64 C55.59,64.53 58.73,68 60.64,72 C62.55,76 63.28,80.48 63.21,84.9 C63.2,85.78 63.17,86.74 63.7,87.45 C64.23,88.16 65.54,88.28 65.88,87.46 C65.96,87.25 65.97,87.03 65.98,86.8 C66.12,80.72 64.67,74.61 61.82,69.24 C60.31,66.39 58.32,63.66 55.5,62.08 C53.41,60.91 50.89,60.37 49.29,58.59 C47.72,56.85 47.41,54.29 47.68,51.95 C47.95,49.62 48.72,47.37 48.99,45.04 C49.32,42.24 48.89,39.29 47.36,36.92 C45.83,34.56 43.09,32.9 40.28,33.07 C37.77,33.22 35.56,34.74 33.68,36.41 C31.79,38.09 30.05,40.06 29.25,42.45 C28.01,46.12 29.18,50.23 31.27,53.48 C32.19,54.91 33.28,56.8 32.21,58.13 C31.93,58.48 31.52,58.72 31.13,58.94 C26.09,61.81 20.35,64.48 17.85,69.7 C16.89,71.71 16.49,73.94 16.19,76.15 C15.66,79.98 15.36,83.84 15.29,87.7 C15.28,88.51 15.3,89.41 15.86,90 C18.29,92.56 17.65,85.74 17.64,85.09 C17.58,82.04 17.69,78.94 18.33,75.92 Z" id="Path" fill="#000000"></path><path d="M77.75,41.75 C77.03,41.78 76.28,41.83 75.67,42.22 C75.06,42.61 74.68,43.44 75.03,44.07 C88,46.37 101.31,44.39 114.33,42.41 C114.23,41.24 112.7,40.9 111.52,40.89 C105.32,40.84 99.12,41.14 92.96,41.78 C87.79,42.33 82.95,41.52 77.75,41.75 Z" id="Path" fill="#000000"></path><path d="M81.23,52.4 C79.2,52.37 77.12,52.34 75.19,52.95 C74.85,53.65 75.86,54.2 76.64,54.31 C82.8,55.2 89.05,55.25 95.25,54.89 C100.86,54.57 107.97,54.74 113.26,52.92 C102.59,52.82 91.9,52.57 81.23,52.4 Z" id="Path" fill="#000000"></path><path d="M74.78,62.7 C74.27,63.38 75.37,64.11 76.2,64.26 C79.55,64.87 82.91,65.44 86.31,65.6 C90.32,65.8 94.34,65.44 98.35,65.08 C103.57,64.61 108.78,64.14 114,63.67 C109.35,61.66 104.15,60.93 99.13,61.57 C94.58,62.15 90.62,63.15 86.02,62.24 C82.15,61.48 78.64,61.72 74.78,62.7 Z" id="Path" fill="#000000"></path></g></g></g></svg>