<svg xmlns="http://www.w3.org/2000/svg" xmlns:xlink="http://www.w3.org/1999/xlink" width="80px" height="80px" viewBox="0 0 80 80"><title>Social</title><desc>Created with Sketch.</desc><defs><linearGradient x1="50%" y1="0%" x2="50%" y2="100%" id="linearGradient-1"><stop stop-color="#5E85CF" offset="0%"></stop><stop stop-color="#6A67B1" offset="100%"></stop></linearGradient><linearGradient x1="50%" y1="0%" x2="50%" y2="100%" id="linearGradient-2"><stop stop-color="#5E85CF" offset="0%"></stop><stop stop-color="#6A67B1" offset="100%"></stop></linearGradient></defs><g id="Social" stroke="none" stroke-width="1" fill="none" fill-rule="evenodd"><circle id="Oval" fill="#FFFFFF" cx="40" cy="40" r="40"></circle><g id="review" transform="translate(17.000000, 17.000000)" fill-rule="nonzero"><path d="M4.99750599,4 C4.44672785,4 4,4.44774477 4,5 C4,5.55225523 4.44662809,6 4.99750599,6 L5.00748204,6 C5.55826018,6 6,5.55225523 6,5 C6,4.44774477 5.54838388,4 4.99750599,4 Z" id="Path" fill="url(#linearGradient-1)"></path><path d="M8.99750599,4 C8.44672785,4 8,4.44774477 8,5 C8,5.55225523 8.44662809,6 8.99750599,6 L9.00738228,6 C9.55816042,6 10,5.55225523 10,5 C10,4.44774477 9.54838388,4 8.99750599,4 Z" id="Path" fill="url(#linearGradient-1)"></path><path d="M13.9975557,4 C13.4467501,4 13,4.44774477 13,5 C13,5.55225523 13.4466504,6 13.9975557,6 L14.0074325,6 C14.5582381,6 15,5.55225523 15,5 C15,4.44774477 14.5484611,4 13.9975557,4 Z" id="Path" fill="url(#linearGradient-1)"></path><path d="M36.0803175,4 L24.9196825,4 C24.411875,4 24,4.44774477 24,5 C24,5.55225523 24.411783,6 24.9196825,6 L36.0803175,6 C36.588125,6 37,5.55225523 37,5 C37,4.44774477 36.588125,4 36.0803175,4 Z" id="Path" fill="url(#linearGradient-2)"></path><path d="M21.7069707,36.2930293 C21.5208521,36.1070107 21.2629263,36 21,36 C20.7370737,36 20.4790479,36.1070107 20.2931293,36.2930293 C20.1071107,36.4790479 20,36.7370737 20,37 C20,37.2629263 20.1070107,37.5209521 20.2931293,37.7068707 C20.4790479,37.8928893 20.7369737,38 21,38 C21.2630263,38 21.5209521,37.8929893 21.7069707,37.7068707 C21.8929893,37.5209521 22,37.2630263 22,37 C22,36.7369737 21.8929893,36.4790479 21.7069707,36.2930293 Z" id="Path" fill="url(#linearGradient-1)"></path><path d="M42.0435195,11.7737322 L42.0435195,4.58981291 C42.0435195,2.05896176 39.984791,0 37.4542266,0 L4.58929297,0 C2.05872852,0 0,2.05905356 0,4.58990472 L0,33.5948525 C0,36.026001 1.97758008,38.0038051 4.40836133,38.0038051 L7.85313086,38.0038051 L7.85313086,38.1528083 C7.85313086,38.466881 7.62960547,38.7392732 7.32171875,38.8006005 L3.86262891,39.4898895 C1.94031055,39.873093 0.505984375,41.4397842 0.293566406,43.3885772 L0.0107402344,45.9825 C-0.0175332031,46.2417637 0.0659101563,46.500752 0.239957031,46.6949244 C0.414003906,46.8890968 0.662498047,47 0.923201172,47 L20.8232031,47 C21.083998,47 21.3324922,46.889005 21.5065391,46.6948326 C21.6805859,46.5006602 21.7639375,46.2415801 21.7355723,45.9823164 L21.4520117,43.3875673 C21.2391348,41.4392334 19.8049004,39.8730012 17.8831328,39.4899813 L14.4234004,38.8006005 C14.1154219,38.7392732 13.8919883,38.4667892 13.8919883,38.1528083 L13.8919883,37.2908298 C13.8919883,37.2861476 13.8913457,37.2816491 13.8912539,37.2769669 L15.4469355,36.387538 C15.4641016,36.3778065 15.4808086,36.3674322 15.4972402,36.356599 C16.3313984,35.8056635 16.8791504,34.824611 16.9625938,33.7321962 C16.9644297,33.7088772 16.9652559,33.6855581 16.9652559,33.6622391 L16.9652559,29.89759 C17.5137422,29.540276 17.9141602,28.8906478 17.9141602,27.7535229 L17.9156289,25.690797 C17.9156289,25.6566447 17.913793,25.6229514 17.9101211,25.5897172 C17.8161211,23.7731266 16.3371816,22.3620488 14.5078535,22.3620488 L6.70787305,22.3620488 C6.3654707,22.3620488 6.04766992,22.1806377 5.84131055,22.028513 C5.45475391,21.7435432 4.94922852,21.700761 4.52154688,21.9168753 C4.09551758,22.1321634 3.83086719,22.5626477 3.83086719,23.0405046 L3.83086719,26.0273625 C3.83086719,27.0419247 4.18749805,27.9744112 4.78124023,28.7074923 L4.78124023,33.6622391 C4.78124023,33.6855581 4.7821582,33.7088772 4.78390234,33.7321962 C4.85834961,34.7067304 5.30888867,35.5942314 6.00535156,36.1677514 L4.40836133,36.1677514 C2.98982422,36.167935 1.83566211,35.013734 1.83566211,33.5948525 L1.83566211,14.3267089 L12.0860684,14.3267089 C12.5928789,14.3267089 13.0039453,13.9156877 13.0039453,13.4087279 C13.0039453,12.9017682 12.5929707,12.490747 12.0860684,12.490747 L1.83575391,12.490747 L1.83575391,9.92041872 L40.2078574,9.92041872 L40.2078574,11.7483934 L25.3079395,11.7483934 C22.2881895,11.7483934 19.8313379,14.2054315 19.8313379,17.2255236 L19.8313379,24.9089663 C19.8313379,27.9290584 22.2881895,30.3860965 25.3079395,30.3860965 L26.4553086,30.3860965 L26.4553086,33.0700822 C26.4553086,33.4414426 26.6790176,33.7760801 27.0218789,33.9181978 C27.1354316,33.9652031 27.2547676,33.9880631 27.373002,33.9880631 C27.6119492,33.9880631 27.846582,33.8947869 28.0221895,33.7191596 L31.354875,30.3860047 L40.2079492,30.3860047 L40.2079492,33.5947607 C40.2079492,35.0135504 39.0537871,36.1678432 37.6351582,36.1678432 L24.5583262,36.1678432 C24.0515156,36.1678432 23.6404492,36.5788644 23.6404492,37.0858242 C23.6404492,37.5927839 24.0514238,38.0038051 24.5583262,38.0038051 L37.6350664,38.0038051 C40.0659395,38.0038051 42.0435195,36.0259092 42.0435195,33.5948525 L42.0435195,30.3608495 C44.8201914,30.0978216 47,27.7537065 47,24.9090581 L47,17.2256154 C47,14.380967 44.8201914,12.03676 42.0435195,11.7737322 Z M14.4857305,40.6851284 L17.5245742,41.2905974 C18.6570723,41.5161678 19.5019707,42.4390146 19.627457,43.5868809 L19.7997598,45.1639463 L1.94673633,45.1639463 L2.11867188,43.5875236 C2.24379102,42.4391982 3.08887305,41.5161678 4.22146289,41.2905056 L7.26058203,40.6849448 C8.2572207,41.5729047 9.52768945,42.0590243 10.873248,42.0590243 C12.2188066,42.0590243 13.4891836,41.5728129 14.4857305,40.6851284 Z M9.10092578,39.7575077 C9.43552539,39.359615 9.64555664,38.8586227 9.68154102,38.3175106 C10.0611211,38.5036039 10.4670469,38.5981654 10.873248,38.5981654 C11.2789902,38.5982572 11.6843652,38.5038793 12.0637617,38.3181532 C12.0998379,38.8592653 12.3101445,39.3601658 12.6447441,39.7580585 C12.1102109,40.0609307 11.5043516,40.2229706 10.873248,40.2229706 C10.2419609,40.2229706 9.63582617,40.0606553 9.10092578,39.7575077 Z M15.1296855,33.6240473 C15.0834199,34.1243051 14.8471348,34.5742526 14.5065684,34.8106563 L11.4229277,36.5736314 C11.4057617,36.583363 11.3890547,36.5937372 11.372623,36.6045704 C11.0551895,36.8141664 10.6912148,36.8140746 10.3739648,36.6045704 C10.3579004,36.5940126 10.3414688,36.583822 10.3247617,36.574274 L7.24975,34.8108399 C6.903125,34.5709475 6.66316797,34.1208164 6.61690234,33.6239554 L6.61690234,30.0283235 C7.07781445,30.1993605 7.57608789,30.2930957 8.09575,30.2930957 L15.1296855,30.2930957 L15.1296855,33.6240473 Z M5.66662109,26.0275461 C5.66662109,26.0275461 5.66662109,24.0060417 5.66662109,24.0060417 C6.00966602,24.1328275 6.36033008,24.1981025 6.70805664,24.1981025 L14.5080371,24.1981025 C15.3644102,24.1981025 16.0543555,24.868571 16.0785898,25.7245821 C16.0788652,25.7347727 16.079416,25.7450551 16.0800586,25.7552457 L16.0785898,27.752972 C16.0785898,27.7531556 16.0785898,27.7534311 16.0785898,27.7536147 C16.0785898,28.2183431 15.9836719,28.3357646 15.9728398,28.3476995 C15.9357539,28.3882784 15.7750176,28.457042 15.4080137,28.457042 L8.0958418,28.457042 C6.75625,28.457042 5.66662109,27.3672897 5.66662109,26.0275461 Z M1.83575391,8.08454864 L1.83575391,4.58990472 C1.83575391,3.07141239 3.07097266,1.83605369 4.58929297,1.83605369 L37.4542266,1.83605369 C38.9725469,1.83605369 40.2077656,3.07141239 40.2077656,4.58990472 L40.2077656,8.08464045 L1.83575391,8.08464045 L1.83575391,8.08454864 Z M45.1642461,24.9090581 C45.1642461,26.9167914 43.5309043,28.5502264 41.5233984,28.5502264 L30.9744688,28.5502264 C30.7310234,28.5502264 30.4976758,28.6469913 30.3254648,28.8191299 L28.2909707,30.8539463 L28.2909707,29.4682073 C28.2909707,28.9613394 27.8799961,28.5502264 27.3730937,28.5502264 L25.3079395,28.5502264 C23.3004336,28.5502264 21.6670918,26.9167914 21.6670918,24.9090581 L21.6670918,17.2256154 C21.6670918,15.2178821 23.3004336,13.5844471 25.3079395,13.5844471 L41.5233984,13.5844471 C43.5309043,13.5844471 45.1642461,15.2178821 45.1642461,17.2256154 L45.1642461,24.9090581 L45.1642461,24.9090581 Z" id="Shape" fill="url(#linearGradient-1)"></path><path d="M26.5000417,18 C25.1215475,18 24,19.1214829 24,20.5 C24,21.8785171 25.1214642,23 26.5000417,23 C27.8785358,23 29,21.8785171 29,20.5 C29,19.1214829 27.8785358,18 26.5000417,18 Z M26.5000417,21.3333611 C26.0405714,21.3333611 25.6666944,20.9595613 25.6666944,20.5 C25.6666944,20.0405221 26.0404881,19.6666389 26.5000417,19.6666389 C26.9595953,19.6666389 27.3333889,20.0404387 27.3333889,20.5 C27.3333889,20.9595613 26.9594286,21.3333611 26.5000417,21.3333611 Z" id="Shape" fill="url(#linearGradient-1)"></path><path d="M33.5,18 C32.1214829,18 31,19.1214829 31,20.5 C31,21.8785171 32.1214829,23 33.5,23 C34.8785171,23 36,21.8785171 36,20.5 C36,19.1214829 34.8785171,18 33.5,18 Z M33.5,21.3333611 C33.0405221,21.3333611 32.6666389,20.9595613 32.6666389,20.5 C32.6666389,20.0405221 33.0404387,19.6666389 33.5,19.6666389 C33.9595613,19.6666389 34.3333611,20.0404387 34.3333611,20.5 C34.3333611,20.9595613 33.9594779,21.3333611 33.5,21.3333611 Z" id="Shape" fill="url(#linearGradient-1)"></path><path d="M40.4999583,18 C39.1214642,18 38,19.1214829 38,20.5 C38,21.8785171 39.1214642,23 40.4999583,23 C41.8784525,23 43,21.8785171 43,20.5 C43,19.1214829 41.8784525,18 40.4999583,18 Z M40.4999583,21.3333611 C40.0404881,21.3333611 39.6666111,20.9595613 39.6666111,20.5 C39.6666111,20.0405221 40.0404047,19.6666389 40.4999583,19.6666389 C40.9594286,19.6666389 41.3333056,20.0404387 41.3333056,20.5 C41.3333056,20.9595613 40.9593453,21.3333611 40.4999583,21.3333611 Z" id="Shape" fill="url(#linearGradient-1)"></path><path d="M15.7068707,12.2931293 C15.5209521,12.1071107 15.2630263,12 15,12 C14.7369737,12 14.4791479,12.1070107 14.2930293,12.2931293 C14.1070107,12.4790479 14,12.7360736 14,13 C14,13.2631263 14.1069107,13.5210521 14.2930293,13.7069707 C14.4790479,13.8929893 14.7369737,14 15,14 C15.2640264,14 15.5209521,13.8930893 15.7068707,13.7069707 C15.8938894,13.5210521 16,13.2631263 16,13 C16,12.7370737 15.8938894,12.4790479 15.7068707,12.2931293 Z" id="Path" fill="url(#linearGradient-1)"></path></g></g></svg>