<svg xmlns="http://www.w3.org/2000/svg" width="84" height="37" viewBox="0 0 84 37" fill="none"><rect width="84" height="37" fill="white"></rect><circle cx="15.5" cy="18.5" r="7.5" fill="#BFF2DC"></circle><path d="M25.0111 23.1541C24.2952 23.1541 23.6705 22.9901 23.1369 22.6619C22.6032 22.3338 22.1889 21.8748 21.894 21.2848C21.599 20.6948 21.4515 20.0054 21.4515 19.2166C21.4515 18.4245 21.599 17.7318 21.894 17.1385C22.1889 16.5452 22.6032 16.0845 23.1369 15.7564C23.6705 15.4283 24.2952 15.2642 25.0111 15.2642C25.7271 15.2642 26.3518 15.4283 26.8854 15.7564C27.4191 16.0845 27.8334 16.5452 28.1283 17.1385C28.4233 17.7318 28.5708 18.4245 28.5708 19.2166C28.5708 20.0054 28.4233 20.6948 28.1283 21.2848C27.8334 21.8748 27.4191 22.3338 26.8854 22.6619C26.3518 22.9901 25.7271 23.1541 25.0111 23.1541ZM25.0161 21.9062C25.4801 21.9062 25.8646 21.7836 26.1695 21.5384C26.4744 21.2931 26.6998 20.9666 26.8457 20.5589C26.9948 20.1513 27.0694 19.7022 27.0694 19.2116C27.0694 18.7244 26.9948 18.277 26.8457 17.8693C26.6998 17.4583 26.4744 17.1286 26.1695 16.88C25.8646 16.6314 25.4801 16.5071 25.0161 16.5071C24.5488 16.5071 24.161 16.6314 23.8528 16.88C23.5478 17.1286 23.3208 17.4583 23.1717 17.8693C23.0258 18.277 22.9529 18.7244 22.9529 19.2116C22.9529 19.7022 23.0258 20.1513 23.1717 20.5589C23.3208 20.9666 23.5478 21.2931 23.8528 21.5384C24.161 21.7836 24.5488 21.9062 25.0161 21.9062ZM35.9655 18.5405V19.8281H31.8291V18.5405H35.9655ZM32.2467 15.3636V23H30.7901V15.3636H32.2467ZM37.0046 15.3636V23H35.5529V15.3636H37.0046ZM44.1072 23V16.6314H42.2776C41.8434 16.6314 41.5054 16.7325 41.2634 16.9347C41.0215 17.1368 40.9005 17.402 40.9005 17.7301C40.9005 18.0549 41.0115 18.3168 41.2336 18.5156C41.459 18.7112 41.7738 18.8089 42.1782 18.8089H44.5397V20.0121H42.1782C41.6147 20.0121 41.1275 19.9193 40.7165 19.7337C40.3089 19.5447 39.994 19.2779 39.7719 18.9332C39.5532 18.5885 39.4438 18.1809 39.4438 17.7102C39.4438 17.2296 39.5565 16.8153 39.7819 16.4673C40.0106 16.116 40.337 15.8442 40.7613 15.652C41.1888 15.4598 41.6943 15.3636 42.2776 15.3636H45.5042V23H44.1072ZM39.0958 23L41.2485 19.142H42.7698L40.6171 23H39.0958ZM47.0958 16.6463V15.3636H53.539V16.6463H51.0482V23H49.5965V16.6463H47.0958ZM60.8467 18.5405V19.8281H56.7103V18.5405H60.8467ZM57.1279 15.3636V23H55.6712V15.3636H57.1279ZM61.8857 15.3636V23H60.434V15.3636H61.8857ZM67.651 23.1541C66.9351 23.1541 66.3103 22.9901 65.7767 22.6619C65.2431 22.3338 64.8288 21.8748 64.5338 21.2848C64.2388 20.6948 64.0913 20.0054 64.0913 19.2166C64.0913 18.4245 64.2388 17.7318 64.5338 17.1385C64.8288 16.5452 65.2431 16.0845 65.7767 15.7564C66.3103 15.4283 66.9351 15.2642 67.651 15.2642C68.3669 15.2642 68.9917 15.4283 69.5253 15.7564C70.0589 16.0845 70.4732 16.5452 70.7682 17.1385C71.0632 17.7318 71.2106 18.4245 71.2106 19.2166C71.2106 20.0054 71.0632 20.6948 70.7682 21.2848C70.4732 21.8748 70.0589 22.3338 69.5253 22.6619C68.9917 22.9901 68.3669 23.1541 67.651 23.1541ZM67.656 21.9062C68.12 21.9062 68.5044 21.7836 68.8094 21.5384C69.1143 21.2931 69.3397 20.9666 69.4855 20.5589C69.6347 20.1513 69.7092 19.7022 69.7092 19.2116C69.7092 18.7244 69.6347 18.277 69.4855 17.8693C69.3397 17.4583 69.1143 17.1286 68.8094 16.88C68.5044 16.6314 68.12 16.5071 67.656 16.5071C67.1886 16.5071 66.8008 16.6314 66.4926 16.88C66.1877 17.1286 65.9606 17.4583 65.8115 17.8693C65.6657 18.277 65.5927 18.7244 65.5927 19.2116C65.5927 19.7022 65.6657 20.1513 65.8115 20.5589C65.9606 20.9666 66.1877 21.2931 66.4926 21.5384C66.8008 21.7836 67.1886 21.9062 67.656 21.9062Z" fill="black"></path><path d="M12.8039 23L12.8038 15" stroke="black" stroke-width="1.8"></path><path d="M18.2021 15L18.2022 23" stroke="white" stroke-width="1.8"></path><path d="M11.9032 14.5173L19.1105 14.5173" stroke="black" stroke-width="1.8"></path></svg>