<svg xmlns="http://www.w3.org/2000/svg" xmlns:xlink="http://www.w3.org/1999/xlink" width="71px" height="71px" viewBox="0 0 71 71"><title>ic-main-why-anonim</title><desc>Created with Sketch.</desc><g id="ic-main-why-anonim" stroke="none" stroke-width="1" fill="none" fill-rule="evenodd"><g id="ik11" transform="translate(6.000000, 0.000000)" fill-rule="nonzero"><path d="M12.425,42.9132353 C12.425,44.6464706 12.4406618,46.4580147 13.22375,48.0033088 C15.5834559,52.6861765 23.2994853,52.4355882 25.5965441,57.155 C29.1726471,55.2599265 32.7435294,53.3648529 36.3196324,51.4697794 C38.5853676,50.2690441 40.9450735,48.9847794 42.3755147,46.86 C43.5814706,45.0693382 43.9938971,42.8766912 44.3541176,40.7519118 C45.7166912,32.7539706 46.7555882,24.7038235 47.4655882,16.6223529 C47.6117647,14.9413235 47.65875,13.0149265 46.4319118,11.8559559 C45.1476471,10.6447794 43.1168382,10.8797059 41.3836029,11.2242647 C36.6589706,12.1691912 31.9813235,13.3542647 27.2358088,14.2208824 C24.7769118,14.6698529 22.2971324,15.0561765 19.8016912,15.265 C18.1989706,15.4007353 15.3850735,14.9256618 13.9441912,15.8236029 C10.9841176,17.66125 12.4302206,24.3749265 12.425,27.3924265 C12.4302206,32.5660294 12.425,37.7396324 12.425,42.9132353 Z" id="Path" fill="#C8EEDB"></path><path d="M0.965808824,44.2601471 C1.05455882,48.2591176 1.24772059,52.5138971 3.53433824,55.7924265 C8.74448529,63.2630882 21.5871324,61.6394853 26.7868382,69.1153676 C27.4759559,70.1072794 28.7602206,71.3654412 29.6111765,70.5040441 C30.2272059,68.3218382 32.2266912,66.8391912 34.2261765,65.7794118 C38.0841912,63.7277206 42.3650735,62.6209559 46.3692647,60.8720588 C50.3734559,59.1231618 54.2732353,56.5180882 56.1369853,52.5661029 C56.8835294,50.9738235 57.2698529,49.2353676 57.59875,47.5125735 C60.5901471,31.8716912 59.8175,15.5208088 55.3591176,0.229705882 C49.7991912,2.04125 43.8477206,2.10911765 38.0006618,2.10911765 C27.6221324,2.10911765 17.2436029,1.94727941 6.85985294,1.78544118 C5.02742647,1.75411765 3.15845588,1.72279412 1.44088235,1.08588235 C0.495955882,2.32316176 0.401985294,4.14514706 1.22683824,5.47117647 C6.01411765,5.00132353 10.8327206,5.07441176 15.6408824,5.15272059 C27.3924265,5.33544118 39.13875,5.51816176 50.8902941,5.69566176 C51.4123529,5.70610294 51.9605147,5.71654412 52.4251471,5.96713235 C53.33875,6.46308824 53.5736765,7.64816176 53.69375,8.68183824 C54.7430882,17.7447794 54.8370588,26.9173529 53.9808824,36.0011765 C53.5736765,40.3133824 52.9419853,44.6516912 51.3183824,48.6663235 C49.6947794,52.6809559 46.9957353,56.3771324 43.2264706,58.5071324 C38.1416176,61.3836765 31.2086765,61.4828676 27.7735294,66.1970588 C25.4973529,63.8164706 22.8139706,61.8274265 19.8747794,60.3343382 C15.8444853,58.2878676 11.2294853,57.1080147 8.00316176,53.9443382 C4.04073529,50.0602206 3.08536765,44.0930882 2.79823529,38.5488235 C2.59463235,34.6594853 2.62073529,30.7544853 3.00705882,26.8808088 C3.22110294,24.7664706 3.53955882,22.6625735 3.75360294,20.5482353 C4.31742647,14.8995588 4.08772059,9.17779412 3.08014706,3.59176471 C2.90264706,2.62595588 1.61838235,1.49830882 1.26860294,2.41713235 C-0.182720588,3.36205882 0.877058824,9.02117647 0.850955882,10.6656618 C0.793529412,14.5132353 0.762205882,18.3608088 0.751764706,22.2031618 C0.730882353,29.55375 0.803970588,36.9043382 0.965808824,44.2601471 Z" id="Path" fill="#000000"></path><path d="M27.8100735,39.1283088 C24.0773529,35.4060294 19.5980882,32.4407353 14.7168382,30.4621324 C18.01625,36.4031618 22.9914706,41.4097059 28.9168382,44.7456618 C29.7364706,41.4827941 33.1925,39.7808824 36.0742647,38.0476471 C41.6080882,34.7169118 46.0873529,29.9244118 50.4883088,25.1945588 C52.3207353,23.2263971 54.1792647,21.2216912 55.4008824,18.8254412 C56.4867647,16.6954412 58.3139706,10.5716912 54.3097794,12.4928676 C51.4019118,13.8919853 48.6245588,19.1282353 46.4684559,21.5297059 C40.7519118,27.9040441 34.5080882,33.7980882 27.8100735,39.1283088 Z" id="Path" fill="#000000"></path><g id="Group" transform="translate(8.352941, 9.919118)"><path d="M17.9327206,49.1622794 C15.8027206,45.2625 11.6993382,43.0385294 7.73169118,40.8824265 C7.00602941,40.4856618 6.28036765,40.0941176 5.57558824,39.6973529 C4.72463235,39.2170588 3.84757353,38.6793382 3.27852941,37.9014706 C2.68338235,37.0870588 2.44845588,36.0533824 2.23963235,34.9727206 C0.156617647,24.2026471 0.0730882353,13.2655147 1.99948529,2.46933824 C14.0068382,2.20830882 26.1499265,1.55051471 38.1102941,0.522058824 C37.5830147,4.39051471 36.9304412,7.82566176 34.8578676,10.38375 C35.0510294,8.76536765 34.9988235,7.10522059 34.9518382,5.48683824 C34.9309559,4.84992647 34.9152941,4.21301471 34.9100735,3.58654412 L34.9100735,3.33595588 L34.6594853,3.33073529 C31.6158824,3.24198529 28.5252941,3.20022059 25.4764706,3.20022059 C19.3840441,3.20022059 13.2080882,3.37772059 7.12088235,3.73272059 C6.61448529,3.76404412 6.09242647,3.82147059 5.72698529,4.18691176 C5.34066176,4.57323529 5.29367647,5.15794118 5.26235294,5.54426471 L4.03029412,21.3417647 C3.78492647,24.5054412 3.52911765,27.7839706 4.15036765,30.9789706 C4.84470588,34.5498529 6.67191176,37.5099265 9.16213235,39.0969853 C10.1383824,39.7182353 11.2242647,40.1515441 12.2788235,40.5639706 C13.0410294,40.8667647 13.8345588,41.18 14.5654412,41.5611029 C16.5910294,42.6208824 17.8178676,44.2079412 17.8439706,45.8158824 L17.8857353,48.3426471 L18.3608088,45.8628676 C18.815,43.4822794 21.5975735,42.2815441 24.0460294,41.9474265 C24.58375,41.8743382 25.1371324,41.8221324 25.6852941,41.7647059 C27.7422059,41.5611029 29.8722059,41.3522794 31.5688971,40.1306618 C34.2627206,38.1886029 34.79,34.6542647 35.1293382,30.8954412 C35.4164706,27.7108824 36.0481618,24.2652941 38.4913971,22.5686029 C38.4078676,25.9306618 38.1363971,29.3240441 37.6717647,32.6547794 C37.4629412,34.16875 37.1966912,35.7558088 36.4919118,37.1444853 C34.7638971,40.5274265 31.0886029,41.9056618 27.1940441,43.3569853 C23.6179412,44.6777941 19.9217647,46.06125 17.9327206,49.1622794 Z" id="Path" fill="#000000"></path><path d="M37.8022794,0.803970588 C37.3376471,4.13470588 36.7529412,7.12088235 35.2024265,9.45970588 C35.2911765,8.12845588 35.2494118,6.78154412 35.2128676,5.47117647 C35.1919853,4.84992647 35.1763235,4.20257353 35.1711029,3.57610294 L35.1658824,3.07492647 L34.6647059,3.05926471 C31.6158824,2.97051471 28.5252941,2.92875 25.4764706,2.92875 C19.3736029,2.92875 13.1976471,3.10625 7.10522059,3.46125 C6.69279412,3.48735294 6.00889706,3.52389706 5.54426471,3.99375 C5.09007353,4.44794118 5.03786765,5.09007353 5.00654412,5.51816176 L4.38529412,13.5161029 L3.77970588,21.3104412 C3.52911765,24.495 3.27330882,27.7839706 3.905,31.0155147 C4.615,34.6542647 6.48397059,37.6769853 9.03683824,39.3058088 C10.0339706,39.9427206 11.1355147,40.3760294 12.1952941,40.7936765 C12.9522794,41.09125 13.7353676,41.4044853 14.4610294,41.7803676 C15.1866912,42.1614706 17.5620588,43.5710294 17.5986029,45.8054412 L17.6351471,48.1442647 C15.3641912,44.7247794 11.5583824,42.6574265 7.86742647,40.6527206 C7.15742647,40.2663971 6.42132353,39.8644118 5.71654412,39.4676471 C4.89169118,38.9977941 4.04073529,38.4809559 3.49779412,37.7448529 C2.93397059,36.9774265 2.70426471,35.9698529 2.50066176,34.9205147 C0.433308824,24.2496324 0.339338235,13.4221324 2.22397059,2.72514706 C14.0433824,2.46411765 26.0089706,1.81676471 37.8022794,0.803970588 M38.2147059,23.1011029 C38.1155147,26.2752206 37.8492647,29.465 37.4159559,32.6077941 C37.2071324,34.0956618 36.9513235,35.6670588 36.2622059,37.0139706 C34.5811765,40.3081618 30.9528676,41.6655147 27.1052941,43.1011765 C23.7223529,44.3645588 20.2402206,45.6644853 18.1363235,48.4209559 L18.6218382,45.8994118 C19.0499265,43.6545588 21.7280882,42.5164706 24.0877941,42.1927941 C24.6202941,42.1197059 25.1788971,42.0675 25.7166176,42.0100735 C27.8100735,41.8064706 29.9713971,41.5924265 31.7255147,40.3238235 C34.5080882,38.3138971 35.0458088,34.7221324 35.3955882,30.9006618 C35.6566176,27.9771324 36.21,24.8291176 38.2147059,23.1011029 M38.4078676,0.229705882 C26.2230147,1.28948529 14.0016176,1.94727941 1.775,2.21352941 C-0.182720588,13.0358088 -0.109632353,24.2235294 1.97860294,35.0197059 C2.18220588,36.0847059 2.42757353,37.1810294 3.06448529,38.0528676 C3.66485294,38.8725 4.56279412,39.4206618 5.44507353,39.9218382 C10.1175,42.5686765 15.5260294,44.8813971 17.9118382,49.6947794 C21.7124265,42.9915441 33.2238235,44.10875 36.7268382,37.2436765 C37.4472794,35.8341176 37.7135294,34.2418382 37.9327941,32.6756618 C38.4183088,29.1622059 38.695,25.6226471 38.7628676,22.0726471 C35.8654412,23.7275735 35.1711029,27.5333824 34.8735294,30.8536765 C34.5759559,34.1739706 34.1269853,37.9484559 31.4227206,39.9009559 C29.3397059,41.4044853 26.5623529,41.3261765 24.0147059,41.6707353 C21.4670588,42.0152941 18.5905147,43.2734559 18.1102206,45.795 C18.0788971,43.8216176 16.4396324,42.2241176 14.6907353,41.3157353 C12.9418382,40.4021324 10.9736765,39.9270588 9.30830882,38.8620588 C6.60926471,37.1444853 5.02220588,34.0538971 4.41139706,30.9163235 C3.80058824,27.7735294 4.04595588,24.5419853 4.29654412,21.3522059 C4.70897059,16.0846324 5.11617647,10.8222794 5.52860294,5.55470588 C5.55992647,5.12661765 5.61213235,4.66198529 5.91492647,4.35919118 C6.22294118,4.05117647 6.70323529,4.00419118 7.14176471,3.98330882 C13.2498529,3.62830882 19.3631618,3.45080882 25.4816912,3.45080882 C28.5409559,3.45080882 31.6002206,3.49257353 34.6542647,3.58132353 C34.6699265,6.09764706 34.9205147,8.71838235 34.4767647,11.2033824 C37.2175735,8.36338235 37.8805882,4.15558824 38.4078676,0.229705882 L38.4078676,0.229705882 Z" id="Shape" fill="#FFFFFF"></path></g></g></g></svg>