<svg xmlns="http://www.w3.org/2000/svg" xmlns:xlink="http://www.w3.org/1999/xlink" width="136px" height="99px" viewBox="0 0 136 99"><title>ik8</title><desc>Created with Sketch.</desc><g id="Web-20-07-25" stroke="none" stroke-width="1" fill="none" fill-rule="evenodd"><g id="Artboard" transform="translate(-399.000000, -430.000000)" fill-rule="nonzero"><g id="ik8" transform="translate(398.000000, 430.000000)"><path d="M7.89,69.49 C8.05,74.28 8.36,79.19 10.46,83.56 C12.72,88.27 18.93,92.31 23.62,89.55 C26.19,88.04 27.25,85.02 27.36,82.21 C27.47,79.39 26.82,76.59 26.85,73.77 C26.94,65.54 32.7,58.15 33.39,49.95 C33.71,46.1 33.72,41.03 37.7,39.91 C40.76,39.05 43.8,41.63 44.94,44.4 C46.08,47.18 46.1,50.28 47.33,53.02 C48.6,55.85 51.05,58.05 53.05,60.5 C56.48,64.7 58.64,69.8 59.22,75.05 C59.49,77.51 59.43,80.06 60.41,82.37 C61.39,84.68 63.82,86.7 66.46,86.35 C67.38,82.35 68.31,78.36 69.23,74.36 C69.66,72.5 70.11,70.6 71.18,68.98 C74.01,64.72 80.84,63.74 85.48,66.3 C90.12,68.85 92.5,74.11 92.32,79.12 C92.26,80.89 91.95,82.81 92.98,84.3 C94.1,85.92 96.36,86.41 98.4,86.74 C106.51,88.06 115.31,88.93 122.61,85.39 C131.29,81.17 135.6,71.53 135.650535,62.44 C135.7,53.35 132.24,44.59 128.82,36.07 C127.03,31.6 125,26.84 120.76,24.15 C116.56,21.49 111.12,21.44 106.04,21.51 C85.33,21.81 64.62,22.59 43.95,23.86 C37.02,24.28 29.97,24.79 23.52,27.19 C4.29,34.33 7.36,53.57 7.89,69.49 Z" id="Path" fill="#C8EEDB"></path><path d="M57.31,21.87 C52.35,23.99 46.63,23.64 41.19,23.19 C35.75,22.74 30.08,22.25 25.01,24.13 C15.83,27.55 11.72,37.46 10.07,46.51 C7.96,58.05 8.17,69.94 10.7,81.41 C11.3,84.15 12.08,86.95 13.93,89.15 C17.63,93.56 24.38,94.35 30.39,94.55 C43.34,95 56.29,94.39 69.23,93.78 C82.31,93.17 95.4,92.55 108.48,91.94 C112.83,91.74 117.26,91.52 121.36,90.13 C125.46,88.74 129.24,86 130.64,82.16 C132.05,78.3 130.86,74.05 131.44,70.01 C131.49,69.67 131.64,69.24 132.01,69.21 C132.38,69.17 132.34,69.91 132.03,69.72 C132.36,57.45 132.55,44.62 126.65,33.64 C124.07,28.85 120.21,24.45 114.98,22.2 C109.92,20.03 104.12,20.05 98.55,20.12 C93.52,20.18 88.5,20.24 83.47,20.31 C80.95,20.34 78.29,20.34 76.09,19.19 C70.93,16.48 71.24,9.41 67.77,4.94 C66.47,10.8 63.55,16.34 59.37,20.89 C59.93,13.47 63.05,6.24 68.15,0.51 C73.08,3.97 74.31,10.94 79.68,13.77 C82.04,15.01 84.84,15.24 87.55,15.34 C95.37,15.62 103.26,14.99 111,16.08 C118.74,17.16 126.61,20.27 130.98,26.3 C134.43,31.06 135.28,37.01 135.73,42.73 C136.69,54.94 136.27,67.25 134.45,79.38 C133.51,85.68 131.65,92.68 125.75,95.91 C122.09,97.92 117.61,98.01 113.36,98.04 C106.97,98.09 100.59,98.14 94.2,98.19 C86.63,98.25 79.05,98.31 71.48,98.37 C69.95,98.38 68.43,98.39 66.9,98.41 C52.31,98.52 37.71,98.64 23.12,98.21 C15.41,97.98 8.77,93.07 6.87,86.14 C2.1,68.73 -1.32,50.86 2.8,33.49 C3.51,30.5 4.55,27.38 7.01,25.34 C8.77,23.88 11.07,23.13 13.34,22.52 C21.64,20.31 30.4,19.62 38.99,20.5 C43.04,20.92 47.21,21.67 51.13,20.64 C54.31,19.81 60.43,12.66 62.98,13.15 C67.47,14 59.41,20.97 57.31,21.87 Z" id="Path" fill="#000000"></path><path d="M25.63,71.53 C25.49,70.11 25.36,68.67 25.7,67.28 C26.82,62.71 32.69,60.25 33.14,55.57 C33.49,52 30.43,48.54 31.41,45.08 C32.18,42.39 35.12,40.93 37.86,40.4 C39.29,40.12 40.82,40.01 42.14,40.62 C43.64,41.32 44.6,42.83 45.17,44.37 C46.37,47.59 46.22,51.28 44.77,54.39 C44.53,54.91 44.24,55.48 44.41,56.03 C44.57,56.57 45.12,56.89 45.61,57.19 C50.49,60.11 53.84,65.45 54.32,71.12 C54.71,75.72 53.4,80.72 55.65,84.76 C60.17,74.86 57,62.03 48.39,55.37 C47.87,54.97 47.3,54.56 47.02,53.96 C46.76,53.42 46.77,52.79 46.81,52.19 C47.1,48.19 48.62,43.68 46.17,40.5 C44.17,37.9 40.3,37.54 37.13,38.41 C34.37,39.17 31.75,40.75 30.19,43.16 C28.63,45.56 28.28,48.84 29.72,51.32 C30.64,52.91 32.28,54.38 31.97,56.19 C31.79,57.26 30.94,58.08 30.13,58.8 C28.07,60.61 25.83,62.37 24.65,64.85 C23.38,67.53 23.55,70.65 23.75,73.61 C23.98,76.93 24.2,80.25 24.43,83.58 C24.49,84.45 24.57,85.37 25.1,86.06 C25.63,86.75 26.78,87.03 27.36,86.38 C27.83,85.85 26.55,81.11 26.47,80.28 C26.2,77.36 25.91,74.44 25.63,71.53 Z" id="Path" fill="#000000"></path><path d="M69.7,80.51 C69.75,81.92 69.97,83.6 71.24,84.23 C71.72,84.47 72.28,84.5 72.82,84.52 C78.4,84.72 84,84.21 89.45,82.99 C90.84,78.52 90.4,73.71 89.9,69.05 C89.69,67.09 89.25,64.79 87.47,63.94 C86.68,63.56 85.77,63.56 84.89,63.58 C79.45,63.7 74.02,64.26 68.68,65.27 C68.48,65.73 68.81,66.27 69.26,66.49 C69.71,66.71 70.23,66.69 70.73,66.67 C75.72,66.43 80.72,66.35 85.71,66.41 C86.05,66.41 86.42,66.43 86.66,66.67 C86.88,66.89 86.92,67.23 86.94,67.54 C87.19,70.86 87.45,74.18 87.7,77.5 C87.79,78.68 87.78,80.09 86.8,80.75 C86.41,81.02 85.93,81.11 85.47,81.19 C80.69,82.02 75.83,82.34 70.99,82.14 C71.57,77.2 71.61,72.2 71.08,67.25 C70.98,66.35 70.34,64.96 69.48,65.98 C69.11,66.42 69.56,69.58 69.56,70.23 C69.54,73.67 69.59,77.09 69.7,80.51 Z" id="Path" fill="#000000"></path><path d="M77.09,78.28 C77.33,78.69 77.61,79.14 78.08,79.24 C78.72,79.39 79.28,78.8 79.68,78.28 C80.7,76.95 81.73,75.61 82.53,74.13 C83.28,72.74 83.83,71.25 84.15,69.7 C83.05,69.74 81.95,69.78 80.85,69.82 C79.8,71.9 78.75,73.98 77.7,76.06 C77.28,73.67 75.93,71.46 74.01,69.98 C71.58,70.97 76.19,76.72 77.09,78.28 Z" id="Path" fill="#000000"></path><path d="M88.67,54.75 C88.85,54.44 88.67,54.03 88.38,53.83 C88.09,53.63 87.72,53.58 87.37,53.55 C82.99,53.1 78.58,52.92 74.18,53.02 C72.88,53.05 71.58,53.11 70.32,53.44 C68.76,53.86 68.33,54.89 69.5,55.85 C70.59,56.74 74.01,56.32 75.31,56.31 C77.64,56.29 79.97,56.06 82.27,55.76 C83.15,55.64 88.27,55.43 88.67,54.75 Z" id="Path" fill="#000000"></path><path d="M98.42,55.32 C101.29,55.42 104.2,55.52 107,54.89 C107,54.11 107,53.33 107,52.55 C103,52.42 99,52.37 95,52.41 C93.86,52.42 90.08,52.71 91.63,54.78 C92.43,55.85 97.23,55.28 98.42,55.32 Z" id="Path" fill="#000000"></path><path d="M107.51,45.43 C108.2,44.86 107.84,43.63 107.06,43.18 C106.29,42.73 105.32,42.81 104.43,42.9 C92.48,44.12 80.46,44.62 68.46,44.39 C68.29,44.39 68.28,46.99 68.3,47.19 C74.53,47.95 81.49,46.94 87.77,46.64 C94.35,46.34 100.93,45.93 107.51,45.43 Z" id="Path" fill="#000000"></path></g></g></g></svg>