<svg xmlns="http://www.w3.org/2000/svg" xmlns:xlink="http://www.w3.org/1999/xlink" width="71px" height="71px" viewBox="0 0 71 71"><title>ic-main-why-dostup</title><desc>Created with Sketch.</desc><g id="ic-main-why-dostup" stroke="none" stroke-width="1" fill="none" fill-rule="evenodd"><g id="ik10" fill-rule="nonzero"><path d="M37.2586154,15.1885385 C36.8326154,18.6839231 37.346,22.3267692 38.9516923,25.4671538 C40.5573846,28.6075385 43.2936154,31.1963077 46.6033077,32.3978462 C47.4006923,32.6873077 48.2308462,32.9003077 49.0664615,33.0532308 C53.6650769,33.9216154 58.5968462,33.1187692 62.5837692,30.672 C66.5706923,28.2197692 69.5417692,24.1017692 70.4101538,19.5031538 C71.5461538,13.5009231 68.8918462,6.96892308 63.9491538,3.38069231 C56.3958462,-2.10269231 44.7081538,-0.071 39.7763846,7.94107692 C38.4219231,10.1366154 37.5699231,12.6325385 37.2586154,15.1885385 Z" id="Path" fill="#000000"></path><path d="M56.4996154,9.18630769 C51.1582308,11.0268462 45.7840769,12.8783077 40.8140769,15.5599231 C40.4099231,15.7783846 39.9402308,16.1388462 40.0603846,16.5866923 C40.1477692,16.9198462 40.5191538,17.0782308 40.8468462,17.1874615 C42.5235385,17.75 44.2166154,18.2579231 45.9206154,18.7166923 C46.1390769,18.7767692 46.3575385,18.8313846 46.5814615,18.8204615 C46.8927692,18.8040769 47.1767692,18.6456923 47.4553077,18.4982308 C51.5733077,16.2644615 56.0408462,14.5167692 59.5471538,11.4146154 C56.9201538,13.5719231 54.2931538,15.7292308 51.6716154,17.8865385 C51.0162308,18.4217692 50.3553846,18.9679231 49.8747692,19.667 C48.7114615,21.3436923 48.7933846,23.5556154 48.9244615,25.5927692 C49.7218462,24.7025385 50.5192308,23.8123077 51.3111538,22.9220769 C51.4094615,22.8073846 51.5241538,22.6926923 51.6661538,22.649 C51.8627692,22.5943846 52.0648462,22.7036154 52.2450769,22.8073846 C54.2931538,23.998 56.3412308,25.1886154 58.3893077,26.3792308 C58.7388462,26.5813077 59.1757692,26.7833846 59.5198462,26.5758462 C59.7219231,26.4502308 59.8202308,26.2153846 59.9076154,25.9914615 C61.0982308,22.9166154 61.7809231,19.667 62.4581538,16.4392308 C63.0643846,13.5719231 63.6651538,10.6991538 64.2713846,7.83184615 C64.3642308,7.39492308 64.3751538,6.81053846 63.9600769,6.65215385 C63.3538462,6.42276923 61.3385385,7.53146154 60.7268462,7.739 C59.3123077,8.21415385 57.9032308,8.70023077 56.4996154,9.18630769 Z" id="Path" fill="#FFFFFF"></path><path d="M38.0013846,52.114 C37.8484615,56.5706154 39.5033077,61.0217692 42.3542308,64.4461538 C44.9648462,67.5810769 48.777,69.9459231 52.8567692,69.9188495 C54.4351538,69.9076923 55.9916923,69.5472308 57.4936154,69.0556923 C61.2511538,67.8268462 64.8393846,65.6695385 67.0458462,62.3926154 C69.5363077,58.6951538 70.0223846,53.96 69.509,49.5252308 C69.2686923,47.4662308 68.8153846,45.3744615 67.6848462,43.6322308 C66.2757692,41.464 63.9655385,40.044 61.6006923,39.0008462 C60.137,38.3563846 58.6186923,37.8266154 57.0457692,37.5426154 C53.25,36.8599231 49.3340769,37.6900769 45.8714615,39.2848462 C42.6600769,40.7649231 40.5191538,43.2663077 39.192,46.5541538 C38.4765385,48.3127692 38.0669231,50.2079231 38.0013846,52.114 Z" id="Path" fill="#000000"></path><path d="M12.9820769,1.48007692 C8.69476923,2.69253846 4.96453846,5.63084615 2.57238462,9.39384615 C0.387769231,12.8346154 -0.699076923,17.1874615 0.573461538,21.0651538 C1.065,22.5670769 1.88423077,23.9379231 2.81269231,25.2159231 C5.13384615,28.4163846 8.27969231,31.1744615 12.0754615,32.2722308 C16.3573077,33.512 21.016,32.5289231 25.0793846,30.6829231 C26.9690769,29.8254615 28.8205385,28.7495385 30.1313077,27.1438462 C31.7697692,25.1394615 32.4087692,22.507 32.6818462,19.9346154 C32.8511538,18.3453077 32.8893846,16.7341538 32.6763846,15.1503077 C32.163,11.3272308 30.1804615,7.85369231 27.6026154,5.04646154 C25.2104615,2.43584615 22.1738462,1.16330769 18.6402308,0.906615385 C16.7396154,0.770076923 14.8116923,0.961230769 12.9820769,1.48007692 Z" id="Path" fill="#000000"></path><path d="M43.878,49.5470769 C44.1893077,51.8955385 45.5492308,53.9654615 46.9801538,55.8551538 C49.0009231,58.5313077 51.4149231,61.1746923 54.6426923,62.0976923 C55.9261538,62.4636154 57.2696923,62.5400769 58.6077692,62.551 C59.8256923,62.5619231 61.131,62.4909231 62.1031538,61.7481538 C63.0807692,61.0053846 63.4903846,59.7546923 63.8508462,58.5804615 C63.9218462,58.3456154 63.9928462,58.0889231 63.9054615,57.8595385 C63.8399231,57.6793077 63.687,57.5482308 63.5395385,57.4280769 C62.8076923,56.8109231 62.0703846,56.1937692 61.3385385,55.5711538 C60.7541538,55.0796154 60.0550769,54.5553077 59.3068462,54.7082308 C58.9081538,54.7901538 58.575,55.0577692 58.2746154,55.3308462 C57.6738462,55.877 57.1276923,56.4886923 56.658,57.155 C56.4941538,57.3898462 56.303,57.6465385 56.019,57.6847692 C55.8660769,57.7066154 55.7076923,57.652 55.5602308,57.5973846 C53.4793846,56.8163846 51.5896923,55.5383846 50.0877692,53.8999231 C49.6617692,53.4356923 49.2576154,52.9223077 49.0828462,52.3160769 C48.9080769,51.7098462 49.0227692,50.9834615 49.4979231,50.5738462 C49.8474615,50.2734615 50.3663077,50.1478462 50.5847692,49.7436923 C50.7486154,49.4433077 50.694,49.0719231 50.6284615,48.7333077 C50.5028462,48.0779231 50.3663077,47.4225385 50.2133846,46.7726154 C50.0222308,45.9643077 49.7983077,45.1286923 49.2576154,44.4951538 C46.3029231,41.0216154 43.5503077,47.1112308 43.878,49.5470769 Z" id="Path" fill="#C8EEDB"></path><path d="M1.491,48.0779231 C0.415076923,51.6552308 0.759153846,55.6366923 2.42492308,58.9791538 C3.02569231,60.1806923 3.78484615,61.3003077 4.64776923,62.3325385 C7.67892308,65.9644615 12.1737692,68.5477692 16.9034615,68.5642454 C19.8308462,68.5750769 22.7254615,67.6083846 25.1886154,66.0245385 C27.6517692,64.4406923 29.6998462,62.2615385 31.3164615,59.8202308 C31.7151538,59.2194615 32.092,58.5968462 32.376,57.936 C32.9112308,56.7126154 33.1406154,55.3745385 33.2116154,54.0419231 C33.4573846,49.5907692 31.9063077,44.9866923 28.7222308,41.8626923 C26.0843077,39.2739231 22.4578462,37.7938462 18.7713077,37.4989231 C12.9547692,37.0346923 6.83238462,39.05 3.45169231,43.9817692 C2.59969231,45.2324615 1.92792308,46.6196923 1.491,48.0779231 Z" id="Path" fill="#000000"></path><g id="Group" transform="translate(4.369231, 40.415385)" fill="#FFFFFF"><path d="M6.89246154,10.0273846 C7.04538462,11.3272308 7.81,12.4686923 8.61284615,13.5063846 C9.57953846,14.7570769 10.6390769,15.9586154 11.928,16.8761538 C13.2169231,17.7936923 14.7570769,18.4108462 16.3409231,18.3999231 C17.2584615,18.3944615 18.2306154,18.1377692 18.8368462,17.4496154 C19.4485385,16.7614615 19.5304615,15.5763077 18.8313846,14.9755385 C18.5473846,14.7297692 18.176,14.6096154 17.8155385,14.5003846 C16.827,14.1890769 15.5708462,13.9433077 14.8936154,14.7243077 C14.6751538,14.9755385 14.5331538,15.3196154 14.2218462,15.4343077 C13.9214615,15.549 13.5883077,15.3906154 13.3097692,15.2213077 C11.9389231,14.3856923 10.7974615,13.1896154 10.0219231,11.786 C9.85261538,11.4801538 9.70515385,11.0869231 9.90723077,10.8029231 C10.1038462,10.5189231 10.5516923,10.4861538 10.7155385,10.1803077 C10.8029231,10.0164615 10.7810769,9.81438462 10.7483077,9.62869231 C10.6008462,8.78761538 10.3059231,7.97384615 9.88538462,7.23107692 C9.73246154,6.96346154 9.54676923,6.68492308 9.25730769,6.57569231 C7.83730769,6.01861538 6.78323077,9.07161538 6.89246154,10.0273846 Z" id="Path"></path><path d="M1.92246154,6.52107692 C0.611692308,9.05523077 0.262153846,12.0754615 0.961230769,14.8444615 C1.22884615,15.904 1.64938462,16.9416923 1.69307692,18.034 C1.80776923,20.6118462 -0.136538462,23.004 0.202076923,25.56 C1.16330769,25.1012308 2.11907692,24.637 3.08030769,24.1782308 C3.69746154,23.8833077 4.32553846,23.5829231 5.00276923,23.4518462 C6.63030769,23.1405385 8.24692308,23.856 9.84715385,24.2874615 C10.9503846,24.5878462 12.0918462,24.7516923 13.2278462,24.6806923 C15.2868462,24.5496154 17.2147692,23.6375385 18.9788462,22.5725385 C21.0924615,21.2945385 23.1132308,19.7052308 24.2546923,17.5151538 C24.9701538,16.1443077 25.3142308,14.5932308 25.3524615,13.0476154 C25.4343846,9.86353846 24.211,6.66853846 22.0318462,4.35284615 C19.8526923,2.03169231 16.7396154,0.617153846 13.5555385,0.502461538 C11.7259231,0.436923077 9.91269231,0.775538462 8.11584615,1.11961538 C7.92469231,1.15784615 7.70623077,1.207 7.60792308,1.38176923 C7.51507692,1.54015385 7.56969231,1.74223077 7.61884615,1.917 C7.739,2.32115385 7.86461538,2.72530769 7.98476923,3.12946154 C9.59592308,2.68707692 11.2234615,2.23923077 12.8946923,2.15184615 C14.5659231,2.06446154 16.3026923,2.35392308 17.6953846,3.28784615 C18.7112308,3.97053846 19.4922308,4.94815385 20.2131538,5.94215385 C21.5348462,7.76084615 22.7746154,9.80346154 22.7855385,12.0536154 C22.791,13.2333077 22.4469231,14.3856923 22.0973846,15.5162308 C21.5239231,17.3513077 20.8521538,19.2628462 19.4157692,20.5463077 C17.6189231,22.1465385 15.0410769,22.4250769 12.6434615,22.6216923 C11.1142308,22.7473077 9.44846154,22.8401538 8.18684615,21.9717692 C7.80453846,21.7041538 7.44953846,21.3491538 6.98530769,21.2672308 C6.66853846,21.2126154 6.34630769,21.3054615 6.035,21.3983077 C4.86076923,21.7533077 3.69746154,22.1629231 2.56146154,22.6271538 C2.94923077,21.5457692 3.34246154,20.4643846 3.73023077,19.3884615 C3.82307692,19.1263077 3.92138462,18.8586923 3.91046154,18.5801538 C3.89407692,18.1978462 3.68653846,17.8537692 3.49538462,17.5206154 C1.67669231,14.2546154 1.94976923,9.93453846 4.17261538,6.91976923 C5.11746154,5.63630769 6.35723077,4.615 7.65707692,3.70292308 C8.52546154,3.09669231 11.218,1.52923077 8.58553846,1.01584615 C6.08415385,0.524307692 2.89461538,4.64230769 1.92246154,6.52107692 Z" id="Path"></path></g><path d="M4.78430769,12.2884615 C4.94815385,13.0312308 5.27038462,13.7303077 5.41238462,14.4730769 C5.68546154,15.9149231 5.26492308,17.4113846 5.396,18.8750769 C5.63084615,21.4747692 7.53146154,23.572 9.33376923,25.4507692 C9.98369231,26.128 10.65,26.8161538 11.4637692,27.2749231 C12.212,27.6954615 13.0585385,27.9084615 13.8941538,28.116 C14.8990769,28.3672308 15.9367692,28.6184615 16.9580769,28.4382308 C17.3294615,28.3726923 17.6953846,28.2470769 18.0722308,28.258 C18.5637692,28.2689231 19.0225385,28.5037692 19.4813077,28.6894615 C21.8406923,29.6397692 24.6970769,29.2192308 26.6850769,27.6299231 C28.6730769,26.0406154 29.7107692,23.3480769 29.3066154,20.8357692 C29.2137692,20.2459231 29.0444615,19.6724615 28.9789231,19.0771538 C28.9188462,18.5146154 28.9461538,17.9520769 28.9516154,17.3895385 C28.968,16.0951538 28.8696923,14.8007692 28.6566923,13.5227692 C28.4054615,12.0099231 27.9685385,10.4752308 26.9690769,9.31192308 C26.1826154,8.39984615 25.1121538,7.78815385 24.0089231,7.313 C21.4474615,6.19884615 18.6074615,5.72915385 15.8220769,5.94761538 C15.5326154,5.96946154 15.2322308,6.00223077 14.9536923,5.92576923 C14.5986923,5.83292308 14.3146923,5.58169231 14.0143077,5.37415385 C9.82530769,2.47953846 3.77938462,7.72807692 4.78430769,12.2884615 Z" id="Path" fill="#C8EEDB"></path><path d="M14.0743846,16.8543077 C15.4506923,17.5424615 17.0126923,17.7991538 18.3999231,18.4709231 C18.8040769,18.6675385 19.2027692,18.9078462 19.4594615,19.2792308 C19.7161538,19.6506154 19.7816923,20.1749231 19.5195385,20.5408462 C19.3447692,20.7866154 19.0553077,20.9176923 18.7767692,21.0378462 C18.0613077,21.3546154 17.3185385,21.6768462 16.5375385,21.6986923 C15.7565385,21.7205385 14.91,21.3764615 14.5713846,20.6719231 C14.3966154,20.3114615 14.3693077,19.8854615 14.1344615,19.5577692 C13.5992308,18.8040769 12.2393077,19.1645385 11.928,20.0383846 C11.6166923,20.9122308 12.1519231,21.9062308 12.9274615,22.4141538 C13.703,22.9220769 14.6587692,23.0476923 15.5817692,23.1296154 C16.6194615,23.2224615 17.6680769,23.2770769 18.7057692,23.1733077 C19.4430769,23.1023077 20.2186154,22.9220769 20.732,22.3868462 C21.0433077,22.0646154 21.2235385,21.6440769 21.3983077,21.2344615 C21.7096154,20.5135385 22.0209231,19.7762308 22.0864615,18.9952308 C22.1465385,18.2142308 21.9116923,17.3622308 21.2945385,16.8816154 C20.8794615,16.5593846 20.3496923,16.4337692 19.8417692,16.3136154 C18.957,16.1115385 18.0722308,15.9094615 17.1929231,15.7019231 C16.3081538,15.4998462 15.2923077,15.1830769 14.981,14.3310769 C14.7133846,13.5937692 15.1612308,12.7253846 15.8548462,12.3649231 C16.5484615,11.999 17.4059231,12.0645385 18.1323077,12.3594615 C18.8586923,12.6489231 19.4813077,13.1459231 20.093,13.6374615 C20.4698462,13.9433077 20.8849231,14.2655385 21.371,14.2819231 C22.1356154,14.3037692 22.7309231,13.4790769 22.649,12.7199231 C22.4305385,10.7592308 19.9455385,10.6554615 18.4709231,10.4970769 C17.2803077,10.3714615 15.8821538,9.90723077 14.6860769,10.1311538 C10.8466154,10.8466154 10.9394615,15.2923077 14.0743846,16.8543077 Z" id="Path" fill="#000000"></path></g></g></svg>