<svg xmlns="http://www.w3.org/2000/svg" xmlns:xlink="http://www.w3.org/1999/xlink" width="80px" height="80px" viewBox="0 0 80 80"><title>Message</title><desc>Created with Sketch.</desc><defs><linearGradient x1="14.1626117%" y1="0%" x2="69.8743221%" y2="100%" id="linearGradient-1"><stop stop-color="#5B8FD6" offset="0%"></stop><stop stop-color="#8ED6A3" offset="100%"></stop></linearGradient></defs><g id="Message" stroke="none" stroke-width="1" fill="none" fill-rule="evenodd"><circle id="Oval" fill="#FFFFFF" cx="40" cy="40" r="40"></circle><g id="testimonial-(1)" transform="translate(15.000000, 15.000000)" fill="url(#linearGradient-1)" fill-rule="nonzero"><path d="M11.5278355,7.09308894 C12.3396099,7.09308894 13,7.79286028 13,8.65304332 L13,13.4399466 C13.0000934,14.3001296 12.3397033,15 11.527929,15 L6.47216447,15 C5.66039014,15 5,14.3002287 5,13.4400456 L5,8.28706697 C5,1.75791428 8.52108399,0.177561869 11.4749445,0.0015050653 C11.7312697,-0.0134468904 11.9826422,0.0834932729 12.1693494,0.270541249 C12.3560565,0.457589225 12.4618386,0.717911686 12.4618386,0.990116496 L12.4618386,3.95327726 C12.4618386,4.4654065 12.0933769,4.89297302 11.6120313,4.9394132 C11.1302184,4.98585338 10.0832379,5.08665531 9.82747343,7.09308894 L11.5278355,7.09308894 Z M11.1311529,13.0195095 L11.1311529,9.07348043 L8.83581357,9.07348043 C8.31970564,9.07348043 7.9013433,8.6301698 7.9013433,8.08328469 C7.9013433,4.73632405 9.34154888,3.54432642 10.592898,3.14072263 L10.592898,2.09963083 C8.78096017,2.45877482 6.86894054,3.73117635 6.86894054,8.28706697 L6.86894054,13.0195095 L11.1311529,13.0195095 Z M21.5278527,7.09308894 C22.3396176,7.09308894 23,7.79286028 23,8.65304332 L23,13.4398476 C23.0000934,14.3001296 22.3396176,15 21.5278527,15 L16.4721473,15 C15.6603824,15 15,14.3002287 15,13.4400456 L15,8.28706697 C15,1.75791428 18.5210429,0.177561869 21.4748689,0.0015050653 C21.7310042,-0.0134468904 21.9825607,0.0834932729 22.1692656,0.270541249 C22.3559706,0.457589225 22.4617514,0.717911686 22.4617514,0.990116496 L22.4617514,3.95327726 C22.4617514,4.4654065 22.0932941,4.89297302 21.6119541,4.9394132 C21.1301468,4.98585338 20.0831786,5.08665531 19.827417,7.09308894 L21.5278527,7.09308894 Z M21.1310813,13.0196085 L21.1310813,9.07348043 L18.8357688,9.07348043 C18.3196669,9.07348043 17.9013094,8.6301698 17.9013094,8.08328469 C17.9013094,4.73632405 19.3414982,3.54432642 20.5928327,3.14072263 L20.5928327,2.09963083 C18.780916,2.45877482 16.8689187,3.73117635 16.8689187,8.28706697 L16.8689187,13.0196085 L21.1310813,13.0196085 Z M27.707,8.293 C27.893,8.479 28,8.737 28,9 C28,9.263 27.893,9.521 27.707,9.707 C27.521,9.893 27.263,10 27,10 C26.737,10 26.479,9.893 26.293,9.707 C26.107,9.521 26,9.263 26,9 C26,8.737 26.107,8.479 26.293,8.293 C26.479,8.107 26.737,8 27,8 C27.263,8 27.521,8.107 27.707,8.293 Z M32.6432617,8 C42.2138672,8 50,15.7135749 50,25.1947776 C50,29.1652888 48.6013672,33.0385713 46.0618164,36.1012275 C43.7271484,38.9168937 40.5321289,40.9352845 36.9986328,41.8423656 L36.9986328,49.0325501 C36.9986328,49.4238836 36.7606445,49.7766158 36.3958008,49.9262803 C36.275,49.9759105 36.1480469,50 36.0222656,50 C35.7680664,50 35.5183594,49.9017071 35.331543,49.7166339 L27.9354492,42.3895552 L17.3567383,42.3895552 C7.78613281,42.3895552 0,34.676077 0,25.1947776 C0,22.2730789 0.753417969,19.3869823 2.17900391,16.8484904 C2.44111328,16.3815991 3.03574219,16.2135531 3.50712891,16.4734101 C3.97841797,16.7331704 4.14804688,17.3222507 3.88574219,17.789142 C2.62138672,20.0407849 1.953125,22.6015281 1.953125,25.1947776 C1.953125,33.6090765 8.86318359,40.4546554 17.3567383,40.4546554 L28.3399414,40.4546554 C28.5989258,40.4546554 28.8473633,40.5566246 29.0304688,40.7380215 L35.0455078,46.6969325 L35.0455078,41.0756615 C35.0455078,40.6179609 35.3693359,40.2228544 35.821582,40.1288183 C42.9054687,38.6570367 48.046875,32.3763518 48.046875,25.1947776 C48.046875,16.7804787 41.1368164,9.93489983 32.6432617,9.93489983 L31.4126953,9.93489983 C30.8733398,9.93489983 30.4361328,9.50177251 30.4361328,8.96744992 C30.4361328,8.43312733 30.8733398,8 31.4126953,8 L32.6432617,8 Z M37.0230228,17 C37.5626073,17 38,17.4477 38,18 C38,18.5523 37.5625096,19 37.0229251,19 L12.9769772,19 C12.4373927,19 12,18.5523 12,18 C12,17.4477 12.4373927,17 12.9769772,17 L37.0230228,17 Z M37.0230228,22 C37.5626073,22 38,22.4477 38,23 C38,23.5523 37.5625096,24 37.0229251,24 L12.9769772,24 C12.4373927,24 12,23.5523 12,23 C12,22.4477 12.4373927,22 12.9769772,22 L37.0230228,22 Z M37.0230228,28 C37.5626073,28 38,28.4478 38,29 C38,29.5522 37.5625096,30 37.0229251,30 L12.9769772,30 C12.4373927,30 12,29.5522 12,29 C12,28.4478 12.4373927,28 12.9769772,28 L37.0230228,28 Z M37.007884,33 C37.5558297,33 38,33.4478 38,34 C38,34.5522 37.5558297,35 37.007884,35 L23.992116,35 C23.4441703,35 23,34.5522 23,34 C23,33.4478 23.4441703,33 23.992116,33 L37.007884,33 Z M19.0079857,33 C19.5558752,33 20,33.4478 20,34 C20,34.5522 19.5558752,35 19.0079857,35 L18.9920143,35 C18.4441248,35 18,34.5522 18,34 C18,33.4478 18.4441248,33 18.9920143,33 L19.0079857,33 Z" id="Combined-Shape"></path></g></g></svg>