<svg xmlns="http://www.w3.org/2000/svg" xmlns:xlink="http://www.w3.org/1999/xlink" width="200px" height="140px" viewBox="0 0 200 140"><title>ic-online</title><desc>Created with Sketch.</desc><g id="ic-online" stroke="none" stroke-width="1" fill="none" fill-rule="evenodd"><g id="ik2" transform="translate(27.000000, 3.000000)" fill-rule="nonzero"><path d="M45.4,89.56 C46.37,90.93 47.38,92.34 48.82,93.21 C50.26,94.08 52.22,94.31 53.56,93.29 C55.01,92.2 55.25,90.13 55.17,88.32 C54.87,81.44 51.82,74.16 54.88,67.99 C56.07,65.59 58.15,63.51 58.39,60.84 C58.58,58.78 57.61,56.81 56.51,55.06 C54,51.07 50.61,47.51 49.25,43 C47.89,38.49 49.65,32.48 54.24,31.44 C59.03,30.36 63.12,35.2 64.67,39.86 C66.22,44.52 66.7,49.83 70.08,53.39 C71.56,54.95 73.47,56.01 75.12,57.39 C80.21,61.62 82.42,68.27 85.48,74.14 C86.04,75.22 86.69,76.33 87.76,76.9 C88.83,77.47 90.12,77.39 91.34,77.3 C95.81,76.95 101.02,76.13 103.12,72.18 C105.04,68.59 103.38,64.21 101.66,60.52 C96.58,49.61 90.98,38.93 84.9,28.54 C81.59,22.89 78.02,17.19 72.81,13.22 C66.12,8.13 57.31,6.45 48.92,7.02 C40.56,7.58 32.34,10.12 24.52,13.01 C20.04,14.66 15.03,16.11 12.41,20.38 C7.84,27.81 12.47,34.25 16.07,40.97 C20.26,48.79 24.56,56.56 29.09,64.19 C34.23,72.84 39.62,81.34 45.4,89.56 Z" id="Path" fill="#D3E3FD"></path><path d="M35.4,19.47 C35.49,19.56 35.59,19.66 35.68,19.75 C35.82,19.9 35.98,20 36.16,20.06 C36.34,20.15 36.53,20.2 36.74,20.19 C36.95,20.2 37.14,20.15 37.32,20.06 C37.51,20 37.67,19.9 37.8,19.75 C37.88,19.65 37.96,19.55 38.03,19.45 C38.17,19.22 38.23,18.96 38.23,18.69 C38.21,18.56 38.19,18.42 38.18,18.29 C38.11,18.04 37.98,17.82 37.79,17.63 C37.7,17.54 37.6,17.44 37.51,17.35 C37.37,17.2 37.21,17.1 37.03,17.04 C36.85,16.95 36.66,16.9 36.45,16.91 C36.24,16.9 36.05,16.95 35.87,17.04 C35.68,17.1 35.52,17.2 35.39,17.35 C35.31,17.45 35.23,17.55 35.16,17.65 C35.02,17.88 34.96,18.14 34.96,18.41 C34.98,18.54 35,18.68 35.01,18.81 C35.09,19.07 35.21,19.29 35.4,19.47 L35.4,19.47 Z" id="Path" fill="#000000"></path><path d="M41.56,18.21 C43.49,18.21 43.49,15.21 41.56,15.21 C39.63,15.21 39.63,18.21 41.56,18.21 L41.56,18.21 Z" id="Path" fill="#000000"></path><path d="M119.8,79.43 C119.32,78.39 118.77,77.4 118.19,76.5 C104.06,54.23 89.93,31.96 75.8,9.69 C73.99,6.84 72,3.83 68.9,2.5 C66.44,1.45 63.66,1.61 60.99,1.87 C43.76,3.51 26.79,7.96 10.96,14.97 C8.89,15.64 6.93,16.63 5.18,17.92 C3.67,19.03 2.28,20.39 1.52,22.11 C0.33,24.8 0.85,27.91 1.59,30.76 C3.96,39.81 8.33,48.12 13.22,56.14 C19.53,57.47 22.21,64.3 22.26,70.38 C22.97,71.48 23.68,72.58 24.39,73.68 C29.06,73.02 32.62,80.25 31.92,85.19 C32.37,85.87 32.84,86.55 33.29,87.23 C36.69,88.47 38.4,91.65 38.62,95.04 C42.19,100.18 58.73,126.52 62.54,131.49 C64.96,133.9 67.72,135.83 71.03,136.47 C75.61,137.36 80.25,135.56 84.57,133.8 C95.42,129.38 106.26,124.96 117.11,120.54 C121.73,118.66 126.47,116.69 130,113.17 C132.11,111.06 133.67,108.23 134.17,105.32 C133.03,103.87 121.51,79.58 119.8,79.43 Z M57.03,103.1 C39.9,78.17 24.74,51.89 11.76,24.57 C24.59,17.01 38.9,11.95 53.63,9.76 C57,9.26 60.52,8.92 63.74,10.05 C68.44,11.7 71.52,16.1 74.24,20.26 C86.98,39.73 98.89,59.75 109.94,80.22 C110.52,81.29 115.98,90.38 120.66,98.02 C121.01,99.2 121.64,100.32 122.07,101.49 C122.64,103.03 122.82,104.96 121.7,106.17 C121.14,106.77 120.36,107.1 119.6,107.4 C106.63,112.62 93.66,117.83 80.69,123.05 C78.72,123.84 76.65,124.65 74.55,124.39 C71.71,124.05 70.32,121.96 68.28,120.55 C63.54,113.22 57.44,103.7 57.03,103.1 Z" id="Shape" stroke="#FFFFFF" stroke-width="3" fill="#000000"></path><path d="M82.97,100.58 C83.49,101.96 84.64,103 85.8,103.92 C87.2,105.03 88.68,106.06 90.34,106.71 C92,107.36 93.85,107.62 95.58,107.18 C96.58,106.92 97.58,106.38 98.06,105.46 C98.54,104.54 98.31,103.22 97.38,102.76 C97,102.57 96.56,102.54 96.14,102.51 C94.97,102.44 93.53,102.51 93,103.55 C92.83,103.88 92.77,104.3 92.46,104.51 C92.16,104.72 91.75,104.63 91.4,104.52 C89.68,103.98 88.1,102.98 86.87,101.65 C86.6,101.36 86.34,100.97 86.48,100.6 C86.62,100.24 87.1,100.08 87.2,99.7 C87.25,99.49 87.17,99.28 87.09,99.08 C86.7,98.2 86.16,97.39 85.5,96.69 C85.26,96.44 84.98,96.19 84.64,96.14 C82.91,95.93 82.58,99.57 82.97,100.58 Z" id="Path" fill="#000000"></path><path d="M80.04,24.02 C83.24,29.34 88.93,32.58 94.73,33.61 C96.54,33.93 98.51,34.12 99.9,35.43 C101.91,37.31 101.83,40.58 101.91,43.42 C102.38,60.46 115.73,76.24 131.52,78.41 C116.71,72.43 105.49,57.02 103.72,40.21 C103.48,37.95 103.38,35.61 102.42,33.58 C99.74,27.92 92.33,27.68 87.41,24.13 C80.83,19.39 80.18,7.66 86.21,2.33 C88.75,8.27 93.58,13.08 99.29,15.35 C102.44,16.6 105.82,17.11 108.91,18.54 C117.87,22.68 122.33,33.27 126.67,42.66 C132.2,54.63 138.82,66.04 146.39,76.67 C140.78,64.23 135.17,51.79 129.57,39.35 C125.83,31.05 121.71,22.3 114.38,17.48 C111.38,15.51 108,14.32 104.79,12.77 C100.28,10.59 96.08,7.67 92.37,4.13 C78.51,-9.09 73.46,13.1 80.04,24.02 Z" id="Path" fill="#000000"></path><path d="M11.27,66.04 C12.79,69.48 16.37,71.92 20.13,72.08 C15.7,74.8 13.96,81.14 16.37,85.74 C18.78,90.34 24.98,92.52 29.74,90.42 C27.1,91.05 24.23,91.84 22.68,94.06 C20.35,97.37 22.38,102.29 25.8,104.45 C29.22,106.61 33.5,106.77 37.54,106.86 C35.62,107.4 34.96,110.04 35.87,111.81 C36.78,113.58 38.73,114.57 40.64,115.14 C43.61,116.01 46.79,116.12 49.81,115.45 C48.24,118.05 44.88,119.13 41.86,118.79 C38.84,118.45 36.09,116.95 33.5,115.37 C32.19,114.58 30.84,113.69 30.15,112.32 C29.46,110.95 29.73,108.98 31.11,108.31 C24.54,109.75 18.32,103.69 16.7,97.15 C16.17,95.01 16.77,91.87 18.96,91.96 C15.13,90.02 11.16,87.66 9.33,83.77 C7.5,79.88 9.08,74.18 13.28,73.27 C8.91,71.34 5.23,67.29 4.87,62.52 C4.53,58.01 8.12,52.7 12.96,52.85 C14.51,58.04 8.43,59.63 11.27,66.04 Z" id="Path" fill="#000000"></path><path d="M52.76,75 C52.73,73.26 52.83,71.49 53.4,69.85 C54.25,67.37 56.11,65.3 56.71,62.74 C57.6,58.97 55.55,55.17 53.35,51.99 C51.15,48.8 48.62,45.53 48.37,41.67 C48.17,38.62 49.61,35.47 52.17,33.81 C54.73,32.15 58.35,32.2 60.74,34.1 C61.93,35.05 62.76,36.36 63.47,37.7 C65.06,40.71 66.13,43.99 66.6,47.36 C66.92,49.64 67.01,52.07 68.29,53.99 C70.54,57.39 75.43,57.75 78.56,60.36 C83.29,64.3 82.9,72.22 87.59,76.21 C86.15,72.38 84.58,68.59 82.89,64.87 C81.89,62.68 80.8,60.45 79,58.86 C76.38,56.56 72.49,55.83 70.36,53.06 C68.73,50.93 68.52,48.08 67.97,45.46 C67.25,42.03 65.85,38.75 63.86,35.87 C61.4,32.29 57.02,29.12 52.98,30.71 C50.82,31.56 49.37,33.57 48.19,35.58 C46.56,38.37 45.2,41.66 46.07,44.77 C46.94,47.91 49.8,50.02 51.71,52.67 C54.26,56.2 55.07,60.93 53.85,65.11 C53.13,67.59 51.76,69.83 50.97,72.28 C50.25,74.51 50.03,76.9 50.32,79.22 C50.91,83.91 53.56,89.1 56.6,92.67 C57.61,90.94 55.02,87.17 54.43,85.28 C53.39,81.95 52.82,78.48 52.76,75 Z" id="Path" fill="#000000"></path></g></g></svg>