<svg width="20" height="20" class="icon" viewBox="0 0 33 35" xmlns="http://www.w3.org/2000/svg"><title>ic-check-blue@2x</title><g id="Web-20-07-25" fill="none" fill-rule="evenodd"><g id="0.0-Main" transform="translate(-266 -2985)"><g id="ic-check-blue" transform="translate(265 2985)"><path id="Path-3" stroke="#5F84CE" stroke-width="2" stroke-linecap="round" stroke-linejoin="round" d="M10 18.445l5.416 5.415L26.276 13"></path><path d="M1.815 29.305c-.085.554-.17 1.115-.062 1.67.48 2.363 3.702 2.55 6.083 2.316a56.342 56.342 0 0 1 18.641 1.303c.873.21 1.924.398 2.558-.25.333-.343.448-.834.549-1.295A215.279 215.279 0 0 0 33.64 6.962c.147-1.552.124-3.432-1.174-4.275-.704-.46-1.6-.468-2.443-.421-5.95.28-17.134 4.142-21.562-1.474-4.158 7.91-5.24 19.58-6.647 28.513z" id="Path" fill="#FFF" fill-rule="nonzero"></path><path d="M9.416 11.38c1.74 5.93 3.48 11.86 5.21 17.79 1.17-.33 2.33-.65 3.5-.98 3.22-7.13 7.4-13.82 12.41-19.83-1.99-.21-3.97-.43-5.96-.64-.64-.07-1.34-.13-1.91.17-.63.34-.97 1.04-1.26 1.7-2.01 4.52-4.02 9.03-6.03 13.55l-2.13-13.23c-1.05 1.48-2.04 1.15-3.83 1.47" id="Path" fill="#5F84CE" fill-rule="nonzero"></path></g></g></g></svg>