<svg xmlns="http://www.w3.org/2000/svg" xmlns:xlink="http://www.w3.org/1999/xlink" width="684px" height="684px" viewBox="0 0 684 684"><title>Slice</title><desc>Created with Sketch.</desc><g id="Page-1" stroke="none" stroke-width="1" fill="none" fill-rule="evenodd"><g id="download-32" transform="translate(99.000000, 152.000000)" fill-rule="nonzero"><g id="abstract_background_12" transform="translate(7.831871, 17.158927)" fill="#FEF5B5"><g id="bbc7dc8d-148f-4ae7-b5fd-6b310611ab6a6IHCX3YofMvpaWEe8pJQm"><g id="ba10c4b9-0cda-4ee9-8eef-ef825ed46d8d6IHCX3YofMvpaWEe8pJQm"><path d="M221.584352,0.150628096 C361.816147,-3.04349447 352.087147,45.456735 406.099872,54.7869352 C476.70222,66.9831038 455.751321,152.471945 455.751321,185.914072 C455.751321,288.508617 428.131025,374.206589 235.674628,374.199192 C42.3889181,374.191795 4.05330275,283.067177 0.165728485,180.547274 C-4.56256558,55.7956055 92.2913082,3.09325554 221.584352,0.150628096 Z" id="Path"></path></g></g></g><g id="dumbbell_2" transform="translate(98.483594, 0.873611)"><g id="afb3b064-ae91-4f5f-8e84-cfcbc5154f750NHfLQ6FNOy6ZWeUyttp3"><g id="f2460bac-49ec-431f-ab8c-e219e21304b30NHfLQ6FNOy6ZWeUyttp3"><path d="M38.1624327,83.4206298 L19.0066874,83.4206298 C9.25326751,83.4206298 1.34690939,65.0457862 1.34690939,42.3794643 C1.34690939,19.7131424 9.25326751,1.33829887 19.0066874,1.33829887 L38.1624327,1.33829887" id="Path" fill="#FEF5B5"></path><ellipse id="Oval" fill="#FEF5B5" cx="37.8634188" cy="42.3794643" rx="17.659778" ry="41.0411655"></ellipse><path d="M2.69381878,28.550376 C2.69381878,28.550376 17.9587919,4.46099624 35.838565,1.61041964 C35.838565,1.61041964 21.5505502,0.896660245 17.9534042,1.41413581 C11.654358,2.32864004 6.3933299,15.0174978 2.69381878,28.550376 Z" id="Path" fill="#FFFFFF"></path><path d="M38.1624327,84.7589286 L19.0066874,84.7589286 C8.35083822,84.7589286 0,66.1440835 0,42.3794643 C0,18.6148451 8.35083822,0 19.0066874,0 L38.1624327,0 C38.9063102,0 39.5093421,0.599176815 39.5093421,1.33829887 C39.5093421,2.07742093 38.9063102,2.67659775 38.1624327,2.67659775 L19.0066874,2.67659775 C10.1637783,2.67659775 2.69381878,20.857834 2.69381878,42.3794643 C2.69381878,63.9010946 10.1637783,82.0823309 19.0066874,82.0823309 L38.1624327,82.0823309 C38.9063102,82.0823309 39.5093421,82.6815077 39.5093421,83.4206298 C39.5093421,84.1597518 38.9063102,84.7589286 38.1624327,84.7589286 Z" id="Path" fill="#1A1A1A"></path><path d="M37.8634188,84.7589286 C27.2075697,84.7589286 18.8567315,66.1440835 18.8567315,42.3794643 C18.8567315,18.6148451 27.2075697,0 37.8634188,0 C48.519268,0 56.8692083,18.6148451 56.8692083,42.3794643 C56.8692083,66.1440835 48.5210639,84.7589286 37.8634188,84.7589286 Z M37.8634188,2.67659775 C29.0205097,2.67659775 21.5505502,20.857834 21.5505502,42.3794643 C21.5505502,63.9010946 29.0205097,82.0823309 37.8634188,82.0823309 C46.7063279,82.0823309 54.1753895,63.9010946 54.1753895,42.3794643 C54.1753895,20.857834 46.70543,2.67659775 37.8634188,2.67659775 Z" id="Shape" fill="#1A1A1A"></path><path d="M86.6511708,31.6730733 L86.6511708,53.0858553 L38.6760542,53.0858553 C35.9121961,53.0858553 33.6727347,48.2893921 33.6727347,42.3794643 C33.6727347,36.4695365 35.9121961,31.6730733 38.6760542,31.6730733 L86.6511708,31.6730733 Z" id="Path" fill="#FEF5B5"></path><path d="M86.6511708,54.4241542 L38.6760542,54.4241542 C35.0555617,54.4241542 32.3258254,49.2493985 32.3258254,42.3794643 C32.3258254,35.5095301 35.0555617,30.3347745 38.6760542,30.3347745 L86.6511708,30.3347745 C87.3950483,30.3347745 87.9980801,30.9339513 87.9980801,31.6730733 L87.9980801,53.0858553 C87.9980801,53.8249774 87.3950483,54.4241542 86.6511708,54.4241542 Z M38.6760542,33.0113722 C37.1854744,33.0113722 35.0196441,36.6604671 35.0196441,42.3794643 C35.0196441,48.0984615 37.1854744,51.7475564 38.6760542,51.7475564 L85.3042614,51.7475564 L85.3042614,33.0113722 L38.6760542,33.0113722 Z" id="Shape" fill="#1A1A1A"></path><path d="M110.89554,83.4206298 L91.7397944,83.4206298 C81.9863746,83.4206298 74.0800164,65.0457862 74.0800164,42.3794643 C74.0800164,19.7131424 81.9863746,1.33829887 91.7397944,1.33829887 L110.89554,1.33829887" id="Path" fill="#FEF5B5"></path><ellipse id="Oval" fill="#FEF5B5" cx="110.596526" cy="42.3794643" rx="17.659778" ry="41.0411655"></ellipse><path d="M74.5289862,28.550376 C74.5289862,28.550376 89.7939593,4.46099624 107.673733,1.61041964 C107.673733,1.61041964 93.3857177,0.896660245 89.7885717,1.41413581 C83.4895254,2.32864004 78.2284974,15.0174978 74.5289862,28.550376 Z" id="Path" fill="#FFFFFF"></path><path d="M117.181117,31.6730733 L117.181117,53.0858553 L111.793479,53.0858553 L111.793479,53.0501673 C111.6671,53.0761796 111.538203,53.0881491 111.409161,53.0858553 C108.645303,53.0858553 106.405842,48.2893921 106.405842,42.3794643 C106.405842,36.4695365 108.645303,31.6730733 111.409161,31.6730733 C111.538203,31.6707795 111.6671,31.6827491 111.793479,31.7087613 L111.793479,31.6730733 L117.181117,31.6730733 Z" id="Path" fill="#FEF5B5"></path><path d="M117.181117,54.4241542 L111.793479,54.4241542 C111.745889,54.4241542 111.698298,54.4241542 111.651605,54.4170166 C111.561811,54.423262 111.472017,54.4241542 111.409161,54.4241542 C107.788669,54.4241542 105.058932,49.2493985 105.058932,42.3794643 C105.058932,35.5095301 107.788669,30.3347745 111.409161,30.3347745 C111.480996,30.3347745 111.563607,30.3347745 111.656095,30.3419121 C111.700992,30.3374511 111.745889,30.3347745 111.793479,30.3347745 L117.181117,30.3347745 C117.924994,30.3347745 118.528026,30.9339513 118.528026,31.6730733 L118.528026,53.0858553 C118.528026,53.8249774 117.924994,54.4241542 117.181117,54.4241542 Z M112.102371,51.7475564 L115.834208,51.7475564 L115.834208,33.0113722 L112.062861,33.0113722 C111.877605,33.0536651 111.685109,33.0536651 111.499853,33.0113722 C111.469949,33.0095703 111.439963,33.0095703 111.410059,33.0113722 C109.918581,33.0113722 107.752751,36.6604671 107.752751,42.3794643 C107.752751,48.0984615 109.918581,51.7475564 111.409161,51.7475564 C111.44143,51.7502544 111.47387,51.7502544 111.506139,51.7475564 C111.702346,51.7029341 111.906164,51.7029341 112.102371,51.7475564 L112.102371,51.7475564 Z" id="Shape" fill="#1A1A1A"></path><ellipse id="Oval" fill="#FEF5B5" cx="117.630087" cy="42.3794643" rx="4.93866776" ry="10.706391"></ellipse><path d="M117.630087,54.4241542 C114.04641,54.4241542 111.34451,49.2493985 111.34451,42.3794643 C111.34451,35.5095301 114.04641,30.3347745 117.630087,30.3347745 C121.213764,30.3347745 123.915664,35.5095301 123.915664,42.3794643 C123.915664,49.2493985 121.213764,54.4241542 117.630087,54.4241542 Z M117.630087,33.0113722 C116.165547,33.0113722 114.038328,36.6604671 114.038328,42.3794643 C114.038328,48.0984615 116.165547,51.7475564 117.630087,51.7475564 C119.094626,51.7475564 121.221845,48.0984615 121.221845,42.3794643 C121.221845,36.6604671 119.094626,33.0113722 117.630087,33.0113722 Z" id="Shape" fill="#1A1A1A"></path><path d="M36.8155233,51.3906767 C39.5093421,53.1750752 69.6397052,49.3707376 74.1042608,44.5368021 C74.1405765,47.4990087 74.3474407,50.4567243 74.7238391,53.3954485 L37.8634188,53.0858553 C37.8634188,53.0858553 36.4563475,51.1551361 36.8155233,51.3906767 Z" id="Path" fill="#1A1A1A"></path><path d="M110.89554,84.7589286 L91.7397944,84.7589286 C81.0839453,84.7589286 72.7331071,66.1440835 72.7331071,42.3794643 C72.7331071,18.6148451 81.0839453,0 91.7397944,0 L110.89554,0 C111.639417,0 112.242449,0.599176815 112.242449,1.33829887 C112.242449,2.07742093 111.639417,2.67659775 110.89554,2.67659775 L91.7397944,2.67659775 C82.8968853,2.67659775 75.4269258,20.857834 75.4269258,42.3794643 C75.4269258,63.9010946 82.8968853,82.0823309 91.7397944,82.0823309 L110.89554,82.0823309 C111.639417,82.0823309 112.242449,82.6815077 112.242449,83.4206298 C112.242449,84.1597518 111.639417,84.7589286 110.89554,84.7589286 Z" id="Path" fill="#1A1A1A"></path><path d="M110.596526,84.7589286 C99.9406767,84.7589286 91.5898385,66.1440835 91.5898385,42.3794643 C91.5898385,18.6148451 99.9406767,0 110.596526,0 C121.252375,0 129.602315,18.6148451 129.602315,42.3794643 C129.602315,66.1440835 121.254171,84.7589286 110.596526,84.7589286 Z M110.596526,2.67659775 C101.753617,2.67659775 94.2836573,20.857834 94.2836573,42.3794643 C94.2836573,63.9010946 101.753617,82.0823309 110.596526,82.0823309 C119.439435,82.0823309 126.908497,63.9010946 126.908497,42.3794643 C126.908497,20.857834 119.438537,2.67659775 110.596526,2.67659775 Z" id="Shape" fill="#1A1A1A"></path><path d="M12.561277,79.5627602 C12.561277,79.5627602 16.1629127,82.0823309 18.8567315,81.1901317 C21.5505502,80.2979324 26.9381878,76.7291354 26.0483297,72.8801878 C26.0483297,72.8801878 31.4278858,82.9745302 35.9175837,83.8667294 C17.0608523,84.7589286 16.1422601,83.2885843 12.561277,79.5627602 Z" id="Path" fill="#1A1A1A"></path><path d="M85.294384,79.5627602 C85.294384,79.5627602 88.8960197,82.0823309 91.5898385,81.1901317 C94.2836573,80.2979324 99.6712949,76.7291354 98.7814367,72.8801878 C98.7814367,72.8801878 104.160993,82.9745302 108.650691,83.8667294 C89.7939593,84.7589286 88.8753671,83.2885843 85.294384,79.5627602 Z" id="Path" fill="#1A1A1A"></path></g></g></g><g id="dumbbell_1" transform="translate(44.580515, 220.427915)"><g id="f53be9ad-4d1c-4920-afe1-af0db32c423b_c4tBSc-nXDQmeztnUaZE"><g id="a5317bd4-a26c-4436-837c-1fbf9ad3bd67_c4tBSc-nXDQmeztnUaZE"><path d="M33.2049878,16.8632994 C33.2049878,8.26155032 29.0912588,1.28161075 23.9813801,1.11517732 L23.9813801,1.09947658 L10.699385,1.09947658 L10.699385,1.10711226 C10.6380968,1.10101005 10.5764957,1.09856171 10.5149128,1.09947658 C5.32017694,1.09947658 1.10683293,8.16037052 1.10683293,16.8632994 C1.10683293,25.5662282 5.32017694,32.6271222 10.5149128,32.6271222 C10.5764957,32.628037 10.6380968,32.6255887 10.699385,32.6194865 L10.699385,32.6271222 L23.9813801,32.6271222 L23.9813801,32.6114214 C29.0912588,32.4442548 33.2049878,25.4643152 33.2049878,16.8632994 Z" id="Path" fill="#FEF5B5"></path><path d="M2.95155447,8.79824315 C2.95155447,8.79824315 15.495661,4.39912157 22.8745472,1.46637386 C18.4131059,1.56628562 13.9494286,1.44393429 9.50031596,1.09978039 C9.50031596,1.09978039 3.8185736,5.79217674 2.95155447,8.79824315 Z" id="Path" fill="#FFFFFF"></path><path d="M5.16522033,28.5942902 C5.16522033,28.5942902 13.8826365,31.4977105 17.2717589,28.213033 C17.2717589,28.213033 19.1851041,32.2602249 22.5056029,32.6268183 L9.3158438,32.6268183 C7.52212404,31.7749184 6.06267002,30.3569894 5.16522033,28.5942902 Z" id="Path" fill="#1A1A1A"></path><path d="M23.9813801,33.7265987 L10.699385,33.7265987 L10.6366644,33.7265987 C10.5953427,33.7265987 10.5540209,33.7265987 10.5149128,33.7265987 C4.61844486,33.7265987 0,26.3214108 0,16.8632994 C0,7.40518798 4.61844486,0 10.5149128,0 C10.5547588,0 10.5960806,0 10.6381402,0 L10.699385,0 L23.9813801,0 C24.592667,0 25.088213,0.492388454 25.088213,1.09978039 C25.088213,1.70717233 24.592667,2.19956079 23.9813801,2.19956079 L10.8196608,2.19956079 C10.7350747,2.20909119 10.6496754,2.20909119 10.5650892,2.19956079 C6.01526802,2.19956079 2.21366585,8.91481987 2.21366585,16.8632994 C2.21366585,24.8117789 6.01526802,31.5270379 10.5149128,31.5270379 C10.609464,31.5149388 10.7051866,31.5149388 10.7997378,31.5270379 L23.9813801,31.5270379 C24.592667,31.5270379 25.088213,32.0194264 25.088213,32.6268183 C25.088213,33.2342103 24.592667,33.7265987 23.9813801,33.7265987 Z" id="Path" fill="#1A1A1A"></path><path d="M23.7969079,33.7265987 C17.90044,33.7265987 13.2819951,26.3214108 13.2819951,16.8632994 C13.2819951,7.40518798 17.90044,0 23.7969079,0 C29.6933759,0 34.3118207,7.40518798 34.3118207,16.8632994 C34.3118207,26.3214108 29.6933759,33.7265987 23.7969079,33.7265987 Z M23.7969079,2.19956079 C19.2972631,2.19956079 15.495661,8.91481987 15.495661,16.8632994 C15.495661,24.8117789 19.2972631,31.5270379 23.7969079,31.5270379 C28.2965527,31.5270379 32.0981549,24.8117789 32.0981549,16.8632994 C32.0981549,8.91481987 28.2965527,2.19956079 23.7969079,2.19956079 Z" id="Shape" fill="#1A1A1A"></path><path d="M63.0894769,24.1951687 L24.7192687,24.1951687 C21.8665913,24.1951687 19.5540484,20.8225088 19.5540484,16.8632994 C19.5540484,12.90409 21.8665913,9.53143008 24.7192687,9.53143008 C27.5719461,9.53143008 60.1379224,10.1179796 63.0894769,10.1179796" id="Path" fill="#FEF5B5"></path><path d="M63.0894769,25.2949491 L24.7192687,25.2949491 C21.2607848,25.2949491 18.4472155,21.5124377 18.4472155,16.8632994 C18.4472155,12.2141611 21.2607848,8.43164968 24.7192687,8.43164968 C26.1426559,8.43164968 34.6512495,8.57242157 43.6593938,8.72125852 C52.4845416,8.86789591 61.6107481,9.01819923 63.0894769,9.01819923 C63.7007638,9.01819923 64.1963098,9.51058768 64.1963098,10.1179796 C64.1963098,10.7253716 63.7007638,11.21776 63.0894769,11.21776 C61.5923008,11.21776 52.4572398,11.0667235 43.6224993,10.9208193 C35.0194559,10.7778479 26.1212571,10.6312105 24.7192687,10.6312105 C22.5572551,10.6312105 20.6608813,13.543429 20.6608813,16.8632994 C20.6608813,20.1831698 22.5572551,23.0953883 24.7192687,23.0953883 L63.0894769,23.0953883 C63.7007638,23.0953883 64.1963098,23.5877767 64.1963098,24.1951687 C64.1963098,24.8025606 63.7007638,25.2949491 63.0894769,25.2949491 Z" id="Path" fill="#1A1A1A"></path><path d="M22.1410859,22.5476976 C24.5525059,24.0140715 51.3437658,23.0352669 55.3416464,19.0628602 C55.2942296,20.8027543 55.5437205,22.5380623 56.079535,24.1951687 L23.0789423,23.9407528 C23.0789423,23.9407528 21.8230559,22.3541363 22.1410859,22.5476976 Z" id="Path" fill="#1A1A1A"></path><path d="M87.8087456,16.8632994 C87.8087456,8.26155032 83.6950165,1.28161075 78.5851378,1.11517732 L78.5851378,1.09947658 L65.3031427,1.09947658 L65.3031427,1.10711226 C65.2418545,1.10101005 65.1802535,1.09856171 65.1186706,1.09947658 C59.9239347,1.09947658 55.7105907,8.16037052 55.7105907,16.8632994 C55.7105907,25.5662282 59.9239347,32.6271222 65.1186706,32.6271222 C65.1802535,32.628037 65.2418545,32.6255887 65.3031427,32.6194865 L65.3031427,32.6271222 L78.5851378,32.6271222 L78.5851378,32.6114214 C83.6950165,32.4442548 87.8087456,25.4643152 87.8087456,16.8632994 Z" id="Path" fill="#FEF5B5"></path><path d="M56.079535,8.79824315 C56.079535,8.79824315 68.6236415,4.39912157 76.0025277,1.46637386 C71.5410864,1.56628562 67.0774091,1.44393429 62.6282965,1.09978039 C62.6282965,1.09978039 56.9465541,5.79217674 56.079535,8.79824315 Z" id="Path" fill="#FFFFFF"></path><path d="M59.7689781,28.9608837 C59.7689781,28.9608837 68.4863942,31.8643039 71.8755166,28.5796265 C71.8755166,28.5796265 73.7888618,32.6268183 77.1093606,32.9934118 L63.9196015,32.9934118 C62.1258818,32.1415118 60.6664278,30.7235828 59.7689781,28.9608837 Z" id="Path" fill="#1A1A1A"></path><path d="M78.5851378,33.7265987 L65.3031427,33.7265987 L65.2404222,33.7265987 C65.1991004,33.7265987 65.1577786,33.7265987 65.1186706,33.7265987 C59.2222026,33.7265987 54.6037577,26.3214108 54.6037577,16.8632994 C54.6037577,7.40518798 59.2222026,0 65.1186706,0 C65.1585165,0 65.1998383,0 65.241898,0 L65.3031427,0 L78.5851378,0 C79.1964248,0 79.6919708,0.492388454 79.6919708,1.09978039 C79.6919708,1.70717233 79.1964248,2.19956079 78.5851378,2.19956079 L65.4234186,2.19956079 C65.3388324,2.20909119 65.2534331,2.20909119 65.168847,2.19956079 C60.6190258,2.19956079 56.8174236,8.91481987 56.8174236,16.8632994 C56.8174236,24.8117789 60.6190258,31.5270379 65.1186706,31.5270379 C65.2132218,31.5149388 65.3089443,31.5149388 65.4034956,31.5270379 L78.5851378,31.5270379 C79.1964248,31.5270379 79.6919708,32.0194264 79.6919708,32.6268183 C79.6919708,33.2342103 79.1964248,33.7265987 78.5851378,33.7265987 Z" id="Path" fill="#1A1A1A"></path><path d="M78.4006657,33.7265987 C72.5041977,33.7265987 67.8857529,26.3214108 67.8857529,16.8632994 C67.8857529,7.40518798 72.5041977,0 78.4006657,0 C84.2971336,0 88.9155785,7.40518798 88.9155785,16.8632994 C88.9155785,26.3214108 84.2971336,33.7265987 78.4006657,33.7265987 Z M78.4006657,2.19956079 C73.9010209,2.19956079 70.0994187,8.91481987 70.0994187,16.8632994 C70.0994187,24.8117789 73.9010209,31.5270379 78.4006657,31.5270379 C82.9003105,31.5270379 86.7019126,24.8117789 86.7019126,16.8632994 C86.7019126,8.91481987 82.9003105,2.19956079 78.4006657,2.19956079 Z" id="Shape" fill="#1A1A1A"></path></g></g></g><g id="porcupine_hedgehog" transform="translate(53.287704, 304.581540) scale(-1, 1) translate(-53.287704, -304.581540) translate(0.035565, 249.346498)"><g id="Layer_2qUQ0wfbgREtJnei9m8c1i"><g id="porcupine_hedgehogqUQ0wfbgREtJnei9m8c1i"><path d="M57.1044934,107.357946 L57.1719012,107.290173 C57.2466518,107.16653 57.2927315,107.027542 57.3067168,106.883534 L57.3067168,106.747988 C57.3159304,106.673459 57.2911564,106.598734 57.239309,106.544669 L46.1170267,75.8434736 C46.1002276,75.7415342 46.0532437,75.6470572 45.9822112,75.5723814 C45.324747,74.2547242 43.7329233,73.7174008 42.4178087,74.3692099 C41.102694,75.021019 40.5571633,76.6176775 41.1962594,77.9444384 L54.7452214,105.392527 C53.838028,105.191693 52.9101979,105.100682 51.9815028,105.121435 C49.0829687,105.121435 46.7911044,105.934711 46.7911044,106.883534 C46.7911044,107.832357 49.1503764,108.645634 51.9815028,108.645634 C54.273367,108.645634 56.1607846,108.171222 56.8348624,107.493492 C57.0370857,107.425719 57.0370857,107.357946 57.1044934,107.357946 L57.1044934,107.357946 Z" id="Path" fill="#191919"></path><path d="M40.7918128,37.8905612 C40.7918128,37.8905612 25.2206176,12.1367992 19.9628115,17.2197786 C15.9183452,21.1506159 26.568773,42.5669022 25.692472,48.3953852 C24.8835788,54.1560951 14.9746364,89.9402697 50.9029785,85.5350209" id="Path" fill="#FFFFFF"></path><path d="M29.1976761,47.5821085 C29.0628606,52.9361801 24.2095011,84.1117867 50.3637163,82.8240986 L40.8592206,37.8905612 C40.8592206,37.8905612 25.2880254,12.1367992 20.0302192,17.2197786 C16.3901996,21.6250273 29.3324917,41.6858525 29.1976761,47.5821085 Z" id="Path" fill="#FEF5B5"></path><path d="M42.9488615,108.984499 C43.023612,108.860856 43.0696917,108.721868 43.083677,108.577861 L43.083677,108.306768 L34.3880745,77.402254 C34.3880745,77.3344809 34.3206667,77.1989348 34.3206667,77.1311617 C33.7808566,75.7649658 32.2417028,75.0974192 30.8828704,75.6401545 C29.5240381,76.1828899 28.8600894,77.7303845 29.3998994,79.0965804 L40.724405,107.086853 C39.7720664,106.883029 38.799262,106.792045 37.8258709,106.815761 C34.9273367,106.815761 32.6354725,107.629038 32.6354725,108.577861 C32.6354725,109.526683 34.9947445,110.33996 37.8258709,110.33996 C40.0503273,110.33996 41.9377449,109.865549 42.6792304,109.187818 C42.8140459,109.187818 42.8814537,109.052272 42.9488615,108.984499 Z" id="Path" fill="#191919"></path><ellipse id="Oval" fill="#191919" transform="translate(18.819544, 16.402941) rotate(-50.844000) translate(-18.819544, -16.402941) " cx="18.8195444" cy="16.4029411" rx="3.50520411" ry="4.06638347"></ellipse><ellipse id="Oval" fill="#191919" cx="28.3887829" cy="32.4009435" rx="1.95482537" ry="1.96541868"></ellipse><path d="M106.042535,63.7120963 C104.238531,60.9248553 102.233374,58.2745785 100.043244,55.7826485 C98.9647194,54.5627335 97.7513795,53.3428184 96.5380396,52.1906764 C95.9313697,51.5807189 95.3246998,51.1063075 94.650622,50.49635 C94.3505617,50.2086879 94.0355505,49.937215 93.7069132,49.6830733 L92.6957967,48.8697966 C92.29135,48.5309313 91.8194956,48.192066 91.3476412,47.8532007 C94.650622,48.7342505 97.8187873,49.8186194 101.05436,50.9707614 L101.05436,50.9707614 C101.296306,51.0628997 101.566925,50.941973 101.66103,50.6996692 C101.75231,50.4377546 101.637155,50.1483084 101.391399,50.0219386 C96.6167331,47.9887648 91.733375,46.2239443 86.7639128,44.7356401 C86.6365634,44.6803905 86.4977541,44.6571302 86.3594662,44.667867 C82.7428915,42.5786152 78.8973994,40.9183672 74.9001451,39.7204338 C71.6828928,38.732935 68.3917322,38.0076756 65.0586105,37.5516959 L65.8000959,37.5516959 C67.2156591,37.619469 68.5638146,37.7550151 69.9793778,37.9583343 L70.9904943,38.0938804 C71.3275332,38.1616534 71.664572,38.1616534 72.0016109,38.2294265 L74.0912518,38.6360649 L75.1023684,38.839384 L76.1134849,39.0427032 L78.2031258,39.5171146 C78.5401647,39.5848877 78.8772036,39.7204338 79.2142424,39.7882068 L80.225359,40.0592991 L82.2475921,40.6692566 L82.2475921,40.6692566 C82.4861194,40.7137526 82.7272742,40.6059919 82.8542621,40.3981644 C82.9216698,40.1270721 82.8542621,39.8559799 82.584631,39.7882068 L80.5623978,38.9749301 L79.5512813,38.5682918 L78.5401647,38.1616534 L76.5179316,37.4839229 L75.506815,37.1450576 C75.1697761,37.0772845 74.8327373,36.9417384 74.4956984,36.8739653 L72.8779119,36.3995539 C73.4890196,36.4566926 74.0965859,36.5471902 74.6979217,36.6706462 C78.4981042,37.272451 82.2576425,38.1099165 85.9550195,39.1782493 C86.1950023,39.2368114 86.4441108,39.1254965 86.5616895,38.9071571 C86.6290973,38.6360649 86.5616895,38.3649726 86.2920584,38.2971996 C82.6366193,36.932577 78.8993248,35.8007857 75.1023684,34.9085467 C71.2673006,34.0138881 67.3680321,33.4246952 63.4408239,33.1464472 C59.4670965,32.8527245 55.4757602,32.8980687 51.5096484,33.2819933 C49.5189737,33.476003 47.539203,33.770054 45.5777646,34.163043 C44.566648,34.3663622 43.6229392,34.5696814 42.6118226,34.8407736 C42.1399682,34.9763197 41.600706,35.1118658 41.1288516,35.247412 C40.8717581,35.3075077 40.6228023,35.3985277 40.3873662,35.5185042 L40.1177351,35.5862772 C38.8369874,33.6208586 36.6799387,30.2999787 34.253259,26.9790989 C28.928045,19.8629278 24.816171,16.0676366 21.9176368,15.7287713 C20.9114133,15.5887043 19.8960281,15.9124003 19.1539182,16.609821 C16.3901996,19.2529703 18.9516949,27.2501911 21.6480057,35.6540503 C23.2657923,40.7370296 24.9509865,46.0233282 24.6139477,48.2598391 C24.5465399,48.7342505 24.4117244,49.344208 24.2769088,50.1574847 C23.0635689,56.6636983 20.1650348,71.9804093 28.2539673,80.6553608 C32.0288025,84.6539712 37.6236475,86.6871629 44.9710946,86.6871629 C46.2518423,86.6871629 47.6674055,86.6193899 49.0155609,86.4838437 C50.0687798,87.4660144 51.1712097,88.3934545 52.3185417,89.2625391 C56.1558713,92.2335315 60.3728893,94.6725967 64.8563871,96.5142563 C69.2926073,98.3233477 73.9338544,99.5753083 78.6749802,100.241774 C78.9306048,100.260962 79.1609883,100.087238 79.2142424,99.8351361 C79.2646778,99.5555118 79.0859176,99.2859185 78.8097958,99.2251786 L78.8097958,99.2251786 C74.2498435,98.2804857 69.8156529,96.8019944 65.5978726,94.8199299 C62.6074529,93.3571821 59.7633278,91.6096869 57.1044934,89.6014044 L57.9807945,90.0758158 C58.3852411,90.279135 58.7896877,90.4824542 59.1267266,90.6857733 C61.2509538,91.73838 63.434141,92.6661712 65.6652804,93.4644687 C65.8305764,93.5399449 65.9885401,93.630699 66.1371348,93.7355609 C68.1030022,94.8820826 70.1280919,95.9227375 72.2038342,96.8531216 C72.4285141,96.9248526 72.6735669,96.8427257 72.8105041,96.6498024 C72.9265805,96.4052294 72.8390904,96.1120151 72.6082808,95.9720718 L72.6082808,95.9720718 C71.5297565,95.3621143 70.3838244,94.7521568 69.3053,94.1421993 C69.3495563,93.9023794 69.2423764,93.6599178 69.035669,93.5322418 C68.428999,93.3289226 67.8223291,93.0578304 67.2156591,92.7867381 C67.076797,92.7359572 66.9583775,92.6407083 66.8786203,92.5156459 C66.4067659,92.2445537 66.0023192,91.8379153 65.5304648,91.5668231 L64.8563871,91.0924117 C64.6600657,90.8970012 64.4321243,90.7365775 64.1823094,90.6180003 C63.7778628,90.279135 63.3060084,89.9402697 62.9015618,89.6014044 L61.6208141,88.5170355 C60.9467364,87.907078 60.3400665,87.3648935 59.7333965,86.754936 C59.9488927,86.9053285 60.1740802,87.0411732 60.4074742,87.1615743 C60.8793286,87.5004396 61.4185908,87.8393049 61.957853,88.1781702 C66.0667579,90.7915362 70.3713291,93.0801105 74.8327373,95.023249 C75.0574155,95.0947554 75.3023372,95.0126724 75.4394072,94.8199299 C75.5554836,94.5753569 75.4679934,94.2821425 75.2371839,94.1421993 L75.2371839,94.1421993 C70.9588247,91.9602584 66.8568929,89.4449738 62.9689695,86.6193899 C62.4971151,86.2805246 62.0252607,85.9416593 61.5534063,85.5350209 C61.0815519,85.1961556 60.6096975,84.8572903 60.1378431,84.450652 C59.1941343,83.7051484 58.2504256,82.9596447 57.3741245,82.146368 C55.5541147,80.5875877 53.8015126,78.9610343 52.1163184,77.2667079 C51.4422407,76.5889773 50.7681629,75.8434736 50.161493,75.1657431 C50.0940852,75.0301969 49.9592697,74.8946508 49.8918619,74.7591047 L49.8918619,74.7591047 C51.3074251,76.1823389 52.7903961,77.5378001 54.273367,78.8932612 C55.4867069,79.9776302 56.7000468,80.994226 57.9807945,82.0108219 C59.2615421,83.0274178 60.5422898,83.9762406 61.8904452,84.8572903 C63.2386006,85.7383401 64.5867561,86.6193899 66.0023192,87.3648935 C67.4157278,88.1604566 68.87935,88.8622745 70.3838244,89.4658583 C70.6085043,89.5375893 70.8535571,89.4554624 70.9904943,89.2625391 C71.1065707,89.0179661 71.0190805,88.7247518 70.788271,88.5848085 L70.788271,88.5848085 C69.3727078,87.8393049 68.0919602,87.0260282 66.8112125,86.2127515 C65.5304648,85.3317018 64.2497172,84.3828789 63.0363773,83.4340561 C62.9015618,83.29851 62.6993385,83.1629639 62.5645229,83.0274178 L62.9689695,83.29851 C63.4408239,83.5696022 63.8452706,83.8406945 64.317125,84.1117867 L67.0808436,85.670567 C67.9571446,86.2127515 68.9008534,86.6871629 69.8445622,87.1615743 L71.2601254,87.907078 C71.7184946,88.1604243 72.1911491,88.3867175 72.6756886,88.5848085 L75.506815,90.0080427 C75.7090383,90.1435889 75.9786694,90.0080427 76.1808927,89.8047236 C76.2481676,89.6888826 76.2645971,89.5501619 76.2262593,89.4216767 C76.1879215,89.2931914 76.0982566,89.1864715 75.9786694,89.126993 L75.9786694,89.126993 L73.2823585,87.5004396 C72.8105041,87.2293474 72.4060575,86.9582551 71.9342031,86.6871629 L70.6534555,85.8738862 C69.7771544,85.3317018 68.9008534,84.7895173 68.0245524,84.1795598 L65.4630571,82.4174603 C65.0586105,82.146368 64.5867561,81.8075027 64.1823094,81.5364105 L62.9015618,80.6553608 C62.0252607,80.0454032 61.2163675,79.4354457 60.3400665,78.8254882 L57.8459789,76.9956156 L55.3518914,75.09797 C54.6104059,74.4880125 53.8689204,73.945828 53.1274349,73.3358705 C52.9926194,73.2003244 52.8578038,72.9970052 52.7229883,72.8614591 C52.7903961,72.9292322 52.9252116,72.9970052 52.9926194,73.0647783 C56.4978235,75.3690622 59.9356198,77.6733462 63.3060084,79.9776302 C66.7438047,82.3496872 70.1141933,84.7217442 73.3497663,87.2971204 L73.3497663,87.2971204 C73.5600932,87.4456905 73.8469433,87.4168501 74.023844,87.2293474 C74.1203087,87.143422 74.1755305,87.0200573 74.1755305,86.8904821 C74.1755305,86.7609069 74.1203087,86.6375422 74.023844,86.5516168 C72.8105041,85.4672479 71.5971643,84.3828789 70.3164166,83.3662831 C70.5186399,83.3662831 70.6534555,83.3662831 70.788271,83.1629639 C70.880182,83.0759449 70.9072313,82.9399658 70.8556788,82.8240986 C71.7319798,83.6373753 72.6082808,84.450652 73.4171741,85.2639287 C76.8391949,88.6374255 80.0580155,92.2131573 83.0564854,95.9720718 L83.0564854,95.9720718 C83.1318487,96.0782805 83.2491212,96.1466371 83.378241,96.1596191 C83.5073608,96.172601 83.635774,96.1289461 83.7305631,96.0398449 C83.9378286,95.8796693 83.9954267,95.5901182 83.8653786,95.3621143 C81.0772467,91.3751282 78.0376584,87.5720314 74.7653295,83.9762406 C71.664572,80.5875877 68.4964068,77.402254 65.1260182,74.2169203 C65.5304648,74.5557855 65.9349115,74.8268778 66.2719503,75.1657431 C69.2438021,77.5802844 72.0793359,80.1596698 74.7653295,82.8918717 L74.7653295,82.8918717 C74.8507918,82.9888591 74.9734916,83.0443802 75.1023684,83.0443802 C75.2312452,83.0443802 75.353945,82.9888591 75.4394072,82.8918717 C75.6258993,82.7140123 75.6545843,82.4256077 75.506815,82.2141411 C73.609051,79.9099391 71.5836048,77.7151285 69.4401156,75.6401545 C71.1253099,76.9956156 72.8105041,78.3510768 74.4956984,79.774311 C75.1697761,80.3842685 75.7764461,80.926453 76.4505238,81.5364105 C76.7821693,82.0325053 77.0751439,82.5536538 77.3268248,83.0951908 C78.4636454,85.1972438 79.4111313,87.3973432 80.1579512,89.6691775 L80.1579512,89.6691775 C80.2324078,89.9311876 80.5040232,90.0829028 80.7646212,90.0080427 C81.0252191,89.9331827 81.1761166,89.6600954 81.10166,89.3980852 C80.6313464,87.6744937 80.0687958,85.9776965 79.4164657,84.3151059 C79.7252076,84.5915667 80.017796,84.8857406 80.2927668,85.1961556 C82.1801844,87.0938013 84.0001942,88.9914469 85.7527962,91.0246386 L85.7527962,91.0246386 C85.929697,91.2121413 86.2165471,91.2409818 86.4268739,91.0924117 C86.5312081,91.0156964 86.5981656,90.8979861 86.6110272,90.7686728 C86.6238888,90.6393596 86.5814406,90.5106494 86.4942817,90.4146811 C84.8764952,88.3137163 83.1238932,86.2127515 81.3038833,84.2473328 C80.0231357,82.8240986 78.6749802,81.4686374 77.3268248,80.0454032 C76.5179316,78.6899421 75.7090383,77.3344809 74.7653295,76.0467928 C73.2801658,74.0582407 71.6821966,72.1574406 69.9793778,70.353856 C69.1704845,69.5405793 68.428999,68.7950756 67.6201058,68.049572 C69.9793778,69.5405793 72.271242,71.2349057 74.5631062,72.9292322 L76.5179316,74.5557855 C77.1782647,75.0844212 77.8084053,75.6500956 78.4053492,76.250112 L79.349058,77.1311617 L80.225359,78.0122115 L82.0453688,79.8420841 L82.0453688,79.8420841 C82.1308311,79.9390715 82.2535309,79.9945926 82.3824077,79.9945926 C82.5112845,79.9945926 82.6339843,79.9390715 82.7194465,79.8420841 C82.9059386,79.6642247 82.9346236,79.3758201 82.7868543,79.1643535 L81.10166,77.1989348 C80.8290568,76.8435648 80.5364796,76.5041463 80.225359,76.1823389 L79.349058,75.2335161 C78.742388,74.6235586 78.1357181,73.945828 77.5290481,73.3358705 L75.6416305,71.5059979 C73.1075617,69.1267496 70.4285315,66.9085336 67.6201058,64.8642383 C66.0023192,63.7120963 64.3845327,62.5599543 62.7667462,61.4755854 C63.710455,61.8822237 64.6541638,62.3566351 65.5304648,62.8310465 C67.8223291,63.9831885 70.1141933,65.2708766 72.3386497,66.6263378 C74.5510188,67.9770457 76.6887499,69.4476301 78.742388,71.0315865 L80.2927668,72.2515016 L81.7757377,73.5391897 C82.2475921,73.945828 82.7868543,74.4202394 83.2587087,74.8268778 L84.0001942,75.5046084 L84.337233,75.8434736 L84.6742719,76.1823389 L86.0898351,77.6055731 C86.5616895,78.0799846 86.9661361,78.554396 87.4379905,79.0288074 L88.1120682,79.774311 C88.3142915,80.0454032 88.5165149,80.2487224 88.7187382,80.5198146 L89.9320781,82.0108219 L89.9320781,82.0108219 C90.1089788,82.1983246 90.3958289,82.2271651 90.6061558,82.078595 C90.711792,82.0028232 90.7797802,81.8849153 90.7926921,81.7550958 C90.8056041,81.6252762 90.7621845,81.4961671 90.6735635,81.4008644 L89.7972625,80.1131763 L89.1905926,79.2998996 L88.5839226,78.4866229 C88.179476,78.0122115 87.7750294,77.470027 87.303175,76.9278426 L85.9550195,75.4368353 L85.6179807,75.0301969 L85.2809418,74.6913317 L84.6068641,74.0136011 L83.1913009,72.5903669 L81.70833,71.2349057 L80.225359,69.9472176 C78.8097958,68.7273026 77.3942326,67.5751606 75.9112616,66.4907917 C76.5179316,66.89743 77.1920093,67.3040683 77.7986792,67.7784798 C80.4313707,69.5493937 82.8714768,71.5938347 85.0787185,73.878055 L85.0787185,73.878055 C85.2556193,74.0655577 85.5424694,74.0943981 85.7527962,73.945828 C85.8571303,73.8691128 85.9240879,73.7514024 85.9369495,73.6220892 C85.9498111,73.492776 85.9073628,73.3640657 85.820204,73.2680974 C83.7655545,70.694011 81.4374161,68.3532563 78.8772036,66.2874725 C78.1357181,65.677515 77.3268248,64.9997844 76.5179316,64.3898269 C78.0683103,65.3386497 79.618689,66.4230186 81.10166,67.5073875 L81.10166,67.5073875 C81.3119869,67.6559576 81.598837,67.6271172 81.7757377,67.4396145 C81.8722024,67.3536891 81.9274242,67.2303244 81.9274242,67.1007492 C81.9274242,66.971174 81.8722024,66.8478093 81.7757377,66.7618839 C79.3507566,64.5240548 76.7341842,62.5056333 73.9564363,60.7300817 C71.1691142,58.9108918 68.238319,57.3242194 65.193426,55.9859677 C64.6665138,55.7313399 64.1264868,55.5051093 63.5756395,55.3082371 C64.6541638,55.5793293 65.7326882,55.9181946 66.8786203,56.2570599 L68.8334456,56.8670174 L70.788271,57.544748 C71.2601254,57.7480672 71.7993876,57.9513864 72.271242,58.1547055 C72.6756886,58.4935708 73.147543,58.7646631 73.5519896,59.1035283 C75.8715111,60.8815465 78.056996,62.8296931 80.0905434,64.9320113 C80.6194471,65.4412687 81.1148181,65.9846019 81.5735144,66.5585647 C82.0812344,67.0920408 82.5540773,67.6579994 82.9890776,68.2528912 C83.9241341,69.382136 84.8015645,70.558383 85.6179807,71.7770902 L85.6179807,71.7770902 C85.6804404,71.876082 85.7795165,71.9460115 85.8933386,71.9714424 C86.0071607,71.9968732 86.1263695,71.9757143 86.2246506,71.9126363 C86.4554602,71.772693 86.5429503,71.4794787 86.4268739,71.2349057 C85.6853885,69.9472176 84.943903,68.5917564 84.067602,67.3718414 C83.6631553,66.7618839 83.1913009,66.1519264 82.7868543,65.4741958 C82.3149999,64.8642383 81.9105533,64.2542807 81.3712911,63.6443232 C80.8320289,62.9665926 80.2927668,62.3566351 79.7535046,61.7466776 C79.8209124,61.7466776 79.8883201,61.8144507 79.9557279,61.8144507 L81.7757377,62.8310465 C82.584631,63.3054579 83.460932,63.8476424 84.2698253,64.3898269 C84.8090874,65.4741958 85.2809418,66.5585647 85.7527962,67.6429336 L85.7527962,67.6429336 C85.8596291,67.8726138 86.1183117,67.9882069 86.3594662,67.9140259 C86.4843225,67.8810021 86.5875027,67.79275 86.639937,67.6741336 C86.6923712,67.5555172 86.6883835,67.4193767 86.6290973,67.3040683 C86.4268739,66.7618839 86.2246506,66.2196994 86.0224273,65.6097419 C89.1361134,67.7888074 92.1081118,70.1657082 94.9202531,72.725913 L94.9202531,72.725913 C95.1063945,72.9130631 95.4081894,72.9130631 95.5943308,72.725913 C95.7804723,72.5387628 95.7804723,72.2353325 95.5943308,72.0481824 C92.284769,68.6328897 88.6750084,65.5252826 84.8090874,62.7632735 C84.7104355,62.5307373 84.5978836,62.3044138 84.4720486,62.0855429 C84.0516376,61.221359 83.5788954,60.3839186 83.0564854,59.5779397 C82.9350133,59.4031107 82.8225199,59.2221458 82.7194465,59.0357553 C86.7299668,61.4754082 90.5193908,64.2648426 94.0439521,67.3718414 L94.0439521,67.3718414 C94.2370013,67.5413974 94.5249807,67.5413974 94.7180298,67.3718414 C94.8144945,67.285916 94.8697163,67.1625513 94.8697163,67.0329761 C94.8697163,66.9034009 94.8144945,66.7800362 94.7180298,66.6941108 C90.9603738,63.0279024 86.876349,59.7157543 82.5172232,56.7992444 C82.2636654,56.595377 81.9930231,56.4139711 81.70833,56.2570599 L81.3712911,56.0537407 C81.8748802,56.1809514 82.3701515,56.3393917 82.8542621,56.5281521 C84.5394563,57.1381097 86.2246506,57.7480672 87.9098449,58.4935708 L87.9098449,58.4935708 C88.1345248,58.5653019 88.3795776,58.4831749 88.5165149,58.2902516 C88.6325912,58.0456787 88.5451011,57.7524643 88.3142915,57.6125211 C86.698188,56.7263093 85.0327111,55.934315 83.3261165,55.240464 C81.6409222,54.5627335 79.9557279,53.8172298 78.2031258,53.2750454 L77.5964559,53.0717262 C76.265215,51.8110925 74.8210533,50.6767271 73.2823585,49.6830733 C72.4734653,49.1408888 71.664572,48.5987044 70.788271,48.124293 C70.8623986,48.1150294 70.9367204,48.1399376 70.9904943,48.192066 C76.9234055,49.7968831 82.5029831,52.5098257 87.4379905,56.1892869 L89.2580003,57.6125211 L90.1343014,58.3580247 L90.6061558,58.7646631 L91.0106024,59.1713014 C92.1565345,60.1878973 93.2350588,61.2722662 94.3135832,62.4244082 C96.39072,64.7270691 98.3052704,67.1728567 100.043244,69.7438984 L100.043244,69.7438984 C100.198305,69.9590516 100.491883,70.0180854 100.717321,69.8794445 C100.911847,69.7134534 100.991068,69.4479525 100.919545,69.201714 C99.3005475,66.4506418 97.451382,63.8432465 95.3921075,61.4078123 C94.380991,60.1878973 93.3024666,59.0357553 92.1565345,57.8836133 L91.7520879,57.476975 L91.3476412,57.0703366 L90.4713402,56.2570599 C89.8646703,55.7148754 89.2580003,55.172691 88.6513304,54.6982796 C84.7699598,51.5050426 80.4288602,48.9228303 75.7764461,47.039924 C75.8438539,47.039924 75.8438539,47.039924 75.9112616,47.1076971 C77.7205113,47.6387544 79.4984243,48.2723156 81.2364756,49.0053427 C82.9890776,49.7508463 84.6742719,50.564123 86.2920584,51.4451728 C87.9240725,52.3811428 89.4793666,53.446287 90.9431946,54.6305065 C92.4043511,55.8179137 93.7578155,57.1333526 94.9876609,58.5613439 L94.9876609,58.5613439 C95.1645616,58.7488466 95.4514117,58.777687 95.6617386,58.6291169 C95.7660727,58.5524017 95.8330302,58.4346913 95.8458919,58.3053781 C95.8587535,58.1760649 95.8163052,58.0473546 95.7291464,57.9513864 C94.5341849,56.3893572 93.2275017,54.9170353 91.8194956,53.5461376 C90.3683689,52.2320474 88.8375162,51.0097824 87.2357672,49.8863925 C85.6045346,48.8026732 83.9169405,47.8072528 82.1801844,46.9043779 C81.10166,46.3621935 80.0905434,45.887782 79.0120191,45.4133706 C80.225359,45.6166898 81.4386989,45.887782 82.6520388,46.0911012 C83.2587087,46.2266473 83.9327864,46.3621935 84.5394563,46.4977396 L84.6068641,46.4977396 C87.0551134,47.701254 89.399942,49.1067078 91.6172723,50.6996692 C91.9543112,50.9029883 92.29135,51.1740806 92.6283889,51.3773997 C92.955621,51.609256 93.2706175,51.8580944 93.5720977,52.1229034 C94.1787676,52.5973148 94.8528454,53.1394992 95.4595153,53.6816837 C96.6728552,54.6982796 97.8187873,55.8504216 98.9647194,57.0025635 C101.211811,59.3545612 103.284529,61.8688918 105.166234,64.525373 L105.166234,64.525373 C105.325547,64.7337617 105.613537,64.7916719 105.840312,64.6609191 C106.177351,64.2542807 106.244759,63.9831885 106.042535,63.7120963 Z M29.6695305,79.6387649 C22.1872679,71.573771 24.9509865,56.8670174 26.1643264,50.564123 C26.299142,49.7508463 26.4339575,49.0731158 26.5013653,48.5987044 C26.9058119,46.0233282 25.2880254,41.0081219 23.4006078,35.315185 C21.2435591,28.4023331 18.4798405,19.8629278 20.4346659,17.9652822 C20.8210832,17.6214908 21.3414922,17.4719968 21.8502291,17.5586438 C26.299142,18.1686014 34.7251134,30.0966596 38.8369874,36.5351001 C38.1557568,37.2078779 37.9670567,38.2378013 38.365133,39.1104763 C38.1629097,39.1782493 37.9606864,39.1782493 37.7584631,39.2460224 C37.3459289,39.3273444 36.9402716,39.4406376 36.5451232,39.5848877 L35.9384533,39.7882068 C35.7362299,39.8559799 35.5340066,39.923753 35.2643755,39.991526 L35.1969678,39.991526 C34.6339224,40.195764 34.1785144,40.622739 33.9365945,41.1732089 C33.6946745,41.7236789 33.6873127,42.3497006 33.9162201,42.9057675 C34.1026245,43.4389197 34.4899772,43.877053 34.9947445,44.1256825 L34.4554823,44.2612287 C34.2442802,44.2981021 34.0397788,44.3666386 33.8488123,44.4645478 L33.7814046,44.4645478 C32.6192397,44.8696919 31.9909107,46.1331597 32.3658414,47.3110163 C32.6376951,48.145689 33.3823359,48.7339345 34.253259,48.8020235 L34.0510357,48.8020235 C33.4695742,48.9000054 32.9508227,49.2266716 32.6093387,49.7098832 C32.2678546,50.1930948 32.1317301,50.7931008 32.2310258,51.3773997 C32.3529942,52.1411522 32.8648466,52.7844348 33.5791813,53.0717262 L33.5791813,53.0717262 C32.544403,53.5301112 32.0207996,54.6999797 32.3658414,55.7826485 C31.564942,56.074755 31.00109,56.8020875 30.9148938,57.6542766 C30.8286976,58.5064658 31.2353778,59.3330313 31.9613948,59.7812589 L32.2310258,59.9845781 L32.7028802,60.2556703 C32.6353854,60.5683045 32.6353854,60.891859 32.7028802,61.2044931 C32.1157703,61.89773 31.9363687,62.8511346 32.2310258,63.7120963 C32.6066705,64.8017992 33.6462276,65.5169296 34.7925211,65.4741958 C34.8046352,65.7275789 34.8499653,65.9782455 34.9273367,66.2196994 L34.9947445,66.4907917 L35.0621522,66.6941108 L35.2643755,67.1685222 L35.2643755,67.1685222 C34.6261194,67.8613678 34.4188708,68.8511335 34.7251134,69.7438984 C34.8484006,70.2131408 35.1355255,70.6221052 35.5340066,70.8960404 C35.3316193,71.4424875 35.3316193,72.0439198 35.5340066,72.5903669 C35.9313199,73.8468562 37.223004,74.5847447 38.4999486,74.2846933 C38.3649902,74.8183882 38.3649902,75.3775518 38.4999486,75.9112467 C38.9125854,77.0332126 40.0089188,77.749691 41.1962594,77.6733462 L42.207376,79.0965804 C43.6768285,81.0336209 45.2758492,82.8677414 46.9933277,84.5861981 L47.4651821,85.0606095 C39.5110651,85.5350209 33.5117735,83.7051484 29.6695305,79.6387649 Z M35.3991911,48.5987044 L35.1969678,48.5987044 C35.2643755,48.5987044 35.3317833,48.5309313 35.3991911,48.5309313 L35.3991911,48.5309313 C35.3317833,48.5309313 35.3991911,48.5309313 35.3991911,48.5987044 Z M50.9029785,80.5875877 C53.1081435,83.1096852 55.4722907,85.4866438 57.9807945,87.7037588 L57.7111634,87.5004396 L57.239309,87.0938013 L56.2281924,86.3482976 C54.9474448,85.3317018 53.6666971,84.2473328 52.4533572,83.0951908 C51.2648439,81.9581142 50.1608884,80.7349173 49.1503764,79.4354457 C48.1300864,78.1507887 47.2062959,76.7915744 46.3866578,75.3690622 C46.3866578,75.3012892 46.31925,75.3012892 46.31925,75.2335161 L47.802221,76.7245234 C48.7459298,78.0122115 49.8244541,79.2998996 50.9029785,80.5875877 Z M72.0690187,53.5461376 C73.0801352,53.9527759 74.023844,54.3594143 74.9675528,54.7660526 L75.8438539,55.172691 C76.1134849,55.3082371 76.4505238,55.4437832 76.7201549,55.5793293 L78.4053492,56.392606 C79.0902254,57.0134212 79.7427055,57.6694371 80.3601745,58.3580247 L80.8320289,58.8324361 L81.2364756,59.3746206 C81.5061066,59.7134859 81.7757377,60.0523512 82.0453688,60.4589895 C82.1127766,60.5267626 82.1127766,60.5945356 82.1801844,60.6623087 L81.10166,59.9845781 C80.8251263,59.7795708 80.5320016,59.5982089 80.225359,59.4423936 L79.349058,58.9002092 L77.5290481,57.8836133 L75.6416305,56.8670174 C75.506815,56.7992444 75.3045917,56.6636983 75.1697761,56.5959252 C73.9512398,55.4393825 72.6684315,54.3532689 71.3275332,53.3428184 C71.5297565,53.4105915 71.7993876,53.4783645 72.0690187,53.5461376 L72.0690187,53.5461376 Z" id="Shape" fill="#191919"></path><path d="M27.5798896,50.7674422 L27.5798896,50.7674422 C25.7045485,49.5844395 23.9639971,48.1980889 22.3894912,46.6332857 L21.1761513,45.4133706 L20.097627,44.1256825 L19.8279959,43.7868173 L19.5583648,43.447952 L19.0191027,42.7702214 L18.4798405,42.0924908 L18.0079861,41.4147602 L17.5361317,40.7370296 C17.3565966,40.5276341 17.1985127,40.3005762 17.0642773,40.0592991 L16.1205685,38.5682918 C15.8509374,38.0938804 15.5138986,37.5516959 15.2442675,37.0772845 C14.9746364,36.6028731 14.6375975,36.0606887 14.3679664,35.5185042 C13.7612965,34.5019083 13.2894421,33.4175394 12.7501799,32.4009435 C12.2783255,31.3165746 11.7390634,30.2322057 11.3346167,29.1478367 C9.5196637,24.7467011 8.03259601,20.2160156 6.88570384,15.5932252 C6.27903389,13.2889412 5.73977172,10.9168842 5.26791733,8.54482714 C5.20050955,8.34150797 5.20050955,8.07041574 5.13310178,7.86709656 C5.84818005,6.25061724 6.14943591,4.47988517 6.00940281,2.71634416 C5.8691202,1.60710302 5.0180163,0.723783196 3.9197619,0.547606308 C2.91516975,0.561116404 1.9717717,1.03537159 1.35826659,1.83529441 C0.79350228,2.37549249 0.375779886,3.05213669 0.144926708,3.80071309 C-0.164372852,4.94288674 0.0587914833,6.16447676 0.75159665,7.12159292 C1.3602843,7.87229828 2.18397705,8.41651533 3.11086864,8.68037326 L3.11086864,8.88369243 C3.38049973,11.3235225 3.78494636,13.7633526 4.18939299,16.2031827 C5.05372462,21.0686285 6.24736958,25.8690821 7.76200486,30.571071 C8.16645149,31.790986 8.57089812,32.943128 8.97534475,34.09527 C9.44719914,35.247412 9.85164577,36.3995539 10.3909079,37.5516959 C10.6196409,38.1353037 10.8899744,38.7015505 11.1998012,39.2460224 C11.4694323,39.7882068 11.7390634,40.3981644 12.0086945,40.9403488 L12.8849955,42.6346753 C13.0167736,42.9199358 13.1747434,43.1922087 13.3568499,43.447952 L13.8287043,44.2612287 L14.3005587,45.0745054 L14.8398208,45.887782 L15.379083,46.7010587 L15.6487141,47.1076971 L15.9183452,47.5143354 L17.0642773,49.0731158 L18.345025,50.564123 C20.0619697,52.5711021 22.0076856,54.3681316 24.1420933,55.9181946 C24.2095011,55.9859677 24.2769088,55.9859677 24.3443166,56.0537407 C25.0297359,56.4872269 25.8603261,56.6237584 26.6473665,56.4323136 C27.434407,56.2408687 28.1110661,55.737704 28.5235984,55.0371449 C28.9695549,54.3473578 29.120807,53.5062112 28.943299,52.7030966 C28.765791,51.8999819 28.2744442,51.2024089 27.5798896,50.7674422 Z" id="Path" fill="#191919"></path><path d="M37.0169776,31.1810285 C37.0843854,31.9265321 37.0843854,32.6720358 37.1517931,33.4175394 C37.3518448,33.4929099 37.518969,33.6369355 37.6236475,33.8241777 C39.0392107,35.9929156 40.9266283,37.8905612 42.4770071,39.991526 C42.4095993,38.7038379 42.3421915,37.4161498 42.207376,36.1284617 C42.0051527,34.2308161 41.7355216,32.4009435 41.3984827,30.571071 C41.0614439,28.7411984 40.6569972,26.9113258 40.1851428,25.0814533 C39.3144158,21.4727314 38.1649964,17.9378074 36.7473465,14.5088562 C36.0732688,12.8145298 35.3317833,11.1202033 34.5228901,9.42587689 C34.1858512,8.68037326 33.7814046,7.93486962 33.4443657,7.18936598 C34.1030125,5.60499098 34.3801666,3.88661224 34.253259,2.1741597 C34.1129764,1.06491856 33.2618725,0.181598732 32.1636181,0.00542184463 C31.1590259,0.0189319412 30.2156279,0.49318713 29.6021228,1.29310994 C29.0373584,1.83330803 28.6196361,2.50995223 28.3887829,3.25852862 C28.0794833,4.40070228 28.3026476,5.62229229 28.9954528,6.57940846 C29.6674423,7.46665495 30.6607052,8.05122789 31.7591714,8.20596185 C32.0288025,8.88369243 32.2984336,9.56142301 32.5680647,10.3069266 C33.1747346,12.0012531 33.7139968,13.6955795 34.1858512,15.389906 C35.1589759,18.8149109 35.9021348,22.3017796 36.4103077,25.8269569 C36.6799387,27.6568295 36.8821621,29.418929 37.0169776,31.1810285 Z" id="Path" fill="#191919"></path></g></g></g><g id="baby_elephant" transform="translate(124.819531, 12.312500)"><g id="Layer_2YEz9m-1zXrIF0ISa6Cf4C"><g id="baby_elephantYEz9m-1zXrIF0ISa6Cf4C"><path d="M351.846357,152.540632 C341.269436,138.117811 344.828977,131.718953 344.828977,131.718953 C351.844247,117.89345 355.238157,102.518375 354.693989,87.0285217 C353.88038,51.6824529 330.489113,31.9780353 324.387043,28.2199763 C299.368557,12.6798943 267.637795,25.8838855 267.841197,25.7823164 L234.584917,42.6427974 C234.584917,42.6427974 236.110435,15.5238309 214.244685,10.2422344 C192.480636,4.85906876 182.920727,26.2901622 182.005416,26.8995771 C174.988036,27.5089921 171.021691,22.7352415 154.647804,21.4148423 C138.375618,20.0944432 129.629318,40.4082758 126.578283,48.9400855 C123.527248,57.4718952 119.967708,90.6850116 103.593821,90.6850116 C81.1178638,90.6850116 76.236208,49.5495005 77.5583231,39.291015 C78.5905899,31.2772081 75.713464,21.8993272 74.4055871,18.1788488 L74.4055871,18.1788488 C74.0384459,17.1377649 73.7953801,16.5385068 73.7953801,16.5385068 L73.615369,16.7518021 L69.1171267,8.61712779 C69.1171267,8.61712779 60.1674244,-2.75861847 51.3194233,1.81199387 C42.4714222,6.38260621 37.284663,13.6955859 33.2166165,22.0242573 C30.6698491,27.5203528 28.7262083,33.2755978 27.4196503,39.1894459 C27.4196503,39.1894459 24.7754201,53.3075595 29.0468689,57.2687569 C33.3183177,61.1283851 40.8442036,57.5734644 40.8442036,57.5734644 C42.8042276,54.2058833 44.1796514,50.5314 44.9122501,46.7055639 C45.8275606,41.0176908 48.9802966,28.7278221 52.0313314,23.5477948 C59.9640221,13.5046359 59.9640221,32.8921578 59.9640221,32.8921578 C62.8116546,39.90043 57.421493,65.39429 64.1337697,91.0912882 C69.8290348,112.827089 89.8641637,121.25733 109.797591,119.225946 C129.731019,117.194563 148.749136,93.5289481 148.749136,93.5289481 C148.749136,93.5289481 155.766517,93.5289481 162.071989,93.3258098 C168.377461,93.1226715 182.615623,88.0442133 182.615623,88.0442133 C182.615623,88.0442133 165.326426,122.882436 163.800908,139.235072 C162.275391,155.486138 169.699576,196.824787 169.699576,196.824787 C172.547208,197.63734 176.716956,204.442474 176.716956,204.442474 C184.141141,203.833059 184.344543,212.771146 184.344543,212.771146 C189.124498,213.380561 201.430338,211.247608 201.430338,211.247608 C201.430338,211.247608 196.650384,172.752895 195.328269,161.377149 C194.006153,150.001403 203.464362,137.508396 203.464362,137.508396 C205.701787,148.477865 224.923307,193.777712 224.923307,193.777712 L230.415169,198.348324 C235.70363,195.098111 240.280182,204.747182 240.280182,204.747182 L251.060505,200.582846 C251.060505,200.582846 257.874483,197.434202 258.993196,195.30125 C260.111909,193.168297 256.552368,185.042764 256.552368,185.042764 C256.552368,185.042764 246.17885,163.002256 242.924412,153.759462 C240.976492,148.359879 241.382225,142.392302 244.043125,137.305257 C255.535356,148.274727 284.621889,147.360605 284.621889,147.360605 L296.419224,147.766881 L299.470258,194.183989 L305.165523,199.262447 C311.979501,196.41851 313.505019,205.356597 313.505019,205.356597 L315.640743,205.966012 C315.640743,205.966012 327.946584,206.372288 330.590814,204.239336 C333.235044,202.106383 331.302722,185.449041 331.302722,185.449041 L340.455827,195.707526 C340.455827,195.707526 347.880011,197.434202 348.795322,196.824787 C354.490587,191.949467 360.592657,198.754601 360.592657,198.754601 C360.592657,198.754601 372.491693,190.42593 372.898497,187.98827 C373.305302,185.55061 362.524979,166.963453 351.846357,152.540632 Z" id="Path" fill="#FEF5B5"></path><path d="M308.827782,118.108686 C309.67659,119.059554 310.146964,120.288166 310.149897,121.562037 C310.760104,127.960894 310.149897,134.56289 311.777116,140.860178 C312.387323,143.0947 313.404335,145.53236 315.438358,146.548051 C316.760473,147.259035 318.28599,147.259035 319.811508,147.563743 C321.330114,147.746301 322.642098,148.709742 323.269347,150.102972 C323.879554,152.235924 321.947232,154.064169 320.828519,155.892414 C319.201301,158.736351 319.811508,162.392841 321.235324,165.338346 C322.760841,168.283852 325.099968,170.619943 327.235693,173.159172 C329.371417,175.698401 331.40544,178.440768 332.015647,181.690982 C332.117348,182.605104 331.812245,183.823934 330.998636,183.620796 C330.693532,183.620796 330.591831,183.417657 330.388429,183.214519 C327.540796,180.573721 324.591462,177.831353 322.964244,174.174864 C322.62671,173.246741 322.183072,172.360615 321.642129,171.534065 C321.080795,170.939824 320.468229,170.396028 319.811508,169.908959 C318.142965,168.256577 316.767407,166.333296 315.743461,164.221086 C313.811139,160.767734 311.878817,157.415952 309.946495,153.9626 C309.167213,152.626148 308.487373,151.234285 307.912472,149.798264 C307.194013,147.457545 306.783761,145.033367 306.692058,142.586854 C306.285253,137.203688 305.776747,131.718953 305.268242,126.234219 C305.064839,125.116958 304.352931,114.350627 308.827782,118.108686 Z" id="Path" fill="#FFFFFF"></path><ellipse id="Oval" fill="#FFFFFF" cx="151.394384" cy="49.5495005" rx="8.84800109" ry="8.83651719"></ellipse><path d="M174.785651,202.207953 C174.989053,202.614229 175.090754,203.223644 175.497559,203.426783 C175.765181,203.617688 176.08408,203.72385 176.412869,203.73149 C178.0153,204.050741 179.582301,204.527035 181.091123,205.153458 C181.793502,205.401023 182.42278,205.819997 182.921744,206.372288 C183.574708,207.326494 183.896247,208.468262 183.837054,209.622502 C183.837054,210.333486 183.938755,210.942901 183.938755,211.755454 C183.953974,211.898626 183.917945,212.042555 183.837054,212.161731 C183.724995,212.268762 183.583221,212.339556 183.43025,212.364869 C178.599392,213.483215 173.56531,213.378474 168.785282,212.060161 C168.219521,211.972552 167.690407,211.725953 167.259765,211.349177 C166.8765,210.806983 166.632073,210.179272 166.547857,209.520932 C166.15843,205.952968 166.830535,202.349508 168.480179,199.160878 C169.395489,197.332633 170.209099,197.027925 171.836317,198.348324 C173.177818,199.317486 174.203645,200.659928 174.785651,202.207953 Z" id="Path" fill="#FFFFFF"></path><path d="M230.822991,198.043617 C231.331497,198.043617 231.738302,197.942048 232.246807,197.942048 C234.141898,197.732672 236.042991,198.280352 237.535268,199.465585 C239.009784,200.663297 239.987987,202.363884 240.281199,204.239336 L240.281199,204.645613 C240.179498,204.848751 239.976096,204.95032 239.874395,205.051889 C235.196141,207.286411 230.009382,208.911517 224.822623,208.403672 C224.462018,208.397395 224.110125,208.291964 223.805611,208.098964 C223.500507,207.997395 223.398806,207.692687 223.195404,207.38798 C222.690481,206.274763 222.480364,205.05067 222.585197,203.833059 C222.686898,201.801676 222.686898,196.215372 224.822623,195.19968 C226.958347,194.08242 228.687267,197.942048 230.822991,198.043617 Z" id="Path" fill="#FFFFFF"></path><path d="M303.844425,198.551463 C304.047828,198.85617 304.352931,199.160878 304.658035,199.160878 L305.16654,199.160878 C306.47877,198.888387 307.836364,198.923152 309.132886,199.262447 C309.76276,199.526177 310.374324,199.831562 310.963507,200.176569 C312.387323,201.192261 313.709438,202.614229 313.709438,204.340905 C313.733443,204.705106 313.625114,205.065736 313.404335,205.356597 C313.200932,205.458166 312.895829,205.559735 312.692426,205.661304 C307.70907,206.372288 302.52231,205.661304 297.538953,204.95032 C297.28818,204.944396 297.043099,204.874464 296.827045,204.747182 C296.521942,204.645613 296.420241,204.340905 296.216838,204.036198 C295.606631,202.51266 296.318539,200.785984 297.132149,199.364016 C297.742356,198.348324 298.250861,197.231064 298.861068,196.215372 C299.572977,194.894973 300.284885,195.402819 301.301896,196.113803 C302.245815,196.819715 303.099673,197.638355 303.844425,198.551463 Z" id="Path" fill="#FFFFFF"></path><path d="M354.898409,195.402819 C356.914523,195.970398 358.763628,197.015703 360.28857,198.449894 C359.678363,199.059309 359.169857,199.668724 358.55965,200.278139 C357.780959,201.225145 356.893454,202.077408 355.91542,202.817368 C354.867014,203.519992 353.780546,204.164245 352.660983,204.747182 C351.338868,205.458166 350.118454,206.16915 348.796339,206.880134 C347.808692,207.490623 346.696651,207.872391 345.541902,207.997395 C345.398544,208.012594 345.254428,207.976611 345.135097,207.895826 C345.044076,207.81179 344.974359,207.70735 344.931695,207.591118 C343.429349,204.862859 342.170183,202.007923 341.168752,199.059309 C341.034902,198.738269 340.999506,198.384769 341.067051,198.043617 C341.18716,197.814931 341.289173,197.577211 341.372154,197.332633 C341.426721,197.224987 341.435927,197.10002 341.397723,196.985557 C341.359519,196.871094 341.277077,196.776637 341.168752,196.723218 C342.528042,196.366208 343.941652,196.262907 345.338499,196.41851 C346.457212,196.520079 347.779327,197.027925 348.796339,196.824787 C349.711649,196.723218 350.525259,195.910664 351.440569,195.504388 C352.563498,195.163232 353.757344,195.128164 354.898409,195.402819 L354.898409,195.402819 Z" id="Path" fill="#FFFFFF"></path><path d="M61.5922577,42.2365208 C61.5922577,42.2365208 66.8807181,43.7600582 65.6603042,58.3860177 C64.4398902,73.0119772 66.8807181,113.233366 101.865918,120.851053 C101.865918,120.851053 78.9831564,120.0385 67.1858216,100.63879 C57.8293147,85.2002767 61.0837519,58.4875869 61.0837519,58.4875869 L61.5922577,42.2365208 Z" id="Path" fill="#FFFFFF"></path><path d="M127.189507,52.7997137 C127.189507,52.7997137 136.342612,30.3529287 148.44505,28.2199763 C160.547488,26.188593 166.954661,31.2670512 173.260133,26.6964388 C173.260133,26.6964388 157.801557,18.8756133 149.970567,22.430534 C142.139578,26.0870238 130.95245,32.0796045 127.189507,52.7997137 Z" id="Path" fill="#FFFFFF"></path><path d="M180.786019,33.4000036 C180.786019,33.4000036 187.498296,19.1803208 203.973884,16.0316767 C220.551174,12.8830326 230.924692,24.7666247 230.924692,24.7666247 C230.924692,24.7666247 225.636232,6.07789872 203.363677,10.1406652 C181.091123,14.1018626 180.786019,33.4000036 180.786019,33.4000036 Z" id="Path" fill="#FFFFFF"></path><path d="M192.278251,93.0211023 C192.278251,93.0211023 199.905838,93.7320864 202.143263,104.803125 C204.380689,115.772595 208.550437,143.0947 214.245702,154.876723 C219.940967,166.658746 232.45021,188.597685 224.720921,193.879281 C224.720921,193.879281 210.889563,162.189702 207.024919,149.899834 C204.436935,140.979837 202.33206,131.92706 200.719447,122.780867 C200.719447,122.780867 194.210573,95.0524856 192.278251,93.0211023 Z" id="Path" fill="#FFFFFF"></path><path d="M177.32818,99.3183904 C179.24631,101.576001 179.719067,104.723624 178.548594,107.443923 C176.514571,112.014536 167.768271,129.382863 167.463167,142.789992 C166.954661,163.002256 179.565606,197.434202 169.598892,196.926356 C169.598892,196.926356 163.395121,160.05675 163.191718,146.344913 C162.886615,132.734645 168.886984,115.264749 177.32818,99.3183904 Z" id="Path" fill="#FFFFFF"></path><path d="M151.394384,39.6972917 C145.88992,39.6972917 141.42767,44.1537499 141.42767,49.6510697 C141.42767,55.1483895 145.88992,59.6048477 151.394384,59.6048477 C156.898848,59.6048477 161.361098,55.1483895 161.361098,49.6510697 C161.352139,44.1574602 156.895133,39.706239 151.394384,39.6972917 L151.394384,39.6972917 Z M151.394384,57.2687569 C148.242253,57.263642 145.415967,55.3281327 144.275302,52.3934371 C144.913134,52.5112769 145.559205,52.5791961 146.207624,52.5965754 C151.092846,52.5932141 155.05226,48.6389389 155.055625,43.7600582 C155.072181,43.4518417 155.037822,43.1430053 154.953924,42.8459357 C158.055154,44.4939486 159.639007,48.0353643 158.798306,51.4417817 C157.957605,54.8481991 154.907252,57.2488635 151.394384,57.2687569 L151.394384,57.2687569 Z" id="Shape" fill="#191919"></path><path d="M332.524153,184.941195 C332.467985,184.324149 331.921587,183.869408 331.303739,183.925503 C330.685891,183.981598 330.230559,184.527287 330.286727,185.144333 C330.896934,192.965159 331.100337,201.801676 330.286727,203.426783 C329.473118,204.036198 324.693164,204.95032 314.72645,205.051889 C314.421346,202.004814 313.200932,199.770293 311.370311,198.653032 C309.421912,197.53853 307.087161,197.316461 304.963138,198.043617 C304.654634,197.612895 304.314706,197.205511 303.946127,196.824787 C302.952185,195.699295 301.78492,194.739266 300.488287,193.98085 C300.488287,192.051036 300.284885,187.480424 299.87808,181.89412 C299.572977,173.667018 301.200195,167.776006 304.759736,164.424224 C307.099725,162.343247 310.17553,161.28274 313.302633,161.478718 C313.747363,161.579007 314.204579,161.371452 314.421346,160.970872 C314.624749,160.589988 314.624749,160.132927 314.421346,159.752042 C310.760104,153.9626 308.62438,144.922945 308.62438,144.821375 C308.469256,144.233053 307.908254,143.845171 307.302265,143.907253 L295.606631,145.938636 L295.199827,145.938636 C295.143659,145.938636 295.098125,145.98411 295.098125,146.040205 L294.996424,146.040205 C294.940256,146.040205 294.894723,146.085679 294.894723,146.141775 L294.793022,146.243344 C294.793022,146.299439 294.747489,146.344913 294.691321,146.344913 L294.691321,146.75119 L294.691321,146.75119 L294.691321,146.954328 L294.691321,146.954328 L297.640654,182.808242 L297.640654,183.011381 C298.047459,188.902392 298.250861,193.168297 298.14916,193.879281 C297.81592,194.791632 297.407726,195.674906 296.928746,196.520079 C295.301528,199.567154 293.369206,203.426783 295.403229,205.356597 C296.623643,206.575427 303.641023,207.083272 310.861806,207.083272 C316.557071,207.083272 322.455738,206.778565 325.710175,206.473857 C330.591831,205.864442 331.710544,205.153458 332.117348,204.442474 C333.846268,201.903245 332.829257,187.785131 332.524153,184.941195 Z M298.96277,197.840479 C299.267873,197.231064 299.572977,196.723218 299.776379,196.215372 C301.607,197.535771 305.16654,200.684415 305.16654,205.051889 C300.691689,204.848751 297.640654,204.442474 296.928746,204.036198 C296.216838,203.122075 298.047459,199.567154 298.96277,197.840479 Z M307.505667,205.051889 C307.513628,203.27318 307.057993,201.523014 306.183552,199.973431 C307.500804,199.635815 308.899184,199.856326 310.048196,200.582846 C311.26861,201.395399 312.082219,202.918937 312.387323,205.153458 C310.658403,205.153458 309.031185,205.153458 307.505667,205.051889 L307.505667,205.051889 Z" id="Shape" fill="#191919"></path><path d="M204.278988,138.422518 C204.605377,137.91561 204.470385,137.241525 203.973884,136.898981 C203.666845,136.71585 203.294143,136.678629 202.956873,136.797412 C202.524643,136.68945 202.066967,136.80372 201.736459,137.102119 C201.736459,137.102119 197.363309,142.079008 192.583354,142.079008 C191.05803,141.972704 189.570228,141.558042 188.210204,140.860178 C186.07448,139.946056 183.735353,138.930364 181.70133,140.860178 C178.751996,143.602546 182.006433,147.665312 185.871078,152.337494 C187.777595,154.537129 189.511643,156.880149 191.057837,159.345766 C192.888458,162.291272 194.210573,166.557176 195.227584,170.92465 C196.244596,180.67529 197.973516,190.730637 198.075217,191.441621 C198.075217,191.54319 198.176918,191.746329 198.176918,191.847898 C199.092229,200.176569 200.10924,208.60681 200.10924,210.536624 C198.888826,211.146039 193.702067,212.060161 184.955767,212.364869 C184.854066,209.317794 183.837054,206.880134 182.006433,205.356597 C180.381632,204.015775 178.314847,203.327741 176.209467,203.426783 C174.792125,200.536687 172.741265,198.002476 170.209099,196.012234 C170.107397,194.996542 169.802294,193.066728 169.090386,188.496116 C167.056363,176.104678 163.395121,152.845339 164.310431,140.047625 C165.530845,122.780867 183.226847,88.7551975 183.43025,88.45049 C183.71109,87.889539 183.483424,87.207428 182.921744,86.9269525 C182.360064,86.646477 181.677066,86.8738473 181.396226,87.4347983 C180.684318,88.8567666 163.29342,122.273021 162.073006,139.946056 C161.157695,153.048478 164.920638,176.409385 166.85296,189.003961 C167.463167,192.558882 167.971673,195.910664 167.971673,196.520079 C167.869972,196.824787 167.66657,197.63734 167.361466,198.449894 C166.141052,201.903245 164.107029,207.692687 165.632546,212.161731 C166.039351,213.278991 167.463167,214.294683 174.785651,214.70096 C176.311168,214.802529 177.938387,214.802529 179.565606,214.802529 C182.820043,214.802529 186.481285,214.70096 189.837423,214.396252 C201.736459,213.48213 201.939861,212.161731 202.143263,211.247608 C202.346666,210.028778 201.736459,203.73149 199.905838,188.699254 C199.702436,186.464732 199.397332,182.909812 198.787125,178.948614 C197.566711,168.182283 196.5497,157.822228 196.753102,155.790845 C198.075217,148.071589 204.278988,138.422518 204.278988,138.422518 Z M167.971673,211.04447 C166.751259,207.38798 168.683581,201.903245 169.700593,198.957739 C169.802294,198.754601 169.802294,198.551463 169.903995,198.348324 C172.03972,200.278139 176.311168,205.153458 175.904364,212.161731 C171.022708,212.060161 168.480179,211.450746 167.971673,211.04447 L167.971673,211.04447 Z M178.24349,212.2633 C178.332259,209.992563 178.022484,207.723828 177.32818,205.559735 C178.55025,205.670521 179.714936,206.128741 180.684318,206.880134 C182.006433,207.997395 182.718342,209.82564 182.820043,212.2633 L178.24349,212.2633 Z" id="Shape" fill="#191919"></path><path d="M191.261239,51.2761763 C191.271083,54.045722 191.752554,56.7934191 192.685055,59.4017093 C193.638783,62.0332604 195.470252,64.2568617 197.871815,65.6989974 C200.377538,67.0395712 203.435256,66.8016167 205.702804,65.0895825 C206.775957,64.125488 207.581671,62.900992 208.041931,61.5346618 C209.137862,58.9751694 209.490305,56.159285 209.058942,53.4091287 C208.641825,50.642376 207.187691,48.1372509 204.990896,46.4008565 C203.058574,44.877319 200.312643,43.9631965 199.600734,41.6271058 C199.298997,40.2047583 199.40474,38.7262774 199.905838,37.3612009 C200.210941,35.9392327 200.516045,34.4156952 199.804137,33.1968653 C199.439391,32.474678 198.76237,31.9601219 197.96819,31.8014921 C197.17401,31.6428623 196.350904,31.8577823 195.73609,32.384312 C194.413975,33.6031419 193.396964,36.0408018 192.786757,37.6659084 C191.057837,41.8302441 190.956136,46.6039948 191.261239,51.2761763 Z" id="Path" fill="#191919"></path><path d="M213.838897,148.579435 C212.450219,148.599531 211.070166,148.358335 209.770851,147.86845 C209.382001,147.747211 209.08906,147.425648 209.004848,147.027607 C208.920636,146.629565 209.05829,146.21714 209.364795,145.949168 C209.6713,145.681196 210.098841,145.599483 210.482759,145.735498 C212.626561,146.42863 214.929196,146.464009 217.093334,145.837067 C217.477252,145.701052 217.904793,145.782766 218.211298,146.050737 C218.517803,146.318709 218.655457,146.731134 218.571245,147.129176 C218.487033,147.527217 218.194092,147.84878 217.805242,147.97002 C216.521168,148.370479 215.184118,148.575912 213.838897,148.579435 L213.838897,148.579435 Z" id="Path" fill="#191919"></path><path d="M312.692426,150.102972 C312.07688,150.097458 311.579235,149.600459 311.573714,148.985711 C311.605792,148.364114 312.075154,147.852747 312.692426,147.766881 C315.341718,147.724243 317.921329,146.912544 320.116611,145.43079 C320.650207,145.066172 321.378738,145.202594 321.74383,145.735498 C322.108922,146.268401 321.972322,146.995986 321.438726,147.360605 C318.835336,149.069154 315.806472,150.018842 312.692426,150.102972 L312.692426,150.102972 Z" id="Path" fill="#191919"></path><path d="M318.692795,154.572015 C318.15633,154.553644 317.698344,154.179414 317.574082,153.657893 C317.468718,153.042371 317.875427,152.455665 318.489393,152.337494 C320.014028,152.028091 321.402036,151.246128 322.455738,150.102972 C322.905082,149.654211 323.633613,149.654211 324.082957,150.102972 C324.532301,150.551733 324.532301,151.279318 324.082957,151.728079 C322.729308,153.257636 320.904545,154.293899 318.896197,154.673584 C318.896197,154.572015 318.794496,154.572015 318.692795,154.572015 Z" id="Path" fill="#191919"></path><path d="M295.403229,76.5668979 C295.511501,76.8974605 295.726,77.1830875 296.013436,77.3794512 C296.739746,77.9303892 297.648793,78.184592 298.555965,78.0904353 C299.487305,78.1050059 300.41479,77.9677791 301.301896,77.6841587 C302.213345,77.3982544 302.955548,76.7311383 303.33592,75.8559137 C304.658035,73.1135463 302.929115,69.9649023 299.87808,70.2696098 C296.827045,70.7774556 293.77601,73.2151155 295.403229,76.5668979 Z" id="Path" fill="#FFFFFF"></path><path d="M306.692058,54.6279587 L306.692058,54.6279587 C306.709874,52.652314 306.365182,50.6901201 305.675046,48.8385164 L302.115506,53.3075595 L306.692058,54.6279587 Z" id="Path" fill="#FFFFFF"></path><polygon id="Path" fill="#FFFFFF" points="283.504193 66.3084124 277.402123 77.0747437 278.419135 78.0904353 287.572239 67.8319499"></polygon><path d="M281.266767,79.5124036 C282.999555,80.1039108 284.854876,80.2437533 286.656929,79.9186803 C289.186153,79.6585377 291.270312,77.8219609 291.843688,75.3480679 C292.250493,73.7229613 291.741987,71.9962856 292.758999,70.5743173 C292.936602,70.3163993 293.141154,70.0780657 293.369206,69.8633331 L289.911366,68.6445032 L281.266767,79.5124036 Z" id="Path" fill="#FFFFFF"></path><path d="M300.895092,53.0028521 C300.895092,53.0028521 305.268242,47.9243939 305.268242,47.8228247 C303.805453,45.3605217 301.430588,43.5725628 298.657666,42.8459357 L293.572608,50.8698996 L300.895092,53.0028521 Z" id="Path" fill="#FFFFFF"></path><polygon id="Path" fill="#FFFFFF" points="284.419503 64.8864441 289.097757 66.1052741 299.572977 54.4248203 292.148792 52.7997137"></polygon><path d="M291.436884,66.6131199 L296.420241,67.8319499 C299.267873,66.6131199 302.52231,65.8005666 304.454632,63.3629067 C305.966535,61.151632 306.748794,58.5238102 306.692058,55.8467886 L301.098494,54.6279587 L291.436884,66.6131199 Z" id="Path" fill="#FFFFFF"></path><path d="M295.708332,42.1349516 C294.866071,42.0127691 294.016802,41.9449158 293.165803,41.9318133 C290.521573,41.9318133 287.775642,42.3380899 285.741619,43.9631965 C284.542698,45.0225788 283.662392,46.3940734 283.19909,47.9243939 L291.13178,50.1589155 L295.708332,42.1349516 Z" id="Path" fill="#FFFFFF"></path><path d="M289.809665,52.3934371 L282.588883,50.8698996 C282.521097,52.1909507 282.555097,53.5152513 282.690584,54.831097 C282.907691,56.1054458 282.975949,57.4006563 282.893986,58.6907252 C282.588883,60.7221084 281.165066,62.2456459 279.639549,63.7691833 L282.792285,64.4801675 L289.809665,52.3934371 Z" id="Path" fill="#FFFFFF"></path><path d="M278.82594,64.6833058 C277.464518,65.8317858 276.356373,67.2497539 275.571502,68.8476415 C274.706026,71.2132554 275.007518,73.8478871 276.385112,75.9574829 L282.080377,65.8005666 L278.82594,64.6833058 Z" id="Path" fill="#FFFFFF"></path><path d="M28.3359777,53.8154054 C28.3359777,53.8154054 26.9121615,51.2761763 27.1155638,45.8930106 C27.3293271,43.5068729 27.6688013,41.1336375 28.1325754,38.7831692 C28.2177859,38.2873625 27.9706556,37.7937434 27.5223684,37.5643393 C27.1116531,37.2869578 26.5636586,37.3290565 26.2002533,37.6659084 L23.0475173,40.3067067 C22.8149421,40.517221 22.6697979,40.8071327 22.6407127,41.11926 C22.6407127,41.4239675 22.3356092,49.5495005 26.4036557,55.0342353 C26.6261983,55.3079871 26.9663783,55.4589819 27.3189661,55.440512 C27.5350657,55.4194391 27.7436333,55.3500068 27.9291731,55.2373736 C28.1927826,55.1240107 28.3914461,54.8983638 28.4702937,54.6227552 C28.5491413,54.3471467 28.4998295,54.0507416 28.3359777,53.8154054 L28.3359777,53.8154054 Z" id="Path" fill="#191919"></path><path d="M31.4887138,58.3860177 C31.4887138,58.3860177 30.2682998,43.7600582 38.0992893,24.5634864 C46.2353822,4.55436127 60.485749,3.47468107 73.2878913,16.0316767 L69.5249483,8.21085114 C69.5249483,8.21085114 61.8973612,-0.930373534 52.5408543,1.81199387 C43.1843474,4.55436127 33.8278405,17.7583525 30.7768056,28.1184071 C27.7257708,38.4784617 25.1832417,47.5181173 26.2002533,52.0887296 C26.9108244,54.8826239 28.8576216,57.2007924 31.4887138,58.3860177 Z" id="Path" fill="#FFFFFF"></path><path d="M37.9975881,11.7657719 C37.9975881,11.7657719 33.7261393,8.10928198 27.1155638,12.0704793 C20.5049883,15.9301075 9.31786045,29.6419446 7.69064186,33.6031419 L19.5896778,45.5883032 L27.5223684,33.9078494 C27.5223684,33.9078494 30.370001,25.3760397 31.8955184,22.6336723 C35.0482544,16.6410917 37.9975881,11.7657719 37.9975881,11.7657719 Z" id="Path" fill="#FEF5B5"></path><path d="M12.5722976,37.0564935 C12.5722976,37.0564935 23.5560231,15.5238309 35.3533579,16.234815 L38.0992893,11.4610644 C38.0992893,11.4610644 31.9972196,7.60143616 24.4713336,13.6955859 C16.8437464,19.7897357 6.97873373,33.9078494 6.97873373,33.9078494 L12.5722976,37.0564935 Z" id="Path" fill="#FFFFFF"></path><path d="M38.9128986,11.0547877 C38.7094962,10.8516494 34.5397486,6.89045202 26.4036557,11.257926 C17.6573557,16.0316767 8.70765348,29.4388062 6.77533141,32.384312 C5.35151514,32.384312 2.19877912,32.5874503 0.774962854,34.2125569 C0.131610576,34.9705704 -0.13049034,35.980219 0.0630547204,36.9549243 C0.469859368,39.0878767 1.89367563,39.7988609 3.82599771,40.9161217 C5.51198211,41.8181372 7.11194671,42.8720633 8.60595232,44.0647657 C9.64086717,44.9216931 10.6256027,45.8373259 11.555286,46.8071331 C13.6910104,48.9400855 15.5216313,50.8698996 17.2505511,50.8698996 C17.5257035,50.8863849 17.8015374,50.8519504 18.0641604,50.7683305 C19.5896778,50.2604847 19.9964825,48.2291014 20.1998848,46.7055639 C21.5219999,45.3851648 26.9121615,39.3925842 29.149587,35.4313868 C29.4117324,34.903589 29.2184497,34.2631965 28.7079104,33.9680047 C28.197371,33.6728129 27.5450478,33.8242795 27.217265,34.3141261 C26.4043191,35.6461419 25.5216864,36.9344693 24.5730347,38.1737542 C22.7424138,30.4544979 17.2505511,27.8136996 13.2842058,27.2042846 C14.4029186,25.6807472 15.7250337,24.0556406 17.0471488,22.5321031 C19.525597,22.335881 21.9978965,22.9799916 24.0645289,24.3603481 C26.0985522,25.9854547 27.3189661,28.5246838 27.6240696,31.8764661 C27.6720903,32.4558712 28.1606864,32.899473 28.7427824,32.8921578 L28.8444835,32.8921578 C29.4613569,32.8342117 29.9156644,32.2897503 29.8614952,31.6733278 C29.4546905,27.6105613 28.0308742,24.4619172 25.386644,22.5321031 C23.5402473,21.188512 21.3582603,20.3801158 19.081172,20.1960124 C20.3022742,18.841106 21.6285038,17.5845213 23.0475173,16.4379534 L23.0475173,16.4379534 C23.3526208,16.4379534 30.0648975,16.1332459 31.3870126,22.7352415 C31.5112743,23.2567631 31.9692603,23.6309925 32.5057254,23.6493639 L32.7091277,23.6493639 C33.3230933,23.5311929 33.7298023,22.9444869 33.6244382,22.3289648 C32.9515038,18.2642503 29.7617445,15.0786311 25.6917475,14.4065701 C26.2452032,14.0306261 26.822749,13.6913342 27.4206673,13.3908785 C28.0330569,13.0233562 28.6803083,12.7171614 29.3529894,12.476756 C30.1665986,12.6798943 33.522737,13.7971551 34.3363463,16.6410917 C34.4715464,17.1409612 34.9372332,17.4792029 35.4550591,17.453645 L35.7601626,17.453645 C36.3666327,17.2708876 36.7240149,16.6462805 36.5737718,16.0316767 C36.0126328,14.1670011 34.7810913,12.5753101 33.1159323,11.5626335 C35.8618637,11.4610644 37.28568,12.6798943 37.28568,12.7814635 C37.7518657,13.1875925 38.4467128,13.1875925 38.9128986,12.7814635 C39.3197675,12.2776234 39.3197675,11.5586277 38.9128986,11.0547877 Z M22.6407127,40.3067067 C21.4202987,41.728675 20.3015859,43.0490741 19.4879766,43.8616274 C16.538643,36.5486476 11.555286,33.8062802 9.11445813,32.8921578 C9.7246651,31.9780353 10.5382744,30.7592053 11.6569872,29.3372371 C13.2842058,29.2356679 21.2168964,29.7435137 22.6407127,40.3067067 Z" id="Shape" fill="#191919"></path><path d="M379.305671,128.46874 C379.245687,124.955205 378.871292,121.45406 378.186958,118.007116 C377.678452,115.569457 376.966544,114.045919 376.254636,113.334935 C375.241208,105.073825 373.505665,96.9171623 371.067876,88.9583358 L370.559371,87.4347983 L370.050865,85.9112609 L369.033853,82.864186 L367.813439,79.8171111 L367.203232,78.2935737 L366.593025,76.7700362 L365.27091,73.8245305 L363.847094,70.8790248 C363.440289,69.8633331 362.830082,68.9492107 362.321576,67.933519 C361.813071,67.0193966 361.304565,66.0037049 360.694358,65.0895825 L359.067139,62.2456459 L357.236518,59.5032785 C356.931415,59.0970018 356.626311,58.589156 356.321208,58.1828794 L355.405897,56.8624803 C355.100794,56.4562036 354.79569,55.9483578 354.490587,55.5420811 L353.473575,54.221682 C348.190434,47.1512357 342.040389,40.7703141 335.167366,35.2282485 C333.438446,33.9078494 331.709527,32.4858811 329.777205,31.2670512 L328.353388,30.3529287 L327.743181,29.946652 C321.535429,25.1770086 314.400128,21.7523585 306.792742,19.8913049 C287.774625,15.2191234 269.87522,19.7897357 258.077885,24.0556406 C254.698886,25.1386177 251.402077,26.4624182 248.212873,28.0168379 C247.967977,28.0997116 247.729948,28.2015916 247.500965,28.3215454 C243.349339,30.1285489 238.969342,31.3588243 234.483216,31.9780353 C233.0594,25.3760397 230.415169,19.9928741 226.550525,16.0316767 C221.262065,10.6485111 213.939581,8.21085114 205.294982,9.02340445 C196.451412,9.70034181 188.452554,14.523573 183.734336,22.0242573 C182.819026,23.4462256 182.005416,24.8681939 181.293508,26.188593 C179.971393,26.188593 174.988036,25.9854547 167.360449,23.2430873 C160.953276,20.9069965 154.952907,20.3991507 149.461045,21.821119 C141.731756,23.7509331 135.426284,29.4388062 130.64633,38.5800309 C127.290191,45.0804573 124.849363,53.2059904 122.408535,61.0268159 C119.866006,69.4570565 117.425179,77.4810204 114.06904,83.0673243 C110.5095,89.0599049 106.441453,91.1928574 101.152993,89.9740274 C83.0501858,85.7081226 78.6770359,57.1671877 78.4736335,46.5024256 L78.4736335,43.8616274 C78.4736335,37.2149413 78.3831195,27.4612546 75.4632792,18.5018387 L75.4632792,18.5018387 C75.4551431,18.4764465 75.44599,18.4530855 75.4378539,18.4276933 L75.4378539,18.4276933 C72.8719335,10.3245054 69.2584913,6.54714825 69.1191607,6.38666897 L69.1191607,6.38666897 C66.0755822,2.82703346 61.7790211,0.571184994 57.1174066,0.085318097 C50.506831,-0.625666045 43.9979567,3.13239299 38.2009904,11.1563569 C28.1325754,24.969763 23.0475173,47.4165481 26.4036557,54.831097 C27.9423343,58.2557222 31.3929214,60.4195578 35.1499556,60.3158318 C35.6605764,60.3326176 36.1716021,60.2985934 36.675473,60.2142626 C41.2276504,59.7177518 44.8669476,56.2085082 45.5234741,51.6824529 C48.2694055,34.5172644 53.5578659,24.4619172 53.5578659,24.3603481 L53.5578659,24.2841712 C54.2311276,23.2288676 55.3274661,22.0110533 56.0953099,22.0872302 C56.6363601,22.1380148 57.2638562,23.0521373 57.772362,24.532 C58.3929699,26.1696329 58.6990065,27.9094 58.6744513,29.660227 C58.7212339,30.4189486 58.7761525,32.3619667 58.8463263,33.1948339 L58.8463263,33.1948339 C58.8463263,33.296403 60.3718437,41.3203669 59.5582344,59.7043854 C58.7446251,77.7836965 60.1684414,101.246173 78.2712482,113.942319 C78.3729494,114.043888 78.5763517,114.247026 78.779754,114.247026 C83.2559678,117.229408 88.208593,119.427718 93.4247214,120.747452 C96.5131129,121.551802 99.6912528,121.961353 102.882929,121.966282 C110.510517,121.966282 118.239805,119.630192 125.969093,115.059579 C126.370572,115.063486 126.7336,114.821781 126.884404,114.450164 C127.291208,114.145457 127.698013,113.942319 128.104818,113.637611 C137.664727,107.441892 144.98721,99.316359 148.750153,95.0504542 C151.902889,95.3551617 166.446156,96.167715 180.480916,89.971996 C182.49514,88.9545106 184.873866,88.9545106 186.888089,89.971996 C195.024182,94.33947 198.38032,115.668994 200.516045,128.466709 C200.719447,129.888677 200.92285,131.209076 201.126252,132.427906 C203.770482,147.967988 222.280094,191.642728 223.398806,194.385096 C223.33022,195.722722 223.125768,197.049933 222.788599,198.346293 C221.873289,202.40906 220.856277,206.979672 222.788599,209.214193 C223.504618,209.957526 224.502233,210.363435 225.534531,210.333211 L226.043037,210.333211 C231.026393,209.925178 236.925061,208.198502 244.349246,205.354565 L245.162855,205.049858 C252.078534,202.40906 258.689109,199.463554 260.316328,196.213341 C261.740144,193.470973 258.180604,185.650148 252.180235,173.157141 C250.044511,168.789667 247.908786,164.219054 246.383269,160.562564 C243.230533,152.944877 242.518625,146.749158 244.247544,140.045593 C249.161071,142.814046 254.430527,144.898589 259.909523,146.241312 C267.688575,148.197573 275.686005,149.153288 283.707595,149.085249 C291.388843,149.066138 299.050885,148.317933 306.590357,146.850727 C311.166909,163.711208 325.201669,180.165413 333.744567,190.119191 C336.5922,193.470973 339.033027,196.31491 339.439832,197.330601 C340.050039,198.955708 340.456844,200.479245 340.965349,201.901214 C342.185763,205.760842 343.101074,208.604778 344.626591,209.722039 C344.894126,209.913114 345.21308,210.019294 345.541902,210.026747 L345.948706,210.026747 C350.220155,209.214193 371.272296,193.572542 373.509721,190.017622 C374.831836,187.884669 371.6791,182.298365 360.085168,164.320623 C353.677995,154.366845 346.355511,143.092668 345.847005,139.537748 C345.541902,137.506364 346.864017,133.545167 348.389534,128.669847 C350.617252,122.192444 352.417826,115.576291 353.779696,108.86386 C354.039484,107.89972 354.209706,106.913712 354.288202,105.918355 C355.461103,98.5997128 355.836198,91.1756582 355.406914,83.7762771 C354.8034,74.1564464 352.351898,64.7424825 348.186132,56.0478956 L349.406546,57.571433 L350.423558,58.790263 L351.338868,60.0090929 L352.254178,61.2279229 C352.582556,61.6515013 352.888093,62.0922596 353.169489,62.548322 L355.00011,65.0875511 L356.72903,67.7283493 C357.339237,68.6424718 357.847742,69.5565943 358.356248,70.4707167 C358.864754,71.3848392 359.474961,72.2989617 359.881766,73.2130841 L361.407283,75.9554515 L362.831099,78.7993881 L363.543007,80.2213564 L364.153214,81.6433247 L365.373628,84.5888304 L366.594042,87.5343361 L367.204249,89.0578736 L367.712755,90.581411 C370.439867,98.1915733 372.415485,106.049774 373.611422,114.043888 C372.899514,114.754872 372.289307,116.278409 371.984204,118.817638 C371.522893,122.284603 371.386701,125.78701 371.577399,129.279262 C371.637383,132.792798 372.011777,136.293942 372.696112,139.740886 C373.40802,143.295807 374.425032,144.819344 375.848848,144.819344 L375.950549,144.819344 C377.374365,144.819344 378.187975,143.194237 378.798182,139.537748 C379.283857,135.86935 379.453642,132.166114 379.305671,128.46874 Z M77.3549208,58.0813102 C69.7273336,64.3785983 62.40485,60.8236776 61.6929418,60.417401 L61.6929418,59.3001402 C61.794643,57.0656186 61.794643,55.0342353 61.8963442,53.1044212 C66.8285382,54.9617914 72.3846484,53.9457958 76.3379091,50.463623 C76.5423285,52.7997137 76.847432,55.3389428 77.3559378,58.0813102 L77.3549208,58.0813102 Z M76.1345068,46.2992873 L76.1345068,47.8228247 C69.5239313,54.0185437 63.4218616,51.5808838 61.8963442,50.7683305 C61.8963442,48.0259631 61.8963442,45.6898723 61.794643,43.6584891 C63.2214775,44.2091976 64.7398757,44.4849116 66.2694941,44.4710424 C69.0154255,44.4710424 72.473265,43.5569199 76.0328057,40.2051375 C76.1345068,41.3223983 76.1345068,42.5412283 76.1345068,43.5569199 L76.1345068,46.2992873 Z M61.094939,31.165482 C61.0281024,29.4338371 60.8281801,27.7098775 60.4969362,26.0088156 C63.2632078,25.9072464 68.9259285,24.7513893 72.7234499,17.6801442 C73.5770797,19.9817533 74.2413556,22.34905 74.7096735,24.7584992 C71.1430138,33.8083116 62.4638366,33.0942804 61.2230825,32.9947426 C61.1742659,32.371108 61.1325684,31.7586459 61.095956,31.1695448 L61.094939,31.165482 Z M43.1823134,51.4793146 C42.553269,54.9259397 39.7494953,57.5613606 36.2666343,57.979741 C33.0388608,58.5359914 29.8358409,56.8742446 28.4356449,53.9169745 C27.6220356,52.1902988 27.4186333,49.244793 27.7237367,45.5883032 C30.6406783,47.7070692 34.188234,48.7806908 37.7921518,48.635378 C39.8063326,48.6089518 41.8142471,48.4050221 43.7925203,48.0259631 C43.591152,49.1432239 43.3877497,50.2604847 43.1833304,51.4793146 L43.1823134,51.4793146 Z M44.3010261,45.486734 C33.1138983,48.0259631 28.8424495,43.6584891 28.1305414,42.7443666 C28.4874743,40.4194921 28.9626948,38.1142739 29.5543577,35.8376635 C29.8594611,34.6188335 30.1645646,33.5015727 30.5713693,32.2827428 C30.6730704,32.2827428 36.9785425,30.556067 46.741854,35.7360943 C45.9302787,38.5800309 45.1173475,41.8302441 44.3030602,45.486734 L44.3010261,45.486734 Z M47.352061,33.5015727 C39.6227727,29.4388062 33.8258065,29.5403754 31.2832774,29.8450829 C32.7761501,25.5896886 34.6481706,21.4765889 36.8768413,17.5552141 C36.8768413,17.5552141 41.9618994,16.1332459 51.0133028,24.0556406 C49.5501573,27.1047597 48.3267307,30.2629307 47.354095,33.5015727 L47.352061,33.5015727 Z M53.7185537,20.75058 C53.2233593,21.1448251 52.7755974,21.5950733 52.3842345,22.0923087 C45.6790769,16.340447 40.9275986,15.2140449 38.4043928,15.1175542 L40.2350137,12.3751868 C41.5883095,10.5040486 43.1210801,8.76916327 44.811566,7.19515951 C45.6240465,6.3725797 46.5090285,5.62472069 47.4557962,4.96063792 C47.4974937,4.93118287 47.5422422,4.90477488 47.5849567,4.87531983 C55.4159461,9.4784343 54.0256912,19.1010968 53.7185537,20.75058 Z M56.6556833,19.9309169 C56.5389816,19.900294 56.4204229,19.8772237 56.3007462,19.8618498 C56.2285384,19.85474 56.1593816,19.8618498 56.0881908,19.8618498 C56.4380428,16.4277964 56.452281,8.28296525 49.7613615,3.60164252 C51.5080457,2.70894832 53.4271497,2.2034641 55.3874698,2.11974843 L55.489171,2.11974843 C57.4349904,2.09356029 59.3679531,2.4382842 61.184436,3.13544006 C62.1757477,3.51435543 63.1269169,3.9906837 64.0239325,4.55740835 C64.855848,11.1726079 58.465964,18.1148602 56.6556833,19.9309169 Z M58.5442739,21.2066256 C60.6799983,19.0208572 66.0406665,12.8860797 66.3132256,6.27595859 C66.6498565,6.58066608 66.9763172,6.90162463 67.2966759,7.23883425 C68.9945003,9.61531032 70.4451491,12.1585633 71.6260943,14.8290978 C68.0401113,23.369033 61.9075313,23.8870358 59.8867292,23.8078118 C59.5911993,22.8705756 59.1371528,21.9908 58.5442739,21.2066256 L58.5442739,21.2066256 Z M62.3072168,34.8168934 C67.5405905,34.9829294 72.4792113,32.4012253 75.3249656,28.0117595 C75.7317702,31.0588344 75.9351725,34.1059093 76.0368737,36.8482767 C69.0194935,44.8722406 62.6123203,41.418889 61.798711,40.9110432 C61.6970099,38.1686758 61.4936076,36.1372925 61.2902052,34.6137551 C61.5976513,34.7884718 61.9526372,34.8613682 62.3041658,34.8219719 L62.3072168,34.8168934 Z M61.4936076,62.8499824 C63.029786,63.4340178 64.6374171,63.8097836 66.2735622,63.9672432 L67.5956773,63.9672432 C71.2693032,63.9380183 74.835663,62.7270298 77.7657935,60.5138917 C78.5794028,63.6625357 79.3930121,66.8111798 80.4100237,69.8582547 C72.0705284,76.8665269 63.8327343,74.3272978 61.6970099,73.4131754 C61.4895395,70.1680406 61.3888554,66.6131199 61.4895395,62.8550609 L61.4936076,62.8499824 Z M62.0021134,75.9524045 C63.715796,76.4930537 65.4946331,76.8005297 67.2905738,76.8665269 L68.1041831,76.8665269 C72.9280117,76.8311292 77.5941086,75.1463452 81.3253341,72.0927763 C82.2723012,74.5245766 83.4292748,76.869505 84.7831736,79.1010485 C75.2232644,89.968949 64.5446424,86.0077516 63.4259296,85.6014749 C62.7227003,82.4244883 62.2455463,79.2017694 61.9980453,75.9574829 L62.0021134,75.9524045 Z M68.6126889,99.4148811 C67.9007808,98.094482 67.2905738,96.7740829 66.6803668,95.3521146 C65.5398361,93.0511357 64.6532151,90.6331208 64.0361366,88.140704 C65.7971264,88.5962156 67.6072777,88.8349818 69.4262982,88.8516882 L70.3416086,88.8516882 C74.4096551,88.6485498 80.4100237,87.2265816 86.0035876,81.0308626 C87.496855,83.2201952 89.2752945,85.2012647 91.292048,86.9218741 L90.9869445,87.2265816 C82.0372423,102.360387 69.2228959,99.5164503 68.7143901,99.4148811 L68.6126889,99.4148811 Z M70.0365052,101.95411 C70.4433098,101.95411 71.0535168,102.055679 71.6637237,102.055679 C73.4449607,102.071085 75.2212666,101.866393 76.9521842,101.446264 C81.4270353,100.329004 87.9359097,97.1803595 93.0209677,88.5469807 L93.0209677,88.4454115 C95.3133826,90.0827875 97.9046717,91.2559805 100.648555,91.8987631 C100.851957,91.8987631 101.05536,92.0003322 101.258762,92.0003322 C98.4111293,100.329004 93.834577,106.321584 87.8342085,109.368659 C85.2603814,110.736377 82.4083955,111.500551 79.4947132,111.603181 C75.7301462,109.048902 72.5136255,105.770258 70.0334541,101.959189 L70.0365052,101.95411 Z M104.309797,119.220868 C100.817514,119.312773 97.3286428,118.937011 93.9362782,118.103607 C89.971026,117.083808 86.1457204,115.58296 82.5457481,113.634564 C84.7069323,113.230185 86.7970804,112.51156 88.7495189,111.501612 C97.1907154,107.235707 101.462164,98.8054661 103.597889,92.3050397 L103.902992,92.3050397 C105.624205,92.2859496 107.322125,91.9052786 108.886349,91.1877789 C113.968356,111.100413 104.712533,118.921239 104.306746,119.225946 L104.309797,119.220868 Z M125.056834,112.415734 C119.746728,115.764281 113.783719,117.945572 107.564234,118.814591 C110.411866,115.056532 115.09012,106.220015 110.920372,90.2736564 C110.894546,90.1210394 110.823727,89.979584 110.71697,89.8673798 C112.876496,88.2573747 114.677398,86.2166952 116.00543,83.8747992 C116.310534,83.3669534 116.615637,82.8591075 116.920741,82.2496926 C119.710137,84.0541457 122.070533,86.4461447 123.83642,89.2579648 C127.901415,95.6619005 128.30822,103.482726 125.052766,112.420812 L125.056834,112.415734 Z M225.842685,207.58604 C224.927375,207.687609 224.622271,207.484471 224.52057,207.179763 C223.300156,205.859364 224.418869,201.187183 224.927375,198.343246 C225.130777,197.225985 225.334179,196.311863 225.537582,195.600879 C227.063099,196.311863 230.114134,198.647953 232.148157,206.468779 C230.068801,206.964332 227.962426,207.339074 225.839634,207.591118 L225.842685,207.58604 Z M234.385583,205.757795 C233.819329,203.426736 232.965278,201.174968 231.843054,199.05423 C232.564244,198.809775 233.340057,198.774556 234.080479,198.952661 C235.9111,199.460507 237.538319,201.288752 238.860434,204.335827 C237.409705,204.934827 235.911557,205.412158 234.381515,205.762873 L234.385583,205.757795 Z M345.748355,207.179763 C344.833045,206.265641 344.019435,203.523273 343.104125,200.679337 C342.773214,199.469716 342.365586,198.282345 341.883711,197.124416 C343.51093,196.718139 347.477275,196.819709 352.358931,203.421704 C349.303828,205.458166 346.761299,206.981703 345.744287,207.184842 L345.748355,207.179763 Z M354.392954,202.101305 C353.144084,200.361264 351.674054,198.790715 350.019804,197.429123 C351.099925,196.597451 352.419123,196.13455 353.782747,196.108724 C355.738758,196.337715 357.527399,197.322013 358.766104,198.851092 C357.339237,200.075 355.813719,201.090692 354.388886,202.106383 L354.392954,202.101305 Z M353.274241,83.2653842 C353.704111,90.5634548 353.328951,97.8866061 352.155528,105.102754 L351.138517,109.673367 C349.75261,113.687165 346.975013,117.073597 343.307527,119.220868 C342.900723,119.525575 342.392217,119.728714 341.883711,120.033421 C334.357825,124.299326 326.628537,128.6668 329.679572,136.182918 C331.408491,140.550392 335.985044,143.29276 340.764998,146.339834 C344.324539,148.472787 347.88408,150.707308 350.52831,153.652814 C351.545321,155.074782 352.358931,156.090474 352.562333,156.395182 L352.765735,156.59832 C354.494655,159.340687 356.325276,162.184624 358.155897,165.02856 C361.613736,170.411726 365.173277,175.896461 367.715806,180.263935 C371.275347,186.358085 371.58045,187.983191 371.58045,188.389468 C370.461737,189.913005 365.783484,193.874203 360.596725,197.632262 C358.461,195.296171 356.223575,194.077341 353.782747,193.975772 L353.579345,193.975772 C351.508384,194.034071 349.525701,194.826115 347.985781,196.210294 C345.912344,194.857759 343.360158,194.451417 340.968401,195.093033 C339.220766,192.731289 337.353827,190.459969 335.374837,188.287899 C326.831939,178.334121 312.593776,161.676778 308.424029,144.917866 C305.576396,133.440551 306.288304,122.877358 306.898511,113.634564 C307.508718,103.985493 308.118925,95.6568221 304.661086,88.3438423 C304.479414,87.9809707 304.117701,87.7424583 303.712201,87.7181505 C303.306701,87.6938427 302.919018,87.8874324 302.695189,88.2259963 C302.471361,88.5645602 302.445391,88.9966623 302.627062,89.359534 C305.779798,96.0630987 305.271293,104.188632 304.661086,113.431426 C304.050879,122.57265 303.338971,132.831136 305.983201,144.308451 C285.439566,148.168079 269.879288,146.136696 260.42108,143.699036 C254.916455,142.387737 249.637948,140.265382 244.759101,137.401748 C246.053982,133.963622 247.689309,130.663187 249.640757,127.549539 C260.726184,109.774936 261.641494,95.5552529 261.743195,94.9458379 L261.743195,94.2348538 C261.743195,94.1787587 261.697662,94.1332846 261.641494,94.1332846 L261.539793,94.0317155 L261.438092,93.9301463 L261.336391,93.8285772 C261.309418,93.8285772 261.28355,93.8178761 261.264477,93.7988282 C261.245404,93.7797803 261.23469,93.7539458 261.23469,93.727008 L260.42108,93.727008 C260.092975,93.851554 259.83388,94.1103125 259.709172,94.4379921 C259.709172,94.5395613 255.336022,110.993766 246.081216,119.220868 C243.538687,121.45539 241.301262,123.080496 239.267239,124.604034 C233.978778,128.463662 230.724341,130.901322 232.35156,138.41744 C234.487284,147.761803 247.199929,168.177205 247.708435,169.091327 C247.810136,169.192896 247.911837,169.396034 248.11524,169.497604 C248.725447,170.919572 249.437355,172.239971 250.047562,173.661939 C252.284987,178.43569 254.725815,183.412579 256.251333,187.373776 C258.590459,193.061649 258.285356,194.382049 258.183655,194.686756 C256.759838,197.530693 247.708435,201.085613 244.250596,202.406012 L243.436986,202.71072 C242.521676,203.015427 241.708066,203.320135 240.894457,203.624842 C239.165537,199.765214 237.029813,197.530693 234.588985,196.819709 C233.235945,196.47592 231.807496,196.582915 230.520939,197.124416 C228.486915,194.280479 226.554593,193.366357 225.537582,193.163219 L225.537582,193.061649 C225.334179,192.655373 205.909257,146.949249 203.366728,131.510737 C203.163326,130.291907 202.959924,128.971508 202.756521,127.651108 C200.519096,113.634564 197.061256,92.508178 188.009853,87.531289 C185.417261,86.1245959 182.296527,86.0865875 179.670358,87.4297199 C175.302389,89.3114703 170.728487,90.6750423 166.042402,91.4924864 C167.379425,88.9456492 168.143044,86.1377892 168.279828,83.2653842 C168.584931,79.3041868 166.957712,76.2571119 164.211781,75.3429895 C162.076057,74.6320053 159.025022,75.3429895 156.787596,79.1010485 C153.63486,84.382645 148.041296,92.1019014 147.532791,92.7113164 C144.074951,96.5709446 137.159272,104.39177 128.20957,110.587489 C130.040191,103.985493 130.752099,95.6568221 125.768742,88.0391349 C123.91275,85.0863719 121.451874,82.5594598 118.547959,80.624586 C120.37858,78.4916335 121.19219,77.7806494 123.734719,77.3743727 C124.649266,77.3215909 125.566102,77.3215909 126.48065,77.3743727 C128.485381,77.543415 130.503795,77.440917 132.481019,77.0696652 C133.937068,76.669427 135.156008,75.6734073 135.837157,74.3272978 C136.59959,72.8115475 136.709783,71.0507427 136.14226,69.451978 C135.465232,67.8712589 134.332294,66.5276409 132.887823,65.5923498 C132.424066,65.2117452 131.982631,64.8047955 131.565708,64.3735199 C129.584395,62.3692152 128.239944,59.8251409 127.701064,57.0605401 C127.619117,55.1216004 127.755575,53.1796041 128.107869,51.2710978 L128.107869,50.9663903 C129.410109,47.0410204 130.972994,43.2067429 132.786122,39.4890749 C142.346031,20.9019181 156.584194,21.511333 166.652609,25.2693921 C171.098123,26.9426055 175.751533,28.0019326 180.483967,28.4180361 C179.365254,31.2619727 178.95845,33.1917868 178.856748,33.3949251 C178.744412,34.0119712 179.154211,34.603134 179.772059,34.7153242 C180.389907,34.8275144 180.981838,34.4182479 181.094174,33.8012018 C181.094174,33.5980635 185.467324,13.0810925 205.705855,11.2528476 C213.638546,10.5418634 220.350822,12.6748159 225.130777,17.5501357 C232.148157,24.7615463 234.99579,37.8639683 233.063468,54.4197419 C232.214475,61.297865 228.975177,67.6602162 223.910363,72.3974837 C219.219515,76.8688874 213.173248,79.6558501 206.722867,80.3198785 C194.518727,81.4371393 184.653715,73.9210212 180.382266,60.2091842 C180.177195,59.6318506 179.547102,59.3247062 178.965199,59.5184223 C178.383296,59.7121383 178.063748,60.3354187 178.246541,60.9201683 C182.619691,74.7335745 192.179601,82.7575384 204.38374,82.7575384 C205.300227,82.7744225 206.216946,82.7405141 207.129671,82.6559692 C214.075807,81.9392976 220.586687,78.9381761 225.639283,74.1241595 C228.975459,70.9856983 231.609493,67.1782299 233.368571,62.9515516 C233.459593,62.8675159 233.52931,62.7630763 233.571974,62.6468441 L234.18218,61.4280141 C235.9111,58.1778009 241.301262,48.9350071 248.216941,46.0910705 C250.831958,45.0229432 253.629464,44.4710667 256.454735,44.4659639 C257.370045,44.3643947 258.387057,44.3643947 259.404069,44.2628256 C263.87892,43.7549798 265.811242,42.3330115 267.743564,37.9655375 C268.207959,36.846011 268.582053,35.6912201 268.862277,34.5121859 L268.963978,34.0043401 C273.743932,16.0265982 309.746144,23.1364397 310.051247,23.2380088 L310.458052,23.2380088 C333.744567,30.6576362 351.643971,55.3389428 353.27119,83.2704627 L353.274241,83.2653842 Z" id="Shape" fill="#191919"></path></g></g></g></g></g></svg>