<svg xmlns="http://www.w3.org/2000/svg" xmlns:xlink="http://www.w3.org/1999/xlink" width="200px" height="140px" viewBox="0 0 200 140"><title>ic-chat</title><desc>Created with Sketch.</desc><g id="ic-chat" stroke="none" stroke-width="1" fill="none" fill-rule="evenodd"><g id="ik3" transform="translate(29.000000, 3.000000)" fill-rule="nonzero"><path d="M24.44,121.04 C28.55,120.39 32.79,120.89 36.97,121.22 C50.7,122.3 64.68,121.48 78.05,118.83 C81.93,118.06 86.52,116.42 86.66,113.33 C86.75,111.32 84.69,109.55 82.29,108.77 C79.89,107.99 77.2,107.98 74.59,107.98 C53.05,108.01 31.52,108.19 9.98,108.52 C7.46,108.56 4.43,108.84 3.37,110.6 C2.21,112.53 4.3,114.6 5.88,116.34 C9.15,119.93 10.3,124.29 10.4,128.58 C15.57,126.74 18.14,122.04 24.44,121.04 Z" id="Path" fill="#C8EEDB"></path><path d="M22.34,45.47 C32.54,45.86 42.74,46.24 52.94,46.63 C59.06,46.86 65.89,46.91 70.41,43.72 C73.86,41.29 75.08,37.55 75.94,34.01 C77.47,27.76 78.41,21.43 78.75,15.07 C78.98,10.88 78.34,5.86 73.55,3.87 C71.45,3 68.96,2.94 66.58,2.91 C50.5,2.74 34.41,3.28 18.41,4.53 C14.67,4.82 10.52,5.33 8.25,7.64 C5.83,10.11 6.59,13.55 7.04,16.63 C7.9,22.46 7.22,28.43 5.04,34.05 C4.42,35.66 3.71,37.5 4.89,38.91 C5.57,39.73 6.76,40.21 7.54,40.97 C9.99,43.38 7.34,47.15 6.86,49.74 C12.65,48.45 14.82,45.18 22.34,45.47 Z" id="Path" fill="#C8EEDB"></path><path d="M24.69,121.28 C27.11,121.09 29.55,121.4 31.96,121.63 C43.6,122.69 55.37,121.69 67.02,120.68 C71.28,120.31 75.55,119.94 79.81,119.58 C81.11,119.47 82.49,119.33 83.5,118.69 C84.45,118.09 84.9,117.15 85.26,116.25 C85.93,114.55 86.41,112.8 86.67,111.03 C86.76,110.41 86.82,109.76 86.5,109.18 C86.12,108.5 85.26,108.05 84.39,107.73 C81.41,106.64 77.96,106.7 74.67,106.79 C52.81,107.34 30.96,107.9 9.1,108.45 C7.47,108.49 5.7,108.57 4.47,109.39 C2.91,110.43 2.78,112.23 2.78,113.82 C2.78,115.1 2.82,116.48 3.84,117.49 C5.01,118.64 7.1,118.93 8.63,119.8 C10.63,120.93 11.48,122.98 11.4,124.9 C11.31,126.82 10.43,128.65 9.55,130.44 C10.33,127.45 8.48,124.17 5.12,122.56 C4.18,122.11 3.14,121.78 2.32,121.22 C0.36,119.86 0.19,117.58 0.16,115.55 C0.12,112.6 0.4,109.15 3.56,107.49 C5.31,106.57 7.53,106.45 9.64,106.36 C20.46,105.9 31.27,105.44 42.09,104.97 C55.83,104.38 69.68,103.8 83.31,105.26 C85.44,105.49 87.74,105.84 89.18,107.07 C90.55,108.24 90.82,109.93 90.83,111.51 C90.85,113.55 90.54,115.59 89.93,117.58 C89.47,119.07 88.79,120.57 87.44,121.7 C84.84,123.88 80.55,124.08 76.71,124.13 C62.03,124.34 47.36,124.55 32.68,124.75 C27.55,124.82 22.23,124.93 17.59,126.62 C14,127.93 10.93,130.28 9.82,133.22 C10.34,131.83 9.2,130.33 10.19,128.84 C10.88,127.81 12.64,126.65 13.69,125.83 C16.65,123.5 20.38,121.61 24.69,121.28 Z" id="Path" fill="#000000"></path><path d="M52.08,60.55 C48.53,60.83 44.69,61.2 42.1,63.1 C39.3,65.15 38.76,68.39 38.39,71.36 C38.06,73.97 37.73,76.58 37.4,79.19 C37.13,81.35 36.88,83.63 38.11,85.58 C40.06,88.68 44.99,89.86 49.44,90.16 C56.83,90.66 64.23,89.63 71.59,88.95 C84.37,87.77 97.3,87.64 110.12,88.56 C113.99,88.84 118.06,89.27 121.15,91.09 C125.21,93.48 126.67,97.69 130.16,100.55 C130.43,100.77 130.76,101 131.16,100.98 C132.05,100.93 131.94,99.91 131.7,99.24 C131.08,97.56 131.46,95.67 132.71,94.21 C133.93,92.79 135.86,91.83 137.37,90.58 C140.28,88.18 141.5,84.8 141.55,81.51 C141.59,78.23 140.56,75 139.47,71.83 C138.59,69.26 137.59,66.6 135.23,64.66 C132.63,62.52 128.77,61.6 125.04,61.06 C119.54,60.26 113.93,60.08 108.34,59.91 C98,59.59 87.66,59.26 77.32,58.94 C75.97,58.9 74.57,58.86 73.31,59.25 C72.05,59.64 70.98,60.58 71.1,61.62 C71.3,63.4 74.31,63.93 76.62,63.99 C83.58,64.17 90.53,64.34 97.49,64.52 C106.22,64.74 115.14,64.99 123.31,67.37 C126.73,68.36 130.17,69.88 131.76,72.42 C132.76,74.01 132.91,75.83 133.04,77.6 C133.17,79.39 133.31,81.18 133.44,82.98 C133.51,83.94 133.58,84.93 133.21,85.86 C132.63,87.31 131.09,88.38 129.83,89.55 C128.57,90.72 127.53,92.28 128.2,93.71 C124.88,92.5 124.45,88.83 121.53,87.12 C120.2,86.34 118.49,86.06 116.84,85.83 C93.54,82.63 69.68,85.74 46.03,86.35 C45.27,86.37 44.48,86.38 43.81,86.12 C43.02,85.81 42.54,85.18 42.18,84.56 C39.95,80.75 40.65,76.34 41.48,72.21 C41.74,70.91 42.02,69.59 42.86,68.44 C44.82,65.76 49.17,64.81 53.11,64.29 C60.37,63.34 67.77,63.01 75.12,63.3 C76.49,63.36 74.18,60.17 73.83,59.95 C72.19,58.92 70.13,59.2 68.2,59.3 C62.84,59.58 57.45,60.13 52.08,60.55 Z" id="Path" fill="#000000"></path><path d="M16.18,48.84 C19.42,47.84 22.97,47.6 26.47,47.56 C34.37,47.47 42.23,48.35 50.12,48.49 C58.01,48.62 66.18,47.95 73.08,44.99 C75.49,43.96 77.76,42.61 79.13,40.77 C80.23,39.28 80.67,37.57 81.04,35.88 C82.77,27.95 83.16,19.84 82.21,11.83 C81.81,8.5 80.98,4.89 77.69,2.71 C74.78,0.78 70.66,0.47 66.82,0.33 C55.84,-0.09 44.83,0.13 33.83,0.35 C26.25,0.5 18.48,0.68 11.45,2.85 C8.44,3.78 5.47,5.18 3.98,7.41 C3.21,8.57 2.89,9.87 2.68,11.16 C1.5,18.51 3.61,26.05 1.87,33.34 C1.32,35.62 0.43,38.09 1.78,40.16 C2.64,41.48 4.29,42.42 5.05,43.77 C7.03,47.29 2.09,51.49 4.1,55 C3.76,52.63 5.55,50.43 7.02,48.34 C8.49,46.24 9.69,43.65 8.22,41.55 C7.68,40.78 6.84,40.17 6.3,39.4 C5.51,38.28 5.44,36.96 5.41,35.69 C5.26,28.89 5.73,22.08 6.84,15.33 C7.19,13.2 7.67,10.95 9.51,9.33 C11.73,7.38 15.33,6.86 18.66,6.51 C35.58,4.7 52.74,4.26 69.78,5.19 C71.03,5.26 72.31,5.34 73.42,5.8 C75.79,6.78 76.53,9.1 76.85,11.15 C78.05,18.78 76.85,26.63 73.38,33.84 C72.44,35.81 71.31,37.75 69.63,39.4 C64.42,44.55 55.05,45.9 46.58,45.77 C38.11,45.64 29.51,44.4 21.26,45.88 C18.47,46.38 15.79,47.18 13.14,48.02 C10.78,48.77 8.39,49.58 6.5,50.91 C4.61,52.23 3.27,54.17 3.58,56.1301945 C3.59,56.16 8.52,52.71 8.81,52.52 C11.07,51.04 13.44,49.69 16.18,48.84 Z" id="Path" fill="#000000"></path><path d="M36.02,14.19 C29.02,14.45 22.04,15.14 15.09,15.93 C22.53,16.98 30.14,17.06 37.6,16.17 C40.39,15.84 43.17,15.37 45.97,15.19 C51.24,14.85 56.52,15.53 61.73,16.32 C63.39,16.57 66.44,15.52 63.64,14.7 C61.25,14 57.96,14.4 55.48,14.31 C49,14.07 42.51,13.94 36.02,14.19 Z" id="Path" fill="#000000"></path><path d="M21.95,20.69 C19.51,20.48 16.89,20.26 14.76,21.49 C14.75,21.73 14.73,21.97 14.7199969,22.21 C14.71,22.47 38.58,21.83 40.75,21.4 C40.01,20.21 39.14,20.99 38.17,21.18 C36.5,21.51 34.64,21.33 32.94,21.3 C29.26,21.24 25.6,21.01 21.95,20.69 Z" id="Path" fill="#000000"></path><path d="M45.47,21.11 C45.25,21.11 45,21.12 44.86,21.29 C44.69,21.5 44.8,21.83 45.01,21.99 C45.22,22.15 45.51,22.19 45.77,22.21 C51.62,22.82 57.53,22.89 63.4,22.43 C63.68,22.11 63.14,21.72 62.72,21.65 C60.47,21.27 58.17,21.15 55.89,21.29 C52.33,21.52 49.03,21.1 45.47,21.11 Z" id="Path" fill="#000000"></path><path d="M15.18,28.51 C14.89,29.22 15.35,30.06 16.01,30.45 C16.67,30.84 17.47,30.9 18.24,30.93 C22.58,31.12 26.92,30.92 31.25,30.71 C38.2,30.38 45.14,30.06 52.09,29.73 C53.28,29.67 54.29,28.93 52.99,28.05 C52.03,27.39 49.15,28.12 48.02,28.18 C44.36,28.38 40.69,28.53 37.02,28.62 C29.74,28.81 22.46,28.77 15.18,28.51 Z" id="Path" fill="#000000"></path><path d="M40.54,113.65 C34.57,114.33 28.52,114.32 22.55,113.62 C18.89,113.19 14.91,112.56 11.72,114.4 C14.95,115.8 18.62,115.48 22.13,115.26 C30.65,114.71 39.22,114.9 47.71,115.81 C48.52,115.9 49.41,115.97 50.08,115.52 C52.42,113.94 48.76,113.15 47.8,113.11 C45.38,112.98 42.95,113.38 40.54,113.65 Z" id="Path" fill="#000000"></path><path d="M58.53,113.53 C58.17,113.59 57.79,113.67 57.53,113.93 C57.28,114.19 57.25,114.7 57.56,114.88 C57.68,114.95 57.83,114.96 57.97,114.97 C62.63,115.26 67.31,115.23 71.97,114.88 C72.52,114.84 73.21,114.67 73.31,114.13 C73.43,113.48 72.59,113.11 71.93,113.03 C69.54,112.71 67.38,113.11 65.01,113.28 C62.84,113.44 60.71,113.17 58.53,113.53 Z" id="Path" fill="#000000"></path><path d="M77.29,71.42 C84.24,71.19 91.19,70.95 98.13,70.72 C98.22,70.28 97.75,69.86 97.2,69.7 C96.64,69.54 96.02,69.56 95.42,69.59 C84.99,70.11 74.5,70.02 64.09,69.31 C62.58,69.21 50.09,68.64 51.36,70.71 C52.08,71.88 57.37,71.57 58.83,71.62 C61.71,71.72 64.6,71.73 67.48,71.68 C70.76,71.64 74.03,71.53 77.29,71.42 Z" id="Path" fill="#000000"></path><path d="M116.93,70.98 C116.95,70.64 116.95,70.3 116.94,69.95 C116.94,69.85 116.93,69.74 116.86,69.67 C116.78,69.59 116.65,69.58 116.54,69.58 C114.02,69.56 111.51,69.54 108.99,69.52 C107.98,69.51 103.44,68.83 103.04,70.01 C102.68,71.04 108.48,70.94 109.36,70.97 C111.88,71.04 114.4,71.04 116.93,70.98 Z" id="Path" fill="#000000"></path><path d="M86.32,75.45 C82.22,75.35 78.14,75.06 74.04,75.08 C73.44,75.08 72.79,75.1 72.31,75.35 C71.83,75.6 71.65,76.17 72.12,76.43 C72.35,76.56 72.67,76.58 72.97,76.59 C82.06,77.02 91.16,77.32 100.27,77.48 C103.04,77.53 105.83,77.57 108.58,77.29 C111.28,77.02 113.72,76.84 116.43,76.81 C117.05,76.8 117.65,77.13 117.71,76.42 C117.75,76.02 117.6,76.03 117.2,75.84 C116.49,75.51 114.43,75.63 113.57,75.57 C107.81,75.2 102.01,75.34 96.24,75.43 C92.93,75.49 89.63,75.53 86.32,75.45 Z" id="Path" fill="#000000"></path><path d="M52.66,75.24 C52.41,75.24 52.16,75.24 51.93,75.33 C51.42,75.53 51.15,76.21 51.4,76.7 C51.71,77.33 52.54,77.45 53.24,77.48 C55.86,77.58 58.48,77.51 61.09,77.32 C62.07,77.25 67.48,77.26 66.81,75.82 C66.22,74.54 61.27,75.25 60.09,75.25 C57.61,75.24 55.14,75.24 52.66,75.24 Z" id="Path" fill="#000000"></path></g></g></svg>