<svg xmlns="http://www.w3.org/2000/svg" xmlns:xlink="http://www.w3.org/1999/xlink" width="71px" height="71px" viewBox="0 0 71 71"><title>ic-main-why-komfort</title><desc>Created with Sketch.</desc><g id="ic-main-why-komfort" stroke="none" stroke-width="1" fill="none" fill-rule="evenodd"><g id="ik1" transform="translate(1.000000, 3.000000)" fill-rule="nonzero"><path d="M20.1691613,7.97620667 C19.3613226,9.48278788 19.3032427,11.276844 19.3138027,12.9910459 C19.3613226,19.272904 20.1216413,25.5441148 21.5683589,31.6502938 C19.134283,30.436511 16.6315672,29.1961103 13.9282118,28.9299298 C11.2248563,28.6637494 8.23638138,29.5687629 6.7421439,31.8579145 C5.7970255,33.3112596 5.5594259,35.1053157 5.35878624,36.8301649 C4.88886703,40.8281949 4.52454764,45.1882303 6.67878401,48.5740453 C8.28918129,51.108083 11.0611766,52.6412822 13.8384519,53.7485928 C21.9432383,56.9693759 30.8928232,57.363323 39.5836885,56.7670788 C43.2321623,56.5168692 46.9651161,56.0696861 50.1964706,54.3554842 C54.0508641,52.3112185 56.8492594,48.6219578 58.6444563,44.6186042 C60.4396533,40.6152505 61.3372518,36.2765096 62.2190103,31.9750339 C63.2327686,27.0347252 64.2465269,22.0890929 65.2602852,17.1487842 C65.7724443,14.6573354 66.2846035,12.0913561 65.8146843,9.58926005 C65.344765,7.09248765 63.6446079,4.64895134 61.1788521,4.11659049 C57.049899,3.22754786 53.8607844,7.66211376 49.969431,9.31243241 C46.4846369,10.787072 42.5140836,9.94594182 38.8339298,9.08884085 C36.8750531,8.63101052 20.1691613,2.72712866 20.1691613,7.97620667 Z" id="Path" fill="#FFF1AA"></path><path d="M32.8795864,5.36468926 C30.7555052,5.4539173 28.4184836,5.64287079 26.9225768,7.23322933 C25.5597578,8.68712146 25.3095527,10.8915788 25.1285533,12.9228289 C24.5482905,19.5676933 23.9786748,26.3385267 25.3201997,32.8626708 C22.6797379,33.2038368 20.0871877,33.9334072 17.6383724,35.0198898 C16.3873471,35.5762529 15.1629394,36.2323414 14.1408252,37.1666114 C10.6166604,40.373572 10.2599851,46.2101354 12.0699791,50.7187756 C12.6395949,52.1359268 13.4487686,53.5320831 14.7264114,54.2826484 C16.0200248,55.043711 17.5851372,55.0227162 19.0650735,54.9859753 C25.4905521,54.8127679 31.9213543,54.6448092 38.3468329,54.4716019 C39.4541233,54.4401096 40.8062953,54.2511561 41.2268527,53.1699223 C37.8623933,53.1804197 34.4979339,53.1961658 31.138798,53.2066632 C26.1879321,53.2276581 21.2370663,53.2434042 16.2968474,52.9284817 C15.6207614,52.886492 14.9020873,52.8182588 14.3537656,52.3983622 C13.5925035,51.8105069 13.400857,50.7187756 13.2624457,49.7372672 C13.0867698,48.4618311 12.911094,47.1863951 12.7300946,45.910959 C12.5278011,44.4413208 12.3255077,42.9139467 12.7780062,41.507293 C13.1080639,40.4837949 13.7628558,39.6020119 14.513471,38.8566954 C18.1387825,35.2350868 23.5581174,34.6577289 28.5462478,34.2640758 C30.5638588,34.1066146 32.5921167,33.9491534 34.6097277,34.1066146 C38.7620668,34.4372832 42.8026122,36.1588594 46.0020427,38.9564208 C46.1244835,36.9094247 44.6977823,35.0408846 42.9623175,34.1066146 C41.2268527,33.1723446 39.2252123,32.9676449 37.2821305,32.7839402 C34.0188179,32.4742664 30.7501817,32.1698413 27.486869,31.8601675 C27.1568113,31.8286753 26.7841655,31.7814369 26.5659015,31.5137528 C26.3689315,31.277561 26.352961,30.9363949 26.3476375,30.6214724 C26.2624613,26.978869 26.1772851,23.3415144 26.0921089,19.698911 C26.0388738,17.4314691 25.9856387,15.1430324 26.3742551,12.9123314 C26.7628714,10.6606357 27.694486,8.36170156 29.5204505,7.10726034 C31.1973567,5.95254456 33.3214378,5.86856523 35.3230782,5.87381394 C40.2260325,5.87906265 45.1289868,6.19398513 50,6.80808398 C49.4782959,5.76883978 48.3390643,5.21247673 47.2264504,5.06026419 C46.1138365,4.90805166 44.9905755,5.08650773 43.8673145,5.1337461 C40.220709,5.28595864 36.5634565,5.20722802 32.8795864,5.36468926 Z" id="Path" fill="#000000"></path><path d="M4.13820825,37.3669545 C3.65595857,35.3369234 3.19991811,33.0865788 4.12772456,31.2401422 C5.11843315,29.2678123 7.36194254,28.4442596 9.44295475,28.1347716 C13.274743,27.5577602 17.2533029,28.1505083 20.7915478,29.8133503 C18.8730328,24.0852005 17.9032916,18.0003527 17.9295008,11.9207505 C17.9399845,10.215944 18.0343377,8.46917303 18.6895682,6.91648773 C19.3500406,5.36380243 20.6814691,4.03667614 22.2749898,3.89504606 C24.6809963,3.67997817 26.6152369,6.08244394 28.9950343,6.52307085 C29.0998711,5.30085573 27.522076,4.93366664 26.4055631,4.62942425 C25.1475205,4.28846295 24.0362495,3.46491027 22.772965,3.14493121 C20.178252,2.48399084 17.4158,4.16256955 16.0057439,6.57552643 C14.5956878,8.98848331 14.3073863,11.9679605 14.4489161,14.8058076 C14.6847991,19.5005824 16.0057439,24.127165 18.259737,28.1714905 C13.7832019,26.3827551 8.66191994,26.4929118 4.25352882,28.4809785 C2.9273422,29.0789722 1.61163926,29.8920337 0.825362607,31.1771955 C-0.542758774,33.417049 0.04956964,36.3650528 0.746734941,38.9301309 C2.13058185,44.0025859 3.77127914,48.991112 5.65834312,53.8799725 C5.77366369,54.1789693 5.89946796,54.4937028 6.13535095,54.7035252 C6.48131268,55.002522 6.96880421,55.0077675 7.40911914,54.9972764 C10.344552,54.9238386 13.2799848,54.8504008 16.2154177,54.776963 C16.2835617,54.776963 14.8158452,52.9934731 14.5799622,52.8413519 C13.6626395,52.2433582 12.6509635,52.1174648 11.6078365,51.9915714 C10.1610874,51.8132225 8.80344974,51.9076425 7.74983902,50.653954 C6.68050277,49.3845289 6.45510346,47.1918855 6.08293251,45.6182179 C5.43818565,42.8642997 4.78819695,40.1156271 4.13820825,37.3669545 Z" id="Path" fill="#000000"></path><path d="M46.4824531,37.6229145 C46.8941582,35.0590894 47.3110748,32.2505839 49.1090275,30.532502 C51.1102271,28.622931 54.1328723,28.7505904 56.7125437,29.4739933 C57.1555176,29.5963335 57.6089143,29.7505885 57.9372361,30.0910134 C58.2864038,30.458034 58.4323246,30.9899479 58.5313423,31.5059044 C59.2401005,35.2186636 58.0362538,39.0324863 56.6291604,42.500565 C55.2220669,45.9686438 53.559612,49.4367225 53.2938277,53.2186304 C55.2272784,51.4367188 57.1659405,49.6548072 59.0993911,47.8728956 C59.9332243,47.1069396 60.7774804,46.3250261 61.4184896,45.367581 C62.3930321,43.9207752 62.8620633,42.1495019 63.2894028,40.4154625 C65.2332763,32.5112217 66.7081187,24.4793216 67.8911195,16.3995493 C68.2507101,13.9314687 68.5842434,11.420835 68.328882,8.93679703 C68.0735205,6.45275905 67.1563041,3.95276365 65.400043,2.34638363 C63.6385704,0.734684464 60.944247,0.218727967 58.9847391,1.5272362 C57.8069497,2.31446879 57.0095968,3.62829616 55.941248,4.58042207 C53.992163,6.31978057 51.0945927,6.69743945 48.8223974,5.50595228 C50.5838699,5.50063314 52.340131,5.08042115 53.9452599,4.28786941 C55.758847,3.3889349 57.3483415,2.03255442 59.1306599,1.07510937 C60.9129783,0.112345184 63.0548872,-0.42488787 64.8893202,0.420855254 C66.8644625,1.33574719 67.9953487,3.62829616 68.5164944,5.89424944 C69.6317463,10.7506235 68.6050892,15.8463588 67.5784321,20.7240094 C65.9211887,28.6122927 64.2639453,36.5005761 62.6014904,44.3941786 C62.2262655,46.1760902 61.8301947,48.0058741 60.8556522,49.495233 C59.7351889,51.2026767 57.9789278,52.2558662 56.2799927,53.2505453 C55.2481242,53.8569271 54.2006213,54.4686281 53.0645236,54.7664999 C49.3956577,55.7292641 45.4088929,53.3143749 41.8494675,54.6813937 C41.604529,54.0696927 42.2715956,53.5058639 42.8448559,53.2665027 C44.6845003,52.5111849 46.7013343,52.2824619 48.6452078,52.6122486 C48.9474723,52.66544 49.2601598,52.7239505 49.5467899,52.6175677 C49.8803232,52.4899084 50.1044159,52.1654409 50.3076627,51.8516117 C53.4970745,46.8728974 55.4253137,40.9473764 55.826596,34.8888769 C55.883922,33.9846233 55.8943449,33.0165399 55.4409481,32.2612222 C54.8312076,31.2452666 53.570035,30.9420757 52.4547831,31.0537776 C50.6828876,31.2293092 48.9943755,32.2559031 47.9312382,33.8037725 C46.675277,35.6388755 46.3365323,38.0005733 45.9613073,40.2505692 C45.3828356,43.7292862 44.7314034,53.3037367 41,54.6069257 C41.2970531,52.7026739 42.9595079,50.755869 43.7412265,48.9952339 C45.2890293,45.5058787 45.877924,41.4101415 46.4824531,37.6229145 Z" id="Path" fill="#000000"></path><path d="M48,31 C49.7364939,30.1763173 50.3925028,28.0701918 50.8665932,26.1986595 C52.123484,21.2304971 53.3803749,16.2675479 54.6372657,11.2993856 C55.3759647,8.38000372 56.1587652,5.37199777 58,3 C57.3880926,3.78719047 55.8776185,4.08434184 55.1389195,4.87674549 C54.4663727,5.60137777 54.1907387,6.33643642 53.7993385,7.2643828 C52.7409041,9.77713647 51.8037486,12.3368088 51.0154355,14.9486129 C49.4332966,20.167008 48.4189636,25.5626513 48,31 Z" id="Path" fill="#000000"></path><path d="M45.8748728,36.716743 C43.9165819,42.7348192 41.9582909,48.7477253 40,54.7658015 C40.6561546,55.1535641 41.4954222,55.0294801 42.1363174,54.6158666 C42.7772126,54.2022531 43.2502543,53.5404715 43.6419125,52.8528391 C45.422177,49.7145468 45.7426246,45.8989624 46.2410987,42.2591637 C46.7344863,38.6400457 47.5635809,34.9537155 50,32.2652279 C47.9247202,30.889963 46.3580875,35.2380748 45.8748728,36.716743 Z" id="Path" fill="#000000"></path><path d="M11.5865631,64.1481916 C11.6424921,64.9160709 11.718759,65.7333138 12.1407692,66.3476173 C12.5627794,66.9674056 13.4627287,67.2526179 13.9711747,66.7205872 C14.6372389,62.8811907 15.2982187,59.0363094 15.954114,55.191428 C16.0151275,54.8349126 16.0558032,54.4016093 15.8015802,54.1657607 C15.6236241,54.0012151 15.3694012,54.0012151 15.1406005,54.0121848 C12.6492152,54.116397 11.0425259,53.3649723 11.0018502,56.3926106 C10.966259,58.9595214 11.4543671,61.5812808 11.5865631,64.1481916 Z" id="Path" fill="#000000"></path><path d="M46.6907617,64.5348946 C46.7106888,64.8400685 46.7306159,65.1503286 46.8651239,65.4198989 C47.3085022,66.3099895 48.7034002,66.101454 49.2713229,65.2978294 C49.8442274,64.4942047 49.8492092,63.4159236 49.8840816,62.4139359 C49.9837172,59.6470258 50.4918586,56.9157193 51,54.1945852 C50.8555284,54.977865 46.9049782,51.5192273 46.2374199,53.7775142 C45.5549162,56.1171809 46.5462901,62.0935033 46.6907617,64.5348946 Z" id="Path" fill="#000000"></path><path d="M32.5795724,53.6197666 C32.8266033,55.6693457 32.9263658,57.7461076 32.8788599,59.8174329 C33.4394299,60.2306106 34.2185273,59.8935446 34.631829,59.2955241 C35.0451306,58.6920671 35.1828979,57.9037675 35.3111639,57.1480871 C35.5391924,55.7672036 35.7719715,54.3808835 36,53 C35.263658,53.5654011 34.3610451,53.8263555 33.4821853,53.7339342 C32.9691211,53.6795687 32.3705463,53.5382184 32,53.9513961" id="Path" fill="#000000"></path><path d="M56,59.7444584 C56.6096131,59.8314513 57.2250879,59.9184442 57.8347011,60 C59.7983587,55.9276453 60.8827667,51.4801338 61,47 C59.1652989,48.3973233 57.0023447,49.7130908 56.4572098,51.8444166 C56.2989449,52.4642409 56.017585,59.7444584 56,59.7444584 Z" id="Path" fill="#000000"></path><path d="M41,33.403384 C43.2924872,32.7830815 45.7585704,32.8798259 48,33.6822355 C46.9941648,34.7862601 45.9934354,35.8959755 44.9876003,37 C43.6652079,35.6797232 42.3428155,34.3651373 41.0255288,33.0448605" id="Path" fill="#000000"></path><path d="M61.5169446,47.6617038 C65.1497966,42.742438 65.8943201,36.2829549 67.0718288,30.4626096 C67.726587,27.2302486 68.4183074,24.0031265 69.0255428,20.7602878 C69.611657,17.6379424 70.0868847,14.4632086 69.9865589,11.2779971 C69.9284755,9.56489815 69.7067026,7.84656039 69.2473157,6.19632747 C68.8196108,4.65611008 68.2598981,3.09493735 66.8922983,2.14146945 C66.0580096,1.5599588 65.2659634,2.92205581 66.0949718,3.49832762 C67.1774349,4.25795865 67.5417762,5.86628089 67.8374735,7.06597402 C68.1912541,8.48569821 68.360224,9.93685541 68.4024664,11.3932514 C68.4869514,14.4003425 68.0486858,17.3917171 67.4942534,20.341181 C66.9186999,23.4111381 66.2639416,26.4706176 65.6461456,29.5353359 C65.0441905,32.5109939 64.5003187,35.5128462 63.7716362,38.4623101 C63.0271127,41.4484459 61.9974526,44.3612379 60.1493448,46.8654009 C59.5473897,47.6826591 60.9202698,48.4684843 61.5169446,47.6617038 L61.5169446,47.6617038 Z" id="Path" fill="#000000"></path></g></g></svg>