<?xml version="1.0" encoding="UTF-8"?> <svg xmlns="http://www.w3.org/2000/svg" xmlns:xlink="http://www.w3.org/1999/xlink" width="130px" height="129px" viewBox="0 0 130 129"> <!-- Generator: Sketch 62 (91390) - https://sketch.com --> <title>ik10</title> <desc>Created with Sketch.</desc> <g id="Web-20-07-25" stroke="none" stroke-width="1" fill="none" fill-rule="evenodd"> <g id="Artboard" transform="translate(-94.000000, -452.000000)" fill-rule="nonzero"> <g id="ik10" transform="translate(94.000000, 452.000000)"> <path d="M68.22,27.81 C67.44,34.21 68.38,40.88 71.32,46.63 C74.26,52.38 79.27,57.12 85.33,59.32 C86.79,59.85 88.31,60.24 89.84,60.52 C98.26,62.11 107.29,60.64 114.59,56.16 C121.89,51.67 127.33,44.13 128.92,35.71 C131,24.72 126.14,12.76 117.09,6.19 C103.26,-3.85 81.86,-0.13 72.83,14.54 C70.35,18.56 68.79,23.13 68.22,27.81 Z" id="Path" fill="#000000"></path> <path d="M103.45,16.82 C93.67,20.19 83.83,23.58 74.73,28.49 C73.99,28.89 73.13,29.55 73.35,30.37 C73.51,30.98 74.19,31.27 74.79,31.47 C77.86,32.5 80.96,33.43 84.08,34.27 C84.48,34.38 84.88,34.48 85.29,34.46 C85.86,34.43 86.38,34.14 86.89,33.87 C94.43,29.78 102.61,26.58 109.03,20.9 C104.22,24.85 99.41,28.8 94.61,32.75 C93.41,33.73 92.2,34.73 91.32,36.01 C89.19,39.08 89.34,43.13 89.58,46.86 C91.04,45.23 92.5,43.6 93.95,41.97 C94.13,41.76 94.34,41.55 94.6,41.47 C94.96,41.37 95.33,41.57 95.66,41.76 C99.41,43.94 103.16,46.12 106.91,48.3 C107.55,48.67 108.35,49.04 108.98,48.66 C109.35,48.43 109.53,48 109.69,47.59 C111.87,41.96 113.12,36.01 114.36,30.1 C115.47,24.85 116.57,19.59 117.68,14.34 C117.85,13.54 117.87,12.47 117.11,12.18 C116,11.76 112.31,13.79 111.19,14.17 C108.6,15.04 106.02,15.93 103.45,16.82 Z" id="Path" fill="#FFFFFF"></path> <path d="M69.58,95.42 C69.3,103.58 72.33,111.73 77.55,118 C82.33,123.74 89.31,128.07 96.78,128.020429 C99.67,128 102.52,127.34 105.27,126.44 C112.15,124.19 118.72,120.24 122.76,114.24 C127.32,107.47 128.21,98.8 127.27,90.68 C126.83,86.91 126,83.08 123.93,79.89 C121.35,75.92 117.12,73.32 112.79,71.41 C110.11,70.23 107.33,69.26 104.45,68.74 C97.5,67.49 90.33,69.01 83.99,71.93 C78.11,74.64 74.19,79.22 71.76,85.24 C70.45,88.46 69.7,91.93 69.58,95.42 Z" id="Path" fill="#000000"></path> <path d="M23.77,2.71 C15.92,4.93 9.09,10.31 4.71,17.2 C0.71,23.5 -1.28,31.47 1.05,38.57 C1.95,41.32 3.45,43.83 5.15,46.17 C9.4,52.03 15.16,57.08 22.11,59.09 C29.95,61.36 38.48,59.56 45.92,56.18 C49.38,54.61 52.77,52.64 55.17,49.7 C58.17,46.03 59.34,41.21 59.84,36.5 C60.15,33.59 60.22,30.64 59.83,27.74 C58.89,20.74 55.26,14.38 50.54,9.24 C46.16,4.46 40.6,2.13 34.13,1.66 C30.65,1.41 27.12,1.76 23.77,2.71 Z" id="Path" fill="#000000"></path> <path d="M80.34,90.72 C80.91,95.02 83.4,98.81 86.02,102.27 C89.72,107.17 94.14,112.01 100.05,113.7 C102.4,114.37 104.86,114.51 107.31,114.53 C109.54,114.55 111.93,114.42 113.71,113.06 C115.5,111.7 116.25,109.41 116.91,107.26 C117.04,106.83 117.17,106.36 117.01,105.94 C116.89,105.61 116.61,105.37 116.34,105.15 C115,104.02 113.65,102.89 112.31,101.75 C111.24,100.85 109.96,99.89 108.59,100.17 C107.86,100.32 107.25,100.81 106.7,101.31 C105.6,102.31 104.6,103.43 103.74,104.65 C103.44,105.08 103.09,105.55 102.57,105.62 C102.29,105.66 102,105.56 101.73,105.46 C97.92,104.03 94.46,101.69 91.71,98.69 C90.93,97.84 90.19,96.9 89.87,95.79 C89.55,94.68 89.76,93.35 90.63,92.6 C91.27,92.05 92.22,91.82 92.62,91.08 C92.92,90.53 92.82,89.85 92.7,89.23 C92.47,88.03 92.22,86.83 91.94,85.64 C91.59,84.16 91.18,82.63 90.19,81.47 C84.78,75.11 79.74,86.26 80.34,90.72 Z" id="Path" fill="#C8EEDB"></path> <path d="M2.73,88.03 C0.76,94.58 1.39,101.87 4.44,107.99 C5.54,110.19 6.93,112.24 8.51,114.13 C14.06,120.78 22.29,125.51 30.95,125.540168 C36.31,125.56 41.61,123.79 46.12,120.89 C50.63,117.99 54.38,114 57.34,109.53 C58.07,108.43 58.76,107.29 59.28,106.08 C60.26,103.84 60.68,101.39 60.81,98.95 C61.26,90.8 58.42,82.37 52.59,76.65 C47.76,71.91 41.12,69.2 34.37,68.66 C23.72,67.81 12.51,71.5 6.32,80.53 C4.76,82.82 3.53,85.36 2.73,88.03 Z" id="Path" fill="#000000"></path> <g id="Group" transform="translate(8.000000, 74.000000)" fill="#FFFFFF"> <path d="M12.62,18.36 C12.9,20.74 14.3,22.83 15.77,24.73 C17.54,27.02 19.48,29.22 21.84,30.9 C24.2,32.58 27.02,33.71 29.92,33.69 C31.6,33.68 33.38,33.21 34.49,31.95 C35.61,30.69 35.76,28.52 34.48,27.42 C33.96,26.97 33.28,26.75 32.62,26.55 C30.81,25.98 28.51,25.53 27.27,26.96 C26.87,27.42 26.61,28.05 26.04,28.26 C25.49,28.47 24.88,28.18 24.37,27.87 C21.86,26.34 19.77,24.15 18.35,21.58 C18.04,21.02 17.77,20.3 18.14,19.78 C18.5,19.26 19.32,19.2 19.62,18.64 C19.78,18.34 19.74,17.97 19.68,17.63 C19.41,16.09 18.87,14.6 18.1,13.24 C17.82,12.75 17.48,12.24 16.95,12.04 C14.35,11.02 12.42,16.61 12.62,18.36 Z" id="Path"></path> <path d="M3.52,11.94 C1.12,16.58 0.48,22.11 1.76,27.18 C2.25,29.12 3.02,31.02 3.1,33.02 C3.31,37.74 -0.25,42.12 0.37,46.8 C2.13,45.96 3.88,45.11 5.64,44.27 C6.77,43.73 7.92,43.18 9.16,42.94 C12.14,42.37 15.1,43.68 18.03,44.47 C20.05,45.02 22.14,45.32 24.22,45.19 C27.99,44.95 31.52,43.28 34.75,41.33 C38.62,38.99 42.32,36.08 44.41,32.07 C45.72,29.56 46.35,26.72 46.42,23.89 C46.57,18.06 44.33,12.21 40.34,7.97 C36.35,3.72 30.65,1.13 24.82,0.92 C21.47,0.8 18.15,1.42 14.86,2.05 C14.51,2.12 14.11,2.21 13.93,2.53 C13.76,2.82 13.86,3.19 13.95,3.51 C14.17,4.25 14.4,4.99 14.62,5.73 C17.57,4.92 20.55,4.1 23.61,3.94 C26.67,3.78 29.85,4.31 32.4,6.02 C34.26,7.27 35.69,9.06 37.01,10.88 C39.43,14.21 41.7,17.95 41.72,22.07 C41.73,24.23 41.1,26.34 40.46,28.41 C39.41,31.77 38.18,35.27 35.55,37.62 C32.26,40.55 27.54,41.06 23.15,41.42 C20.35,41.65 17.3,41.82 14.99,40.23 C14.29,39.74 13.64,39.09 12.79,38.94 C12.21,38.84 11.62,39.01 11.05,39.18 C8.9,39.83 6.77,40.58 4.69,41.43 C5.4,39.45 6.12,37.47 6.83,35.5 C7,35.02 7.18,34.53 7.16,34.02 C7.13,33.32 6.75,32.69 6.4,32.08 C3.07,26.1 3.57,18.19 7.64,12.67 C9.37,10.32 11.64,8.45 14.02,6.78 C15.61,5.67 20.54,2.8 15.72,1.86 C11.14,0.96 5.3,8.5 3.52,11.94 Z" id="Path"></path> </g> <path d="M8.76,22.5 C9.06,23.86 9.65,25.14 9.91,26.5 C10.41,29.14 9.64,31.88 9.88,34.56 C10.31,39.32 13.79,43.16 17.09,46.6 C18.28,47.84 19.5,49.1 20.99,49.94 C22.36,50.71 23.91,51.1 25.44,51.48 C27.28,51.94 29.18,52.4 31.05,52.07 C31.73,51.95 32.4,51.72 33.09,51.74 C33.99,51.76 34.83,52.19 35.67,52.53 C39.99,54.27 45.22,53.5 48.86,50.59 C52.5,47.68 54.4,42.75 53.66,38.15 C53.49,37.07 53.18,36.02 53.06,34.93 C52.95,33.9 53,32.87 53.01,31.84 C53.04,29.47 52.86,27.1 52.47,24.76 C52.01,21.99 51.21,19.18 49.38,17.05 C47.94,15.38 45.98,14.26 43.96,13.39 C39.27,11.35 34.07,10.49 28.97,10.89 C28.44,10.93 27.89,10.99 27.38,10.85 C26.73,10.68 26.21,10.22 25.66,9.84 C17.99,4.54 6.92,14.15 8.76,22.5 Z" id="Path" fill="#C8EEDB"></path> <path d="M25.77,30.86 C28.29,32.12 31.15,32.59 33.69,33.82 C34.43,34.18 35.16,34.62 35.63,35.3 C36.1,35.98 36.22,36.94 35.74,37.61 C35.42,38.06 34.89,38.3 34.38,38.52 C33.07,39.1 31.71,39.69 30.28,39.73 C28.85,39.77 27.3,39.14 26.68,37.85 C26.36,37.19 26.31,36.41 25.88,35.81 C24.9,34.43 22.41,35.09 21.84,36.69 C21.27,38.29 22.25,40.11 23.67,41.04 C25.09,41.97 26.84,42.2 28.53,42.35 C30.43,42.52 32.35,42.62 34.25,42.43 C35.6,42.3 37.02,41.97 37.96,40.99 C38.53,40.4 38.86,39.63 39.18,38.88 C39.75,37.56 40.32,36.21 40.44,34.78 C40.55,33.35 40.12,31.79 38.99,30.91 C38.23,30.32 37.26,30.09 36.33,29.87 C34.71,29.5 33.09,29.13 31.48,28.75 C29.86,28.38 28,27.8 27.43,26.24 C26.94,24.89 27.76,23.3 29.03,22.64 C30.3,21.97 31.87,22.09 33.2,22.63 C34.53,23.16 35.67,24.07 36.79,24.97 C37.48,25.53 38.24,26.12 39.13,26.15 C40.53,26.19 41.62,24.68 41.47,23.29 C41.07,19.7 36.52,19.51 33.82,19.22 C31.64,18.99 29.08,18.14 26.89,18.55 C19.86,19.86 20.03,28 25.77,30.86 Z" id="Path" fill="#000000"></path> </g> </g> </g> </svg> 