<?xml version="1.0" encoding="UTF-8"?> <svg xmlns="http://www.w3.org/2000/svg" xmlns:xlink="http://www.w3.org/1999/xlink" width="138px" height="104px" viewBox="0 0 138 104"> <!-- Generator: Sketch 62 (91390) - https://sketch.com --> <title>ik7</title> <desc>Created with Sketch.</desc> <g id="Web-20-07-25" stroke="none" stroke-width="1" fill="none" fill-rule="evenodd"> <g id="Artboard" transform="translate(-765.000000, -261.000000)" fill-rule="nonzero"> <g id="ik7" transform="translate(765.000000, 261.000000)"> <path d="M31.72,93.52 C31.61,94.23 31.5,94.95 31.64,95.66 C32.26,98.69 36.43,98.93 39.51,98.63 C47.57,97.85 55.76,98.42 63.63,100.3 C64.76,100.57 66.12,100.81 66.94,99.98 C67.37,99.54 67.52,98.91 67.65,98.32 C70.09,87.3 71.84,76.12 72.9,64.88 C73.09,62.89 73.06,60.48 71.38,59.4 C70.47,58.81 69.31,58.8 68.22,58.86 C60.52,59.22 46.05,64.17 40.32,56.97 C34.94,67.11 33.54,82.07 31.72,93.52 Z" id="Path" fill="#C8EEDB"></path> <path d="M0.25,95.42 C0.07,96.83 -0.04,98.47 0.99,99.45 C1.77,100.2 2.96,100.29 4.04,100.34 C23.19,101.26 42.34,102.18 61.49,103.1 C73.88,103.7 86.47,104.28 98.55,101.45 C102.15,100.61 105.93,99.29 108.08,96.28 C109.65,94.08 110.11,91.29 110.52,88.61 C114.25,64.28 117.97,39.95 121.7,15.62 C121.9,14.34 122.06,12.9 121.29,11.85 C120.49,10.75 118.98,10.5 117.63,10.35 C95.77,8.03 73.54,11.7 51.75,8.76 C39.11,7.05 25.22,3.36 14.36,10.05 C45.57,11.78 76.78,13.5 107.98,15.23 C109.62,15.32 111.46,15.51 112.51,16.77 C113.52,17.99 113.41,19.75 113.24,21.33 C110.95,43.31 108.67,65.28 106.38,87.26 C106.12,89.71 105.71,92.45 103.74,93.93 C102.5,94.86 100.89,95.08 99.35,95.26 C67.94,98.98 36.07,98.83 4.7,94.8 C5.78,66.33 12.38,38.54 14.33,10.45 C5.64,36.84 3.81,67.91 0.25,95.42 Z" id="Path" fill="#000000"></path> <path d="M38.63,14.35 C38.12,10.8 38.3,6.31 41.76,4.39 C42.4,4.03 43.12,3.84 43.83,3.86 C43.95,3.86 44.07,3.87 44.19,3.88 C44.06,3.86 44.08,3.87 44.27,3.9 C44.48,3.95 44.69,4 44.88,4.09 C44.67,4 45.1,4.22 45.1,4.22 C45.16,4.25 45.57,4.53 45.46,4.44 C45.63,4.57 45.79,4.72 45.93,4.88 C45.92,4.87 46.22,5.22 46.11,5.07 C46.24,5.24 46.35,5.42 46.45,5.61 C46.5,5.7 46.55,5.8 46.59,5.89 C46.54,5.77 46.55,5.8 46.61,5.97 C46.66,6.12 46.69,6.27 46.73,6.42 C46.76,6.6 46.77,6.62 46.75,6.48 C46.76,6.58 46.76,6.68 46.77,6.79 C46.77,6.89 46.77,6.99 46.76,7.1 C46.78,6.95 46.78,6.97 46.74,7.16 C46.72,7.22 46.55,7.7 46.63,7.54 C46.28,8.27 46.43,9.16 47.17,9.59 C47.82,9.97 48.87,9.79 49.22,9.05 C50.91,5.48 48.12,1.34 44.34,0.92 C40.22,0.45 36.83,4 35.85,7.71 C35.2,10.16 35.37,12.7 35.73,15.18 C35.85,15.98 36.86,16.42 37.58,16.23 C38.45,15.95 38.75,15.15 38.63,14.35 L38.63,14.35 Z" id="Path" fill="#000000"></path> <path d="M88.32,16.1 C88.15,14.3 87.92,12.49 87.9,10.68 C87.9,10.31 87.9,9.95 87.92,9.58 C87.93,9.41 87.94,9.25 87.95,9.08 C87.96,9 87.97,8.91 87.97,8.83 C87.98,8.72 87.98,8.72 87.97,8.82 C87.98,8.77 87.99,8.71 87.99,8.66 C88.05,8.31 88.12,7.97 88.21,7.64 C88.32,7.25 88.39,7.05 88.5,6.83 C89.08,5.69 90,4.95 91.23,4.89 C92.61,4.83 93.85,5.38 94.78,6.49 C95.88,7.8 96.22,9.61 96.15,11.31 C96.11,12.12 96.86,12.81 97.65,12.81 C98.49,12.81 99.11,12.12 99.15,11.31 C99.34,6.97 96.86,2.51 92.26,1.94 C90.27,1.69 88.18,2.38 86.86,3.92 C85.57,5.42 85.08,7.31 84.94,9.24 C84.77,11.52 85.11,13.83 85.32,16.1 C85.39,16.91 85.96,17.6 86.82,17.6 C87.57,17.6 88.39,16.91 88.32,16.1 L88.32,16.1 Z" id="Path" fill="#000000"></path> <path d="M43.99,72.35 C45.73,78.28 47.47,84.21 49.2,90.14 C50.37,89.81 51.53,89.49 52.7,89.16 C55.92,82.03 60.1,75.34 65.11,69.33 C63.12,69.12 61.14,68.9 59.15,68.69 C58.51,68.62 57.81,68.56 57.24,68.86 C56.61,69.2 56.27,69.9 55.98,70.56 C53.97,75.08 51.96,79.59 49.95,84.11 C49.24,79.7 48.53,75.29 47.82,70.88 C46.77,72.36 45.78,72.03 43.99,72.35" id="Path" fill="#000000"></path> <path d="M136.81,98.58 C137.74,95.68 137.08,92.53 136.41,89.56 C130.7,64.22 124.99,38.89 119.28,13.55 C115.12,36.97 120.13,60.9 121.74,84.63 C121.78,85.26 121.82,85.93 121.57,86.51 C120.91,88.03 118.86,88.16 117.22,88.37 C109.12,89.44 103.61,97.42 96.68,101.03 C110.14,100.67 123.44,100.33 136.81,98.58 Z" id="Path" fill="#000000"></path> <path d="M51.88,59.19 C54.62,59.55 57.36,60 60.11,60.33 C74.99,62.1 90.05,60.17 104.87,57.92 C97.4,55.53 89.35,58.05 81.51,58.29 C72.21,58.57 62.95,55.6 53.69,56.55 C51.31,56.79 48.95,57.3 46.56,57.33 C43.84,57.37 41.16,56.79 38.49,56.34 C30.01,54.9 21.34,54.61 12.78,55.5 C11.53,55.63 9.84,56.3 10.86,57.8 C11.51,58.75 13.74,58.21 14.66,58.18 C18.8,58.05 22.95,57.94 27.09,57.91 C35.37,57.85 43.67,58.11 51.88,59.19 Z" id="Path" fill="#000000"></path> <path d="M35.99,54.6 C35.75,56.02 35.52,57.45 35.28,58.87 C34.75,61.97 34.18,65.07 33.62,68.17 C32.16,76.15 30.7,84.13 29.24,92.11 C29.09,92.93 28.99,93.9 29.59,94.47 C32.42,92.45 32.95,88.54 33.37,85.08 C35.57,67.31 41.59,50.23 43.25,32.38 C43.55,29.13 44.89,22.65 43.31,19.74 C40.28,22.06 40.15,29.45 39.6,32.79 C38.39,40.06 37.19,47.33 35.99,54.6 Z" id="Path" fill="#000000"></path> <path d="M74.77,40.39 C73.91,46.26 72.62,52.07 71.87,57.96 C71.38,61.82 71.13,65.7 70.88,69.58 C70.35,77.64 69.83,85.7 69.3,93.76 C70.71,84.98 72.12,76.19 73.53,67.41 C73.92,64.95 74.33,62.46 75.27,60.16 C75.76,58.96 76.4,57.81 76.71,56.55 C76.96,55.52 76.99,54.46 77.01,53.4 C77.14,47.67 77.27,41.95 77.4,36.22 C77.5,32.03 78.93,25.22 77.48,21.38 C76.03,22.96 76.06,25.93 75.95,27.97 C75.72,32.14 75.38,36.27 74.77,40.39 Z" id="Path" fill="#000000"></path> </g> </g> </g> </svg> 