<?xml version="1.0" encoding="UTF-8"?> <svg xmlns="http://www.w3.org/2000/svg" xmlns:xlink="http://www.w3.org/1999/xlink" width="172px" height="132px" viewBox="0 0 172 132"> <!-- Generator: Sketch 62 (91390) - https://sketch.com --> <title>ik9</title> <desc>Created with Sketch.</desc> <g id="Web-20-07-25" stroke="none" stroke-width="1" fill="none" fill-rule="evenodd"> <g id="Artboard" transform="translate(-325.000000, -190.000000)" fill-rule="nonzero"> <g id="ik9" transform="translate(324.000000, 190.000000)"> <path d="M4.14,39.72 C4.11,52.19 4.08,64.65 4.05,77.12 C4.04,80.05 4.07,83.12 5.3,85.68 C7.72,90.7 13.52,91.62 18.48,91.85 C39.24,92.81 60.08,91.72 80.68,88.58 C82.68,88.28 84.71,87.94 86.55,87.01 C90.2,85.16 92.75,81.1 94.02,76.73 C95.29,72.36 95.44,67.67 95.41,63.07 C95.37,56.5 95.01,49.92 94.33,43.4 C94.08,41.03 93.75,38.55 92.5,36.66 C90.07,33 85.39,33 81.41,33.28 C66.01,34.34 50.55,34.35 35.15,33.29 C28.38,32.83 21.89,31.89 15.24,30.59 C8.95,29.36 4.15,31.75 4.14,39.72 Z" id="Path" fill="#D3E3FD"></path> <path d="M81.31,93.46 C78.07,93.02 75.1,91.37 71.9,90.71 C68.4,89.99 64.75,90.47 61.28,91.3 C57.47,92.21 53.6,93.64 50.95,96.53 C48.3,99.42 47.28,104.1 49.52,107.32 C51.98,110.86 56.97,111.27 61.29,111.29 C70,111.33 78.7,111.21 87.41,110.91 C89.79,110.83 92.19,110.74 94.52,111.22 C98.81,112.1 102.45,114.8 106.08,117.26 C110.89,120.51 116.12,123.5 121.89,124.18 C117.12,121.09 112.36,118 107.59,114.91 C104.7,113.04 101.78,111.15 98.52,110.05 C94.63,108.74 90.46,108.63 86.36,108.53 C76.6,108.29 66.84,108.05 57.08,107.8 C56.37,107.78 55.65,107.76 54.98,107.51 C53.24,106.86 52.39,104.77 52.54,102.92 C52.86,99.02 56.64,96.13 60.5,95.5 C64.36,94.87 68.27,95.98 72.01,97.11 C75.75,98.24 79.63,99.41 83.51,98.91 C86.75,98.49 89.71,96.95 92.7,95.64 C97.95,93.34 103.5,91.7 109.16,90.79 C111.04,90.49 113.01,90.23 114.57,89.14 C118.59,86.32 115.77,83.85 112.72,83.5 C111.85,83.4 105.42,85.91 104.02,86.29 C96.45,88.36 89.59,94.59 81.31,93.46 Z" id="Path" fill="#000000"></path> <path d="M38.51,27.51 C41.91,25.87 45.39,24.04 49.16,23.93 C52.37,23.83 55.52,25 58.72,24.79 C62.8,24.53 66.41,22.11 70.4,21.23 C77.82,19.6 85.18,23.41 92.32,26 C99,28.43 106.04,29.84 113.13,30.19 C105.28,27.36 97.44,24.53 89.59,21.7 C84.93,20.02 80.18,18.32 75.23,18.19 C71.67,18.09 68.13,18.81 64.64,19.53 C57.18,21.06 49.71,22.6 42.25,24.13 C37.86,25.03 33.35,25.94 28.92,25.22 C25.79,24.71 22.68,23.21 20.62,20.88 C19.33,19.41 19.88,17.11 21.71,16.43 C27.82,14.18 33.92,11.93 40.03,9.68 C51.88,5.31 64.46,0.88 76.86,3.23 C84.02,4.59 91.57,4.77 98.72,6.23 C106.03,7.73 112.72,10.35 119.99,12.06 C133.93,15.35 144.16,26.99 152.8,38.42 C158.43,45.86 164.07,53.69 170.91,59.9 C171.92,60.82 173.35,59.42 172.46,58.39 C167.18,52.29 162.59,45.4 157.04,39.51 C140.14,21.53 120.54,11.4 96.22,7.27 C83.81,5.16 65.76,6.05 53.27,7.6 C43.97,8.75 31.62,11.5 24.39,17.96 C13.4,27.79 30.56,31.33 38.51,27.51 Z" id="Path" fill="#000000"></path> <path d="M118.63,57.81 C120.08,61.95 121.56,66.27 121.02,70.62 C120.27,76.73 115.69,81.78 114.5,87.82 C121.98,81.15 125.54,70.37 123.51,60.56 C122.89,57.55 121.78,54.66 120.69,51.79 C118.84,46.95 116.54,34.68 112.39,31.89 C108.21,37.55 116.61,52.05 118.63,57.81 Z" id="Path" fill="#000000"></path> <path d="M48,22.45 C48.24,24.63 48.55,26.95 49.96,28.62 C51.37,30.3 54.32,30.85 55.69,29.13 C53.37,27.79 51.84,25.17 51.81,22.49 C49.87,22.03 47.69,22.79 46.46,24.36" id="Path" fill="#000000"></path> <path d="M112.72,36.94 C112.65,35.09 112.52,33.12 111.46,31.6 C109.73,29.15 106.3,28.8 103.3,28.69 C78.82,27.81 54.31,27.84 29.83,28.78 C22.92,29.05 4.65,26.67 1.78,33.45 C0.35,36.83 1.81,44.5 1.68,48.24 C1.48,53.89 1.27,59.52 1.07,65.16 C0.79,72.93 0.98,81.84 6.86,86.92 C10.32,89.91 15.04,90.86 19.55,91.59 C47.76,96.15 76.73,95.97 104.88,91.05 C106.53,90.76 108.28,90.41 109.51,89.26 C111.07,87.8 111.38,85.47 111.56,83.35 C112.93,67.93 113.32,52.42 112.72,36.94 Z M104.54,77.49 C104.45,79.46 104.29,81.6 103.02,83.08 C101.58,84.76 99.18,85.09 97,85.29 C69.73,87.81 42.3,88.46 14.94,87.23 C12.3,87.11 9.47,86.9 7.41,85.2 C4.55,82.84 4.26,78.57 4.2,74.81 C4.01,63.08 5.43,49.92 3.55,38.35 C2.83,33.87 1.09,31.63 6.95,30.56 C12.05,29.63 18.15,30.65 23.32,30.78 C49.15,31.46 74.97,32.13 100.8,32.8 C101.92,32.83 103.13,32.9 103.98,33.63 C105.06,34.56 105.17,36.2 105.19,37.65 C105.37,50.93 105.15,64.22 104.54,77.49 Z" id="Shape" fill="#000000"></path> <path d="M14.89,62.32 C15.02,62.84 15.15,63.36 15.28,63.88 C15.33,64.08 15.42,64.25 15.55,64.39 C15.66,64.55 15.8,64.68 15.97,64.78 C16.14,64.89 16.33,64.95 16.53,64.96 C16.73,65 16.93,65 17.13,64.93 C17.25,64.88 17.37,64.83 17.49,64.78 C17.72,64.65 17.89,64.47 18.03,64.24 C18.08,64.12 18.13,64 18.18,63.88 C18.25,63.61 18.25,63.35 18.18,63.08 C18.05,62.56 17.92,62.04 17.79,61.52 C17.74,61.32 17.65,61.15 17.52,61.01 C17.41,60.85 17.27,60.72 17.1,60.62 C16.93,60.51 16.74,60.45 16.54,60.44 C16.34,60.4 16.14,60.4 15.94,60.47 C15.82,60.52 15.7,60.57 15.58,60.62 C15.35,60.75 15.18,60.93 15.04,61.16 C14.99,61.28 14.94,61.4 14.89,61.52 C14.82,61.79 14.82,62.05 14.89,62.32 L14.89,62.32 Z" id="Path" fill="#000000"></path> <path d="M19.38,61.48 C19.48,61.62 19.56,61.77 19.63,61.92 C19.58,61.8 19.53,61.68 19.48,61.56 C19.56,61.76 19.62,61.96 19.64,62.17 C19.62,62.04 19.6,61.9 19.59,61.77 C19.61,61.97 19.61,62.17 19.59,62.37 C19.61,62.24 19.63,62.1 19.64,61.97 C19.63,62.08 19.6,62.18 19.58,62.28 C19.48,62.66 19.53,63.1 19.73,63.44 C19.82,63.61 19.95,63.76 20.12,63.86 C20.26,63.99 20.43,64.08 20.63,64.13 C21.01,64.22 21.45,64.2 21.79,63.98 C22.12,63.77 22.37,63.47 22.48,63.08 C22.5,62.99 22.52,62.91 22.54,62.82 C22.57,62.61 22.61,62.4 22.62,62.18 C22.63,61.88 22.59,61.57 22.54,61.28 C22.51,61.11 22.46,60.94 22.4,60.78 C22.28,60.5 22.17,60.22 21.99,59.97 C21.9,59.8 21.77,59.65 21.6,59.55 C21.46,59.42 21.29,59.33 21.09,59.28 C20.89,59.22 20.69,59.21 20.49,59.25 C20.29,59.26 20.1,59.32 19.93,59.43 C19.61,59.64 19.33,59.94 19.24,60.33 C19.15,60.7 19.15,61.16 19.38,61.48 L19.38,61.48 Z" id="Path" fill="#000000"></path> <path d="M24.07,60.72 C24.15,61.38 24.22,62.04 24.3,62.69 C24.29,62.9 24.34,63.09 24.43,63.27 C24.49,63.46 24.59,63.62 24.74,63.75 C24.88,63.9 25.04,64 25.22,64.06 C25.4,64.15 25.59,64.2 25.8,64.19 C26.19,64.17 26.59,64.05 26.86,63.75 C26.94,63.65 27.02,63.55 27.09,63.45 C27.23,63.22 27.29,62.96 27.29,62.69 C27.21,62.03 27.14,61.37 27.06,60.72 C27.07,60.51 27.02,60.32 26.93,60.14 C26.87,59.95 26.77,59.79 26.62,59.66 C26.48,59.51 26.32,59.41 26.14,59.35 C25.96,59.26 25.77,59.21 25.56,59.22 C25.17,59.24 24.77,59.36 24.5,59.66 C24.42,59.76 24.34,59.86 24.27,59.96 C24.14,60.19 24.07,60.45 24.07,60.72 L24.07,60.72 Z" id="Path" fill="#000000"></path> <path d="M31.15,62.16 C31.16,62.14 31.16,62.12 31.17,62.1 C31.12,62.22 31.07,62.34 31.02,62.46 C31.03,62.44 31.04,62.42 31.06,62.4 C30.98,62.5 30.9,62.6 30.83,62.7 C30.85,62.68 30.86,62.66 30.89,62.64 C30.79,62.72 30.69,62.8 30.59,62.87 C30.61,62.85 30.64,62.84 30.67,62.82 C30.55,62.87 30.43,62.92 30.31,62.97 C30.35,62.96 30.39,62.95 30.42,62.94 C30.29,62.96 30.15,62.98 30.02,62.99 C30.07,62.98 30.12,62.99 30.17,62.99 C30.04,62.97 29.9,62.95 29.77,62.94 C29.83,62.95 29.88,62.96 29.94,62.99 C29.82,62.94 29.7,62.89 29.58,62.84 C29.63,62.86 29.68,62.89 29.73,62.93 C29.63,62.85 29.53,62.77 29.43,62.7 C29.46,62.73 29.5,62.76 29.52,62.79 C29.44,62.69 29.36,62.59 29.29,62.49 C29.31,62.52 29.33,62.55 29.35,62.59 C29.3,62.47 29.25,62.35 29.2,62.23 C29.22,62.29 29.24,62.34 29.25,62.4 C29.23,62.27 29.21,62.13 29.2,62 C29.21,62.09 29.21,62.17 29.2,62.26 C29.22,62.13 29.24,61.99 29.25,61.86 C29.23,61.99 29.19,62.12 29.14,62.25 C29.19,62.13 29.24,62.01 29.29,61.89 C29.23,62.02 29.16,62.15 29.09,62.28 C28.98,62.45 28.92,62.64 28.91,62.84 C28.87,63.04 28.87,63.24 28.94,63.44 C28.99,63.64 29.08,63.81 29.21,63.95 C29.32,64.11 29.46,64.24 29.63,64.34 C29.75,64.39 29.87,64.44 29.99,64.49 C30.26,64.56 30.52,64.56 30.79,64.49 C30.91,64.44 31.03,64.39 31.15,64.34 C31.38,64.21 31.55,64.03 31.69,63.8 C31.75,63.69 31.81,63.59 31.86,63.47 C31.96,63.25 32.07,63.02 32.13,62.79 C32.18,62.61 32.19,62.42 32.21,62.24 C32.22,62.18 32.22,62.12 32.22,62.07 C32.21,61.89 32.19,61.71 32.14,61.53 C32.13,61.5 32.12,61.48 32.12,61.45 C32.07,61.32 32.01,61.18 31.95,61.05 C31.91,60.97 31.84,60.89 31.78,60.82 C31.72,60.74 31.66,60.66 31.59,60.59 C31.49,60.5 31.37,60.41 31.26,60.33 C31.25,60.32 31.23,60.31 31.22,60.3 C31.19,60.28 31.15,60.26 31.12,60.25 C30.98,60.19 30.83,60.11 30.68,60.07 C30.66,60.07 30.65,60.06 30.63,60.06 C30.49,60.03 30.33,60.01 30.19,60 C30,59.98 29.79,60.02 29.6,60.06 C29.29,60.13 29.01,60.31 28.78,60.52 C28.77,60.53 28.76,60.54 28.74,60.56 C28.67,60.64 28.56,60.79 28.5,60.87 C28.49,60.88 28.49,60.89 28.48,60.89 C28.48,60.9 28.47,60.9 28.47,60.91 C28.41,61.01 28.35,61.17 28.31,61.28 C28.3,61.3 28.3,61.32 28.29,61.34 C28.23,61.54 28.22,61.74 28.26,61.94 C28.27,62.14 28.33,62.33 28.44,62.5 C28.53,62.67 28.66,62.82 28.83,62.92 C28.97,63.05 29.14,63.14 29.34,63.19 C29.47,63.21 29.61,63.23 29.74,63.24 C30.01,63.24 30.26,63.17 30.5,63.04 C30.6,62.96 30.7,62.88 30.8,62.81 C30.95,62.64 31.08,62.41 31.15,62.16 L31.15,62.16 Z" id="Path" fill="#000000"></path> <path d="M38.71,61.52 C38.71,62.04 38.71,62.56 38.71,63.08 C38.7,63.29 38.75,63.48 38.84,63.66 C38.9,63.85 39,64.01 39.15,64.14 C39.29,64.29 39.45,64.39 39.63,64.45 C39.81,64.54 40,64.59 40.21,64.58 C40.34,64.56 40.48,64.54 40.61,64.53 C40.86,64.46 41.08,64.33 41.27,64.14 C41.54,63.85 41.71,63.49 41.71,63.08 C41.71,62.56 41.71,62.04 41.71,61.52 C41.72,61.31 41.67,61.12 41.58,60.94 C41.52,60.75 41.42,60.59 41.27,60.46 C41.13,60.31 40.97,60.21 40.79,60.15 C40.61,60.06 40.42,60.01 40.21,60.02 C40.08,60.04 39.94,60.06 39.81,60.07 C39.56,60.14 39.34,60.27 39.15,60.46 C38.88,60.76 38.71,61.12 38.71,61.52 L38.71,61.52 Z" id="Path" fill="#000000"></path> <path d="M43.79,61.13 C43.79,62.04 43.79,62.96 43.79,63.87 C43.79,64.25 43.96,64.66 44.23,64.93 C44.49,65.19 44.92,65.39 45.29,65.37 C45.68,65.35 46.08,65.23 46.35,64.93 C46.62,64.64 46.79,64.28 46.79,63.87 C46.79,62.96 46.79,62.04 46.79,61.13 C46.79,60.75 46.62,60.34 46.35,60.07 C46.09,59.81 45.66,59.61 45.29,59.63 C44.9,59.65 44.5,59.77 44.23,60.07 C43.96,60.37 43.79,60.73 43.79,61.13 L43.79,61.13 Z" id="Path" fill="#000000"></path> <path d="M47.41,61.93 C47.31,62.18 47.28,62.47 47.26,62.73 C47.25,62.81 47.25,62.88 47.26,62.96 C47.27,63.16 47.3,63.36 47.34,63.55 C47.35,63.62 47.37,63.69 47.4,63.76 C47.47,63.94 47.54,64.13 47.63,64.3 C47.75,64.54 47.93,64.76 48.12,64.95 C48.26,65.1 48.42,65.2 48.6,65.26 C48.78,65.35 48.97,65.4 49.18,65.39 C49.39,65.4 49.58,65.35 49.76,65.26 C49.95,65.2 50.11,65.1 50.24,64.95 C50.5,64.66 50.7,64.29 50.68,63.89 C50.66,63.76 50.64,63.62 50.63,63.49 C50.56,63.24 50.43,63.02 50.24,62.83 C50.2,62.79 50.16,62.74 50.12,62.69 C50.2,62.79 50.28,62.89 50.35,62.99 C50.28,62.89 50.21,62.78 50.17,62.67 C50.22,62.79 50.27,62.91 50.32,63.03 C50.27,62.91 50.24,62.78 50.22,62.65 C50.24,62.78 50.26,62.92 50.27,63.05 C50.25,62.92 50.25,62.79 50.27,62.66 C50.25,62.79 50.23,62.93 50.22,63.06 C50.24,62.94 50.27,62.83 50.31,62.72 C50.37,62.52 50.38,62.32 50.34,62.12 C50.33,61.92 50.27,61.73 50.16,61.56 C50.07,61.39 49.94,61.24 49.77,61.14 C49.63,61.01 49.46,60.92 49.26,60.87 C49.13,60.85 48.99,60.83 48.86,60.82 C48.59,60.82 48.34,60.89 48.1,61.02 C48,61.1 47.9,61.18 47.8,61.25 C47.61,61.45 47.49,61.67 47.41,61.93 L47.41,61.93 Z" id="Path" fill="#000000"></path> <path d="M52.4,61.91 C52.4,62.3 52.4,62.69 52.4,63.08 C52.39,63.29 52.44,63.48 52.53,63.66 C52.59,63.85 52.69,64.01 52.84,64.14 C52.98,64.29 53.14,64.39 53.32,64.45 C53.5,64.54 53.69,64.59 53.9,64.58 C54.03,64.56 54.17,64.54 54.3,64.53 C54.55,64.46 54.77,64.33 54.96,64.14 C55.04,64.04 55.12,63.94 55.19,63.84 C55.33,63.61 55.39,63.35 55.39,63.08 C55.39,62.69 55.39,62.3 55.39,61.91 C55.4,61.7 55.35,61.51 55.26,61.33 C55.2,61.14 55.1,60.98 54.95,60.85 C54.81,60.7 54.65,60.6 54.47,60.54 C54.29,60.45 54.1,60.4 53.89,60.41 C53.76,60.43 53.62,60.45 53.49,60.46 C53.24,60.53 53.02,60.66 52.83,60.85 C52.75,60.95 52.67,61.05 52.6,61.15 C52.47,61.39 52.4,61.64 52.4,61.91 L52.4,61.91 Z" id="Path" fill="#000000"></path> <path d="M65.85,58.79 C65.52,58.6 65.19,58.52 64.81,58.5 C64.57,58.49 64.32,58.53 64.1,58.61 C63.72,58.75 63.49,58.89 63.17,59.16 C62.99,59.32 62.83,59.52 62.71,59.73 C62.62,59.88 62.56,60.05 62.49,60.22 C62.46,60.29 62.44,60.36 62.43,60.43 C62.38,60.72 62.34,61.01 62.37,61.31 C62.41,61.61 62.44,61.9 62.54,62.18 C62.6,62.35 62.66,62.51 62.73,62.68 C62.78,62.88 62.87,63.05 63,63.19 C63.11,63.35 63.25,63.48 63.42,63.58 C63.59,63.69 63.78,63.75 63.98,63.76 C64.18,63.8 64.38,63.8 64.58,63.73 C64.94,63.61 65.29,63.39 65.48,63.04 C65.53,62.92 65.58,62.8 65.63,62.68 C65.7,62.41 65.7,62.15 65.63,61.88 C65.5,61.56 65.37,61.25 65.32,60.91 C65.34,61.04 65.36,61.18 65.37,61.31 C65.35,61.16 65.35,61.02 65.37,60.87 C65.35,61 65.33,61.14 65.32,61.27 C65.33,61.18 65.35,61.1 65.39,61.02 C65.34,61.14 65.29,61.26 65.24,61.38 C65.27,61.3 65.32,61.23 65.37,61.16 C65.29,61.26 65.21,61.36 65.14,61.46 C65.2,61.38 65.27,61.32 65.34,61.26 C65.24,61.34 65.14,61.42 65.04,61.49 C65.11,61.44 65.18,61.4 65.26,61.36 C65.14,61.41 65.02,61.46 64.9,61.51 C64.96,61.49 65.02,61.47 65.08,61.46 C64.95,61.48 64.81,61.5 64.68,61.51 C64.74,61.5 64.8,61.5 64.86,61.51 C64.73,61.49 64.59,61.47 64.46,61.46 C64.51,61.47 64.56,61.48 64.61,61.5 C64.49,61.45 64.37,61.4 64.25,61.35 C64.28,61.36 64.3,61.37 64.32,61.39 C64.66,61.59 65.1,61.64 65.48,61.54 C65.83,61.44 66.2,61.18 66.38,60.85 C66.56,60.5 66.66,60.08 66.53,59.69 C66.42,59.32 66.2,58.99 65.85,58.79 L65.85,58.79 Z" id="Path" fill="#000000"></path> <path d="M67.65,60.35 C67.65,61.13 67.65,61.91 67.65,62.7 C67.65,63.08 67.82,63.49 68.09,63.76 C68.35,64.02 68.78,64.22 69.15,64.2 C69.54,64.18 69.94,64.06 70.21,63.76 C70.48,63.47 70.65,63.11 70.65,62.7 C70.65,61.92 70.65,61.14 70.65,60.35 C70.65,59.97 70.48,59.56 70.21,59.29 C69.95,59.03 69.52,58.83 69.15,58.85 C68.76,58.87 68.36,58.99 68.09,59.29 C67.82,59.58 67.65,59.94 67.65,60.35 L67.65,60.35 Z" id="Path" fill="#000000"></path> <path d="M72.34,60.35 C72.34,61.13 72.34,61.91 72.34,62.7 C72.34,63.08 72.51,63.49 72.78,63.76 C73.04,64.02 73.47,64.22 73.84,64.2 C74.23,64.18 74.63,64.06 74.9,63.76 C75.17,63.47 75.34,63.11 75.34,62.7 C75.34,61.92 75.34,61.14 75.34,60.35 C75.34,59.97 75.17,59.56 74.9,59.29 C74.64,59.03 74.21,58.83 73.84,58.85 C73.45,58.87 73.05,58.99 72.78,59.29 C72.51,59.58 72.34,59.94 72.34,60.35 L72.34,60.35 Z" id="Path" fill="#000000"></path> <path d="M76.27,59.55 C76.13,60.33 76,61.11 75.86,61.89 C75.8,62.09 75.79,62.29 75.83,62.49 C75.84,62.69 75.9,62.88 76.01,63.05 C76.19,63.36 76.55,63.66 76.91,63.74 C77.29,63.83 77.73,63.81 78.07,63.59 C78.38,63.39 78.69,63.07 78.76,62.69 C78.9,61.91 79.03,61.13 79.17,60.35 C79.23,60.15 79.24,59.95 79.2,59.75 C79.19,59.55 79.13,59.36 79.02,59.19 C78.84,58.88 78.48,58.58 78.12,58.5 C77.74,58.41 77.3,58.43 76.96,58.65 C76.64,58.86 76.33,59.17 76.27,59.55 L76.27,59.55 Z" id="Path" fill="#000000"></path> <path d="M84.84,59.98 C84.98,60.89 85.11,61.8 85.25,62.71 C85.3,63.06 85.65,63.44 85.94,63.61 C86.26,63.8 86.74,63.88 87.1,63.76 C87.46,63.64 87.81,63.42 88,63.07 C88.05,62.95 88.1,62.83 88.15,62.71 C88.22,62.44 88.22,62.18 88.15,61.91 C88.01,61 87.88,60.09 87.74,59.18 C87.69,58.83 87.34,58.45 87.05,58.28 C86.73,58.09 86.25,58.01 85.89,58.13 C85.53,58.25 85.18,58.47 84.99,58.82 C84.94,58.94 84.89,59.06 84.84,59.18 C84.77,59.45 84.77,59.71 84.84,59.98 L84.84,59.98 Z" id="Path" fill="#000000"></path> <path d="M89.55,59.18 C89.55,60.35 89.55,61.53 89.55,62.7 C89.55,63.08 89.72,63.49 89.99,63.76 C90.25,64.02 90.68,64.22 91.05,64.2 C91.86,64.16 92.55,63.54 92.55,62.7 C92.55,61.53 92.55,60.35 92.55,59.18 C92.55,58.8 92.38,58.39 92.11,58.12 C91.85,57.86 91.42,57.66 91.05,57.68 C90.24,57.71 89.55,58.34 89.55,59.18 L89.55,59.18 Z" id="Path" fill="#000000"></path> <path d="M93.52,59.97 C93.67,60.75 93.81,61.53 93.96,62.31 C94.01,62.51 94.1,62.68 94.23,62.82 C94.34,62.98 94.48,63.11 94.65,63.21 C94.97,63.4 95.45,63.48 95.81,63.36 C96.17,63.24 96.52,63.02 96.71,62.67 C96.76,62.55 96.81,62.43 96.86,62.31 C96.93,62.04 96.93,61.78 96.86,61.51 C96.71,60.73 96.57,59.95 96.42,59.17 C96.37,58.97 96.28,58.8 96.15,58.66 C96.04,58.5 95.9,58.37 95.73,58.27 C95.41,58.08 94.93,58 94.57,58.12 C94.21,58.24 93.86,58.46 93.67,58.81 C93.62,58.93 93.57,59.05 93.52,59.17 C93.45,59.43 93.45,59.7 93.52,59.97 L93.52,59.97 Z" id="Path" fill="#000000"></path> <path d="M13.93,51.29 C13.93,51.51 13.94,51.77 14.12,51.9 C14.2,51.96 14.3,51.99 14.39,52.01 C14.62,52.07 14.84,52.13 15.07,52.19 C15.53,52.31 16.01,52.44 16.47,52.31 C16.93,52.18 17.32,51.7 17.17,51.25 C17.06,50.92 16.72,50.73 16.48,50.47 C16.06,50.02 15.96,49.37 15.91,48.75 C15.77,47.16 16.99,46.44 18.03,45.43 C18.42,45.05 18.63,44.73 19.24,44.77 C20.42,44.84 19.73,45.49 19.68,46.29 C19.67,46.37 19.68,46.46 19.72,46.52 C19.78,46.61 19.9,46.63 20,46.65 C20.66,46.8 21.21,47.34 21.36,48 C21.51,48.66 21.26,49.39 20.73,49.81 C20.55,49.95 20.34,50.07 20.24,50.27 C20.07,50.61 20.28,51.03 20.16,51.39 C20.07,51.65 19.81,51.83 19.55,51.92 C19.08,52.09 18.38,51.95 18.34,51.45 C18.31,51.15 18.55,50.82 18.38,50.57 C18.23,50.34 17.89,50.39 17.61,50.37 C16.88,50.32 16.37,49.59 16.37,48.9 C16.37,47.92 17.18,47.82 17.6,47.16 C18.2,46.22 17.5,45.27 16.65,44.74 C15.69,44.15 14.27,44.05 13.91,45.31 C13.44,46.99 13.93,49.54 13.93,51.29 Z" id="Path" fill="#000000"></path> <path d="M23.44,47.88 C23.98,48.56 23.6,49.65 22.86,50.1 C22.63,50.24 22.36,50.35 22.21,50.58 C22.05,50.82 22.08,51.14 22.11,51.43 C22.14,51.72 22.19,52.05 22.43,52.21 C22.56,52.3 22.72,52.32 22.88,52.34 C24.03,52.44 25.2,52.22 26.23,51.69 C26.4,51.61 26.57,51.5 26.66,51.34 C26.75,51.18 26.75,50.98 26.74,50.79 C26.67,49.23 26.53,47.67 26.32,46.12 C26.25,45.61 26.11,45.01 25.64,44.81 C25.22,44.63 22.93,44.74 22.5,45.06 C21.09,46.1 22.88,47.19 23.44,47.88 Z" id="Path" fill="#000000"></path> <path d="M116.14,37.06 C116.09,37.5 115.96,38 115.56,38.19 C115.36,38.29 115.11,38.28 114.89,38.23 C114.1,38.04 113.59,37.31 113,36.76 C112.5,36.29 111.91,35.91 111.39,35.46 C110.26,34.47 107.51,30.05 109.94,29.05 C111.8,28.28 114.49,31.49 115.23,32.81 C115.94,34.09 116.3,35.59 116.14,37.06 Z" id="Path" fill="#000000"></path> <path d="M126.52,127.35 C130.33,127.95 134.23,127.71 138.07,127.35 C139.08,127.26 140.15,127.16 141.06,127.61 C141.64,127.89 142.09,128.36 142.58,128.77 C144.66,130.5 147.4,131.18 150.03,131.81 C148.6,129.36 146.76,127.14 144.61,125.28 C143.96,124.72 143.26,124.18 142.45,123.9 C140.98,123.39 139.38,123.79 137.85,124.07 C131.05,125.34 123.84,124.26 117.72,121.06 C116.69,120.52 115.53,119.91 114.44,120.29 C114.66,120.21 116.91,122.58 117.11,122.76 C116.99,122.75 116.88,122.77 116.77,122.81 C118.84,125.57 123.21,126.83 126.52,127.35 Z" id="Path" fill="#000000"></path> <path d="M57.72,5.01 C64.17,4 70.74,4.43 77.25,4.87 C89.12,5.67 100.42,7.78 111.99,10.53 C123.56,13.28 134.73,19.31 143.58,27.25 C153.74,36.37 160.7,50.34 171.5,58.69 C172.11,59.16 172.91,58.41 172.48,57.77 C167.59,50.45 163.54,40.6 159.91,33.21 C157.45,28.2 155.16,22.83 150.81,19.32 C147.73,16.84 143.9,15.53 140.16,14.27 C115.13,5.85 88.66,-2.68 62.79,2.58 C55.2,4.13 47.9,6.83 40.64,9.52 C34.52,11.79 27,13.48 21.48,16.83 C34.02,16.16 45.01,5.01 57.72,5.01 Z" id="Path" fill="#000000"></path> <path d="M32.38,77.16 C32.45,77.15 32.52,77.13 32.57,77.08 C32.66,76.96 32.54,76.8 32.43,76.71 C31.27,75.8 29.66,75.88 28.19,75.83 C26.19,75.76 24.21,75.37 22.22,75.23 C20.22,75.09 18.14,75.23 16.36,76.14 C16.51,77.68 17.33,77.32 18.87,77.45 C20.43,77.58 22,77.69 23.57,77.73 C26.51,77.82 29.47,77.71 32.38,77.16 Z" id="Path" fill="#000000"></path> <path d="M51.16,77.44 C51.7,77.44 52.38,77.34 52.52,76.82 C52.62,76.45 52.36,76.06 52.02,75.89 C51.68,75.72 51.28,75.71 50.9,75.71 C47.58,75.68 44.26,75.68 40.94,75.7 C39.91,75.71 36.86,75.47 36.1,76.36 C35.03,77.62 38.16,77.43 38.91,77.43 C43,77.44 47.08,77.44 51.16,77.44 Z" id="Path" fill="#000000"></path> </g> </g> </g> </svg> 