<?xml version="1.0" encoding="UTF-8"?> <svg xmlns="http://www.w3.org/2000/svg" xmlns:xlink="http://www.w3.org/1999/xlink" width="152px" height="136px" viewBox="0 0 152 136"> <!-- Generator: Sketch 62 (91390) - https://sketch.com --> <title>ik11 copy</title> <desc>Created with Sketch.</desc> <g id="Web-20-07-25" stroke="none" stroke-width="1" fill="none" fill-rule="evenodd"> <g id="Artboard" transform="translate(-1020.000000, -123.000000)" fill-rule="nonzero"> <g id="ik11-copy" transform="translate(1039.000000, 123.000000)"> <path d="M23.8,82.2 C23.8,85.52 23.83,88.99 25.33,91.95 C29.85,100.92 44.63,100.44 49.03,109.48 C55.88,105.85 62.72,102.22 69.57,98.59 C73.91,96.29 78.43,93.83 81.17,89.76 C83.48,86.33 84.27,82.13 84.96,78.06 C87.57,62.74 89.56,47.32 90.92,31.84 C91.2,28.62 91.29,24.93 88.94,22.71 C86.48,20.39 82.59,20.84 79.27,21.5 C70.22,23.31 61.26,25.58 52.17,27.24 C47.46,28.1 42.71,28.84 37.93,29.24 C34.86,29.5 29.47,28.59 26.71,30.31 C21.04,33.83 23.81,46.69 23.8,52.47 C23.81,62.38 23.8,72.29 23.8,82.2 Z" id="Path" fill="#FFF1AA"></path> <path d="M1.85,84.78 C2.02,92.44 2.39,100.59 6.77,106.87 C16.75,121.18 41.35,118.07 51.31,132.39 C52.63,134.29 55.09,136.7 56.72,135.05 C57.9,130.87 61.73,128.03 65.56,126 C72.95,122.07 81.15,119.95 88.82,116.6 C96.49,113.25 103.96,108.26 107.53,100.69 C108.96,97.64 109.7,94.31 110.33,91.01 C116.06,61.05 114.58,29.73 106.04,0.44 C95.39,3.91 83.99,4.04 72.79,4.04 C52.91,4.04 33.03,3.73 13.14,3.42 C9.63,3.36 6.05,3.3 2.76,2.08 C0.95,4.45 0.77,7.94 2.35,10.48 C11.52,9.58 20.75,9.72 29.96,9.87 C52.47,10.22 74.97,10.57 97.48,10.91 C98.48,10.93 99.53,10.95 100.42,11.43 C102.17,12.38 102.62,14.65 102.85,16.63 C104.86,33.99 105.04,51.56 103.4,68.96 C102.62,77.22 101.41,85.53 98.3,93.22 C95.19,100.91 90.02,107.99 82.8,112.07 C73.06,117.58 59.78,117.77 53.2,126.8 C48.84,122.24 43.7,118.43 38.07,115.57 C30.35,111.65 21.51,109.39 15.33,103.33 C7.74,95.89 5.91,84.46 5.36,73.84 C4.97,66.39 5.02,58.91 5.76,51.49 C6.17,47.44 6.78,43.41 7.19,39.36 C8.27,28.54 7.83,17.58 5.9,6.88 C5.56,5.03 3.1,2.87 2.43,4.63 C-0.35,6.44 1.68,17.28 1.63,20.43 C1.52,27.8 1.46,35.17 1.44,42.53 C1.4,56.61 1.54,70.69 1.85,84.78 Z" id="Path" fill="#000000"></path> <path d="M53.27,74.95 C46.12,67.82 37.54,62.14 28.19,58.35 C34.51,69.73 44.04,79.32 55.39,85.71 C56.96,79.46 63.58,76.2 69.1,72.88 C79.7,66.5 88.28,57.32 96.71,48.26 C100.22,44.49 103.78,40.65 106.12,36.06 C108.2,31.98 111.7,20.25 104.03,23.93 C98.46,26.61 93.14,36.64 89.01,41.24 C78.06,53.45 66.1,64.74 53.27,74.95 Z" id="Path" fill="#000000"></path> <g id="Group" transform="translate(16.000000, 19.000000)"> <path d="M34.35,94.17 C30.27,86.7 22.41,82.44 14.81,78.31 C13.42,77.55 12.03,76.8 10.68,76.04 C9.05,75.12 7.37,74.09 6.28,72.6 C5.14,71.04 4.69,69.06 4.29,66.99 C0.3,46.36 0.14,25.41 3.83,4.73 C26.83,4.23 50.09,2.97 73,1 C71.99,8.41 70.74,14.99 66.77,19.89 C67.14,16.79 67.04,13.61 66.95,10.51 C66.91,9.29 66.88,8.07 66.87,6.87 L66.87,6.39 L66.39,6.38 C60.56,6.21 54.64,6.13 48.8,6.13 C37.13,6.13 25.3,6.47 13.64,7.15 C12.67,7.21 11.67,7.32 10.97,8.02 C10.23,8.76 10.14,9.88 10.08,10.62 L7.72,40.88 C7.25,46.94 6.76,53.22 7.95,59.34 C9.28,66.18 12.78,71.85 17.55,74.89 C19.42,76.08 21.5,76.91 23.52,77.7 C24.98,78.28 26.5,78.88 27.9,79.61 C31.78,81.64 34.13,84.68 34.18,87.76 L34.26,92.6 L35.17,87.85 C36.04,83.29 41.37,80.99 46.06,80.35 C47.09,80.21 48.15,80.11 49.2,80 C53.14,79.61 57.22,79.21 60.47,76.87 C65.63,73.15 66.64,66.38 67.29,59.18 C67.84,53.08 69.05,46.48 73.73,43.23 C73.57,49.67 73.05,56.17 72.16,62.55 C71.76,65.45 71.25,68.49 69.9,71.15 C66.59,77.63 59.55,80.27 52.09,83.05 C45.24,85.58 38.16,88.23 34.35,94.17 Z" id="Path" fill="#000000"></path> <path d="M72.41,1.54 C71.52,7.92 70.4,13.64 67.43,18.12 C67.6,15.57 67.52,12.99 67.45,10.48 C67.41,9.29 67.38,8.05 67.37,6.85 L67.36,5.89 L66.4,5.86 C60.56,5.69 54.64,5.61 48.8,5.61 C37.11,5.61 25.28,5.95 13.61,6.63 C12.82,6.68 11.51,6.75 10.62,7.65 C9.75,8.52 9.65,9.75 9.59,10.57 L8.4,25.89 L7.24,40.82 C6.76,46.92 6.27,53.22 7.48,59.41 C8.84,66.38 12.42,72.17 17.31,75.29 C19.22,76.51 21.33,77.34 23.36,78.14 C24.81,78.71 26.31,79.31 27.7,80.03 C29.09,80.76 33.64,83.46 33.71,87.74 L33.78,92.22 C29.43,85.67 22.14,81.71 15.07,77.87 C13.71,77.13 12.3,76.36 10.95,75.6 C9.37,74.7 7.74,73.71 6.7,72.3 C5.62,70.83 5.18000715,68.9 4.79,66.89 C0.83,46.45 0.65,25.71 4.26,5.22 C26.9,4.72 49.82,3.48 72.41,1.54 M73.2,44.25 C73.01,50.33 72.5,56.44 71.67,62.46 C71.27,65.31 70.78,68.32 69.46,70.9 C66.24,77.21 59.29,79.81 51.92,82.56 C45.44,84.98 38.77,87.47 34.74,92.75 L35.67,87.92 C36.49,83.62 41.62,81.44 46.14,80.82 C47.16,80.68 48.23,80.58 49.26,80.47 C53.27,80.08 57.41,79.67 60.77,77.24 C66.1,73.39 67.13,66.51 67.8,59.19 C68.3,53.59 69.36,47.56 73.2,44.25 M73.57,0.44 C50.23,2.47 26.82,3.73 3.4,4.24 C-0.35,24.97 -0.21,46.4 3.79,67.08 C4.18,69.12 4.65,71.22 5.87,72.89 C7.02,74.46 8.74,75.51 10.43,76.47 C19.38,81.54 29.74,85.97 34.31,95.19 C41.59,82.35 63.64,84.49 70.35,71.34 C71.73,68.64 72.24,65.59 72.66,62.59 C73.59,55.86 74.12,49.08 74.25,42.28 C68.7,45.45 67.37,52.74 66.8,59.1 C66.23,65.46 65.37,72.69 60.19,76.43 C56.2,79.31 50.88,79.16 46,79.82 C41.12,80.48 35.61,82.89 34.69,87.72 C34.63,83.94 31.49,80.88 28.14,79.14 C24.79,77.39 21.02,76.48 17.83,74.44 C12.66,71.15 9.62,65.23 8.45,59.22 C7.28,53.2 7.75,47.01 8.23,40.9 C9.02,30.81 9.8,20.73 10.59,10.64 C10.65,9.82 10.75,8.93 11.33,8.35 C11.92,7.76 12.84,7.67 13.68,7.63 C25.38,6.95 37.09,6.61 48.81,6.61 C54.67,6.61 60.53,6.69 66.38,6.86 C66.41,11.68 66.89,16.7 66.04,21.46 C71.29,16.02 72.56,7.96 73.57,0.44 L73.57,0.44 Z" id="Shape" fill="#FFFFFF"></path> </g> </g> </g> </g> </svg> 