<?xml version="1.0" encoding="UTF-8"?> <svg xmlns="http://www.w3.org/2000/svg" xmlns:xlink="http://www.w3.org/1999/xlink" width="112px" height="67px" viewBox="0 0 112 67"> <!-- Generator: Sketch 62 (91390) - https://sketch.com --> <title>ik9 copy</title> <desc>Created with Sketch.</desc> <g id="Web-20-07-25" stroke="none" stroke-width="1" fill="none" fill-rule="evenodd"> <g id="Artboard" transform="translate(-138.000000, -705.000000)" fill-rule="nonzero"> <g id="ik9-copy" transform="translate(137.000000, 705.000000)"> <path d="M4.14,11.72 C4.11,24.19 4.08,36.65 4.05,49.12 C4.04,52.05 4.07,55.12 5.3,57.68 C7.72,62.7 13.52,63.62 18.48,63.85 C39.24,64.81 60.08,63.72 80.68,60.58 C82.68,60.28 84.71,59.94 86.55,59.01 C90.2,57.16 92.75,53.1 94.02,48.73 C95.29,44.36 95.44,39.67 95.41,35.07 C95.37,28.5 95.01,21.92 94.33,15.4 C94.08,13.03 93.75,10.55 92.5,8.66 C90.07,5 85.39,5 81.41,5.28 C66.01,6.34 50.55,6.35 35.15,5.29 C28.38,4.83 21.89,3.89 15.24,2.59 C8.95,1.36 4.15,3.75 4.14,11.72 Z" id="Path" fill="#BFF2DC"></path> <path d="M112.72,8.94 C112.65,7.09 112.52,5.12 111.46,3.6 C109.73,1.15 106.3,0.8 103.3,0.69 C78.82,-0.19 54.31,-0.16 29.83,0.78 C22.92,1.05 4.65,-1.33 1.78,5.45 C0.35,8.83 1.81,16.5 1.68,20.24 C1.48,25.89 1.27,31.52 1.07,37.16 C0.79,44.93 0.98,53.84 6.86,58.92 C10.32,61.91 15.04,62.86 19.55,63.59 C47.76,68.15 76.73,67.97 104.88,63.05 C106.53,62.76 108.28,62.41 109.51,61.26 C111.07,59.8 111.38,57.47 111.56,55.35 C112.93,39.93 113.32,24.42 112.72,8.94 Z M104.54,49.49 C104.45,51.46 104.29,53.6 103.02,55.08 C101.58,56.76 99.18,57.09 97,57.29 C69.73,59.81 42.3,60.46 14.94,59.23 C12.3,59.11 9.47,58.9 7.41,57.2 C4.55,54.84 4.26,50.57 4.2,46.81 C4.01,35.08 5.43,21.92 3.55,10.35 C2.83,5.87 1.09,3.63 6.95,2.56 C12.05,1.63 18.15,2.65 23.32,2.78 C49.15,3.46 74.97,4.13 100.8,4.8 C101.92,4.83 103.13,4.9 103.98,5.63 C105.06,6.56 105.17,8.2 105.19,9.65 C105.37,22.93 105.15,36.22 104.54,49.49 Z" id="Shape" fill="#000000"></path> <path d="M14.89,34.32 C15.02,34.84 15.15,35.36 15.28,35.88 C15.33,36.08 15.42,36.25 15.55,36.39 C15.66,36.55 15.8,36.68 15.97,36.78 C16.14,36.89 16.33,36.95 16.53,36.96 C16.73,37 16.93,37 17.13,36.93 C17.25,36.88 17.37,36.83 17.49,36.78 C17.72,36.65 17.89,36.47 18.03,36.24 C18.08,36.12 18.13,36 18.18,35.88 C18.25,35.61 18.25,35.35 18.18,35.08 C18.05,34.56 17.92,34.04 17.79,33.52 C17.74,33.32 17.65,33.15 17.52,33.01 C17.41,32.85 17.27,32.72 17.1,32.62 C16.93,32.51 16.74,32.45 16.54,32.44 C16.34,32.4 16.14,32.4 15.94,32.47 C15.82,32.52 15.7,32.57 15.58,32.62 C15.35,32.75 15.18,32.93 15.04,33.16 C14.99,33.28 14.94,33.4 14.89,33.52 C14.82,33.79 14.82,34.05 14.89,34.32 L14.89,34.32 Z" id="Path" fill="#000000"></path> <path d="M19.38,33.48 C19.48,33.62 19.56,33.77 19.63,33.92 C19.58,33.8 19.53,33.68 19.48,33.56 C19.56,33.76 19.62,33.96 19.64,34.17 C19.62,34.04 19.6,33.9 19.59,33.77 C19.61,33.97 19.61,34.17 19.59,34.37 C19.61,34.24 19.63,34.1 19.64,33.97 C19.63,34.08 19.6,34.18 19.58,34.28 C19.48,34.66 19.53,35.1 19.73,35.44 C19.82,35.61 19.95,35.76 20.12,35.86 C20.26,35.99 20.43,36.08 20.63,36.13 C21.01,36.22 21.45,36.2 21.79,35.98 C22.12,35.77 22.37,35.47 22.48,35.08 C22.5,34.99 22.52,34.91 22.54,34.82 C22.57,34.61 22.61,34.4 22.62,34.18 C22.63,33.88 22.59,33.57 22.54,33.28 C22.51,33.11 22.46,32.94 22.4,32.78 C22.28,32.5 22.17,32.22 21.99,31.97 C21.9,31.8 21.77,31.65 21.6,31.55 C21.46,31.42 21.29,31.33 21.09,31.28 C20.89,31.22 20.69,31.21 20.49,31.25 C20.29,31.26 20.1,31.32 19.93,31.43 C19.61,31.64 19.33,31.94 19.24,32.33 C19.15,32.7 19.15,33.16 19.38,33.48 L19.38,33.48 Z" id="Path" fill="#000000"></path> <path d="M24.07,32.72 C24.15,33.38 24.22,34.04 24.3,34.69 C24.29,34.9 24.34,35.09 24.43,35.27 C24.49,35.46 24.59,35.62 24.74,35.75 C24.88,35.9 25.04,36 25.22,36.06 C25.4,36.15 25.59,36.2 25.8,36.19 C26.19,36.17 26.59,36.05 26.86,35.75 C26.94,35.65 27.02,35.55 27.09,35.45 C27.23,35.22 27.29,34.96 27.29,34.69 C27.21,34.03 27.14,33.37 27.06,32.72 C27.07,32.51 27.02,32.32 26.93,32.14 C26.87,31.95 26.77,31.79 26.62,31.66 C26.48,31.51 26.32,31.41 26.14,31.35 C25.96,31.26 25.77,31.21 25.56,31.22 C25.17,31.24 24.77,31.36 24.5,31.66 C24.42,31.76 24.34,31.86 24.27,31.96 C24.14,32.19 24.07,32.45 24.07,32.72 L24.07,32.72 Z" id="Path" fill="#000000"></path> <path d="M31.15,34.16 C31.16,34.14 31.16,34.12 31.17,34.1 C31.12,34.22 31.07,34.34 31.02,34.46 C31.03,34.44 31.04,34.42 31.06,34.4 C30.98,34.5 30.9,34.6 30.83,34.7 C30.85,34.68 30.86,34.66 30.89,34.64 C30.79,34.72 30.69,34.8 30.59,34.87 C30.61,34.85 30.64,34.84 30.67,34.82 C30.55,34.87 30.43,34.92 30.31,34.97 C30.35,34.96 30.39,34.95 30.42,34.94 C30.29,34.96 30.15,34.98 30.02,34.99 C30.07,34.98 30.12,34.99 30.17,34.99 C30.04,34.97 29.9,34.95 29.77,34.94 C29.83,34.95 29.88,34.96 29.94,34.99 C29.82,34.94 29.7,34.89 29.58,34.84 C29.63,34.86 29.68,34.89 29.73,34.93 C29.63,34.85 29.53,34.77 29.43,34.7 C29.46,34.73 29.5,34.76 29.52,34.79 C29.44,34.69 29.36,34.59 29.29,34.49 C29.31,34.52 29.33,34.55 29.35,34.59 C29.3,34.47 29.25,34.35 29.2,34.23 C29.22,34.29 29.24,34.34 29.25,34.4 C29.23,34.27 29.21,34.13 29.2,34 C29.21,34.09 29.21,34.17 29.2,34.26 C29.22,34.13 29.24,33.99 29.25,33.86 C29.23,33.99 29.19,34.12 29.14,34.25 C29.19,34.13 29.24,34.01 29.29,33.89 C29.23,34.02 29.16,34.15 29.09,34.28 C28.98,34.45 28.92,34.64 28.91,34.84 C28.87,35.04 28.87,35.24 28.94,35.44 C28.99,35.64 29.08,35.81 29.21,35.95 C29.32,36.11 29.46,36.24 29.63,36.34 C29.75,36.39 29.87,36.44 29.99,36.49 C30.26,36.56 30.52,36.56 30.79,36.49 C30.91,36.44 31.03,36.39 31.15,36.34 C31.38,36.21 31.55,36.03 31.69,35.8 C31.75,35.69 31.81,35.59 31.86,35.47 C31.96,35.25 32.07,35.02 32.13,34.79 C32.18,34.61 32.19,34.42 32.21,34.24 C32.22,34.18 32.22,34.12 32.22,34.07 C32.21,33.89 32.19,33.71 32.14,33.53 C32.13,33.5 32.12,33.48 32.12,33.45 C32.07,33.32 32.01,33.18 31.95,33.05 C31.91,32.97 31.84,32.89 31.78,32.82 C31.72,32.74 31.66,32.66 31.59,32.59 C31.49,32.5 31.37,32.41 31.26,32.33 C31.25,32.32 31.23,32.31 31.22,32.3 C31.19,32.28 31.15,32.26 31.12,32.25 C30.98,32.19 30.83,32.11 30.68,32.07 C30.66,32.07 30.65,32.06 30.63,32.06 C30.49,32.03 30.33,32.01 30.19,32 C30,31.98 29.79,32.02 29.6,32.06 C29.29,32.13 29.01,32.31 28.78,32.52 C28.77,32.53 28.76,32.54 28.74,32.56 C28.67,32.64 28.56,32.79 28.5,32.87 C28.49,32.88 28.49,32.89 28.48,32.89 C28.48,32.9 28.47,32.9 28.47,32.91 C28.41,33.01 28.35,33.17 28.31,33.28 C28.3,33.3 28.3,33.32 28.29,33.34 C28.23,33.54 28.22,33.74 28.26,33.94 C28.27,34.14 28.33,34.33 28.44,34.5 C28.53,34.67 28.66,34.82 28.83,34.92 C28.97,35.05 29.14,35.14 29.34,35.19 C29.47,35.21 29.61,35.23 29.74,35.24 C30.01,35.24 30.26,35.17 30.5,35.04 C30.6,34.96 30.7,34.88 30.8,34.81 C30.95,34.64 31.08,34.41 31.15,34.16 L31.15,34.16 Z" id="Path" fill="#000000"></path> <path d="M38.71,33.52 C38.71,34.04 38.71,34.56 38.71,35.08 C38.7,35.29 38.75,35.48 38.84,35.66 C38.9,35.85 39,36.01 39.15,36.14 C39.29,36.29 39.45,36.39 39.63,36.45 C39.81,36.54 40,36.59 40.21,36.58 C40.34,36.56 40.48,36.54 40.61,36.53 C40.86,36.46 41.08,36.33 41.27,36.14 C41.54,35.85 41.71,35.49 41.71,35.08 C41.71,34.56 41.71,34.04 41.71,33.52 C41.72,33.31 41.67,33.12 41.58,32.94 C41.52,32.75 41.42,32.59 41.27,32.46 C41.13,32.31 40.97,32.21 40.79,32.15 C40.61,32.06 40.42,32.01 40.21,32.02 C40.08,32.04 39.94,32.06 39.81,32.07 C39.56,32.14 39.34,32.27 39.15,32.46 C38.88,32.76 38.71,33.12 38.71,33.52 L38.71,33.52 Z" id="Path" fill="#000000"></path> <path d="M43.79,33.13 C43.79,34.04 43.79,34.96 43.79,35.87 C43.79,36.25 43.96,36.66 44.23,36.93 C44.49,37.19 44.92,37.39 45.29,37.37 C45.68,37.35 46.08,37.23 46.35,36.93 C46.62,36.64 46.79,36.28 46.79,35.87 C46.79,34.96 46.79,34.04 46.79,33.13 C46.79,32.75 46.62,32.34 46.35,32.07 C46.09,31.81 45.66,31.61 45.29,31.63 C44.9,31.65 44.5,31.77 44.23,32.07 C43.96,32.37 43.79,32.73 43.79,33.13 L43.79,33.13 Z" id="Path" fill="#000000"></path> <path d="M47.41,33.93 C47.31,34.18 47.28,34.47 47.26,34.73 C47.25,34.81 47.25,34.88 47.26,34.96 C47.27,35.16 47.3,35.36 47.34,35.55 C47.35,35.62 47.37,35.69 47.4,35.76 C47.47,35.94 47.54,36.13 47.63,36.3 C47.75,36.54 47.93,36.76 48.12,36.95 C48.26,37.1 48.42,37.2 48.6,37.26 C48.78,37.35 48.97,37.4 49.18,37.39 C49.39,37.4 49.58,37.35 49.76,37.26 C49.95,37.2 50.11,37.1 50.24,36.95 C50.5,36.66 50.7,36.29 50.68,35.89 C50.66,35.76 50.64,35.62 50.63,35.49 C50.56,35.24 50.43,35.02 50.24,34.83 C50.2,34.79 50.16,34.74 50.12,34.69 C50.2,34.79 50.28,34.89 50.35,34.99 C50.28,34.89 50.21,34.78 50.17,34.67 C50.22,34.79 50.27,34.91 50.32,35.03 C50.27,34.91 50.24,34.78 50.22,34.65 C50.24,34.78 50.26,34.92 50.27,35.05 C50.25,34.92 50.25,34.79 50.27,34.66 C50.25,34.79 50.23,34.93 50.22,35.06 C50.24,34.94 50.27,34.83 50.31,34.72 C50.37,34.52 50.38,34.32 50.34,34.12 C50.33,33.92 50.27,33.73 50.16,33.56 C50.07,33.39 49.94,33.24 49.77,33.14 C49.63,33.01 49.46,32.92 49.26,32.87 C49.13,32.85 48.99,32.83 48.86,32.82 C48.59,32.82 48.34,32.89 48.1,33.02 C48,33.1 47.9,33.18 47.8,33.25 C47.61,33.45 47.49,33.67 47.41,33.93 L47.41,33.93 Z" id="Path" fill="#000000"></path> <path d="M52.4,33.91 C52.4,34.3 52.4,34.69 52.4,35.08 C52.39,35.29 52.44,35.48 52.53,35.66 C52.59,35.85 52.69,36.01 52.84,36.14 C52.98,36.29 53.14,36.39 53.32,36.45 C53.5,36.54 53.69,36.59 53.9,36.58 C54.03,36.56 54.17,36.54 54.3,36.53 C54.55,36.46 54.77,36.33 54.96,36.14 C55.04,36.04 55.12,35.94 55.19,35.84 C55.33,35.61 55.39,35.35 55.39,35.08 C55.39,34.69 55.39,34.3 55.39,33.91 C55.4,33.7 55.35,33.51 55.26,33.33 C55.2,33.14 55.1,32.98 54.95,32.85 C54.81,32.7 54.65,32.6 54.47,32.54 C54.29,32.45 54.1,32.4 53.89,32.41 C53.76,32.43 53.62,32.45 53.49,32.46 C53.24,32.53 53.02,32.66 52.83,32.85 C52.75,32.95 52.67,33.05 52.6,33.15 C52.47,33.39 52.4,33.64 52.4,33.91 L52.4,33.91 Z" id="Path" fill="#000000"></path> <path d="M65.85,30.79 C65.52,30.6 65.19,30.52 64.81,30.5 C64.57,30.49 64.32,30.53 64.1,30.61 C63.72,30.75 63.49,30.89 63.17,31.16 C62.99,31.32 62.83,31.52 62.71,31.73 C62.62,31.88 62.56,32.05 62.49,32.22 C62.46,32.29 62.44,32.36 62.43,32.43 C62.38,32.72 62.34,33.01 62.37,33.31 C62.41,33.61 62.44,33.9 62.54,34.18 C62.6,34.35 62.66,34.51 62.73,34.68 C62.78,34.88 62.87,35.05 63,35.19 C63.11,35.35 63.25,35.48 63.42,35.58 C63.59,35.69 63.78,35.75 63.98,35.76 C64.18,35.8 64.38,35.8 64.58,35.73 C64.94,35.61 65.29,35.39 65.48,35.04 C65.53,34.92 65.58,34.8 65.63,34.68 C65.7,34.41 65.7,34.15 65.63,33.88 C65.5,33.56 65.37,33.25 65.32,32.91 C65.34,33.04 65.36,33.18 65.37,33.31 C65.35,33.16 65.35,33.02 65.37,32.87 C65.35,33 65.33,33.14 65.32,33.27 C65.33,33.18 65.35,33.1 65.39,33.02 C65.34,33.14 65.29,33.26 65.24,33.38 C65.27,33.3 65.32,33.23 65.37,33.16 C65.29,33.26 65.21,33.36 65.14,33.46 C65.2,33.38 65.27,33.32 65.34,33.26 C65.24,33.34 65.14,33.42 65.04,33.49 C65.11,33.44 65.18,33.4 65.26,33.36 C65.14,33.41 65.02,33.46 64.9,33.51 C64.96,33.49 65.02,33.47 65.08,33.46 C64.95,33.48 64.81,33.5 64.68,33.51 C64.74,33.5 64.8,33.5 64.86,33.51 C64.73,33.49 64.59,33.47 64.46,33.46 C64.51,33.47 64.56,33.48 64.61,33.5 C64.49,33.45 64.37,33.4 64.25,33.35 C64.28,33.36 64.3,33.37 64.32,33.39 C64.66,33.59 65.1,33.64 65.48,33.54 C65.83,33.44 66.2,33.18 66.38,32.85 C66.56,32.5 66.66,32.08 66.53,31.69 C66.42,31.32 66.2,30.99 65.85,30.79 L65.85,30.79 Z" id="Path" fill="#000000"></path> <path d="M67.65,32.35 C67.65,33.13 67.65,33.91 67.65,34.7 C67.65,35.08 67.82,35.49 68.09,35.76 C68.35,36.02 68.78,36.22 69.15,36.2 C69.54,36.18 69.94,36.06 70.21,35.76 C70.48,35.47 70.65,35.11 70.65,34.7 C70.65,33.92 70.65,33.14 70.65,32.35 C70.65,31.97 70.48,31.56 70.21,31.29 C69.95,31.03 69.52,30.83 69.15,30.85 C68.76,30.87 68.36,30.99 68.09,31.29 C67.82,31.58 67.65,31.94 67.65,32.35 L67.65,32.35 Z" id="Path" fill="#000000"></path> <path d="M72.34,32.35 C72.34,33.13 72.34,33.91 72.34,34.7 C72.34,35.08 72.51,35.49 72.78,35.76 C73.04,36.02 73.47,36.22 73.84,36.2 C74.23,36.18 74.63,36.06 74.9,35.76 C75.17,35.47 75.34,35.11 75.34,34.7 C75.34,33.92 75.34,33.14 75.34,32.35 C75.34,31.97 75.17,31.56 74.9,31.29 C74.64,31.03 74.21,30.83 73.84,30.85 C73.45,30.87 73.05,30.99 72.78,31.29 C72.51,31.58 72.34,31.94 72.34,32.35 L72.34,32.35 Z" id="Path" fill="#000000"></path> <path d="M76.27,31.55 C76.13,32.33 76,33.11 75.86,33.89 C75.8,34.09 75.79,34.29 75.83,34.49 C75.84,34.69 75.9,34.88 76.01,35.05 C76.19,35.36 76.55,35.66 76.91,35.74 C77.29,35.83 77.73,35.81 78.07,35.59 C78.38,35.39 78.69,35.07 78.76,34.69 C78.9,33.91 79.03,33.13 79.17,32.35 C79.23,32.15 79.24,31.95 79.2,31.75 C79.19,31.55 79.13,31.36 79.02,31.19 C78.84,30.88 78.48,30.58 78.12,30.5 C77.74,30.41 77.3,30.43 76.96,30.65 C76.64,30.86 76.33,31.17 76.27,31.55 L76.27,31.55 Z" id="Path" fill="#000000"></path> <path d="M84.84,31.98 C84.98,32.89 85.11,33.8 85.25,34.71 C85.3,35.06 85.65,35.44 85.94,35.61 C86.26,35.8 86.74,35.88 87.1,35.76 C87.46,35.64 87.81,35.42 88,35.07 C88.05,34.95 88.1,34.83 88.15,34.71 C88.22,34.44 88.22,34.18 88.15,33.91 C88.01,33 87.88,32.09 87.74,31.18 C87.69,30.83 87.34,30.45 87.05,30.28 C86.73,30.09 86.25,30.01 85.89,30.13 C85.53,30.25 85.18,30.47 84.99,30.82 C84.94,30.94 84.89,31.06 84.84,31.18 C84.77,31.45 84.77,31.71 84.84,31.98 L84.84,31.98 Z" id="Path" fill="#000000"></path> <path d="M89.55,31.18 C89.55,32.35 89.55,33.53 89.55,34.7 C89.55,35.08 89.72,35.49 89.99,35.76 C90.25,36.02 90.68,36.22 91.05,36.2 C91.86,36.16 92.55,35.54 92.55,34.7 C92.55,33.53 92.55,32.35 92.55,31.18 C92.55,30.8 92.38,30.39 92.11,30.12 C91.85,29.86 91.42,29.66 91.05,29.68 C90.24,29.71 89.55,30.34 89.55,31.18 L89.55,31.18 Z" id="Path" fill="#000000"></path> <path d="M93.52,31.97 C93.67,32.75 93.81,33.53 93.96,34.31 C94.01,34.51 94.1,34.68 94.23,34.82 C94.34,34.98 94.48,35.11 94.65,35.21 C94.97,35.4 95.45,35.48 95.81,35.36 C96.17,35.24 96.52,35.02 96.71,34.67 C96.76,34.55 96.81,34.43 96.86,34.31 C96.93,34.04 96.93,33.78 96.86,33.51 C96.71,32.73 96.57,31.95 96.42,31.17 C96.37,30.97 96.28,30.8 96.15,30.66 C96.04,30.5 95.9,30.37 95.73,30.27 C95.41,30.08 94.93,30 94.57,30.12 C94.21,30.24 93.86,30.46 93.67,30.81 C93.62,30.93 93.57,31.05 93.52,31.17 C93.45,31.43 93.45,31.7 93.52,31.97 L93.52,31.97 Z" id="Path" fill="#000000"></path> <path d="M13.93,23.29 C13.93,23.51 13.94,23.77 14.12,23.9 C14.2,23.96 14.3,23.99 14.39,24.01 C14.62,24.07 14.84,24.13 15.07,24.19 C15.53,24.31 16.01,24.44 16.47,24.31 C16.93,24.18 17.32,23.7 17.17,23.25 C17.06,22.92 16.72,22.73 16.48,22.47 C16.06,22.02 15.96,21.37 15.91,20.75 C15.77,19.16 16.99,18.44 18.03,17.43 C18.42,17.05 18.63,16.73 19.24,16.77 C20.42,16.84 19.73,17.49 19.68,18.29 C19.67,18.37 19.68,18.46 19.72,18.52 C19.78,18.61 19.9,18.63 20,18.65 C20.66,18.8 21.21,19.34 21.36,20 C21.51,20.66 21.26,21.39 20.73,21.81 C20.55,21.95 20.34,22.07 20.24,22.27 C20.07,22.61 20.28,23.03 20.16,23.39 C20.07,23.65 19.81,23.83 19.55,23.92 C19.08,24.09 18.38,23.95 18.34,23.45 C18.31,23.15 18.55,22.82 18.38,22.57 C18.23,22.34 17.89,22.39 17.61,22.37 C16.88,22.32 16.37,21.59 16.37,20.9 C16.37,19.92 17.18,19.82 17.6,19.16 C18.2,18.22 17.5,17.27 16.65,16.74 C15.69,16.15 14.27,16.05 13.91,17.31 C13.44,18.99 13.93,21.54 13.93,23.29 Z" id="Path" fill="#000000"></path> <path d="M23.44,19.88 C23.98,20.56 23.6,21.65 22.86,22.1 C22.63,22.24 22.36,22.35 22.21,22.58 C22.05,22.82 22.08,23.14 22.11,23.43 C22.14,23.72 22.19,24.05 22.43,24.21 C22.56,24.3 22.72,24.32 22.88,24.34 C24.03,24.44 25.2,24.22 26.23,23.69 C26.4,23.61 26.57,23.5 26.66,23.34 C26.75,23.18 26.75,22.98 26.74,22.79 C26.67,21.23 26.53,19.67 26.32,18.12 C26.25,17.61 26.11,17.01 25.64,16.81 C25.22,16.63 22.93,16.74 22.5,17.06 C21.09,18.1 22.88,19.19 23.44,19.88 Z" id="Path" fill="#000000"></path> <path d="M32.38,49.16 C32.45,49.15 32.52,49.13 32.57,49.08 C32.66,48.96 32.54,48.8 32.43,48.71 C31.27,47.8 29.66,47.88 28.19,47.83 C26.19,47.76 24.21,47.37 22.22,47.23 C20.22,47.09 18.14,47.23 16.36,48.14 C16.51,49.68 17.33,49.32 18.87,49.45 C20.43,49.58 22,49.69 23.57,49.73 C26.51,49.82 29.47,49.71 32.38,49.16 Z" id="Path" fill="#000000"></path> <path d="M51.16,49.44 C51.7,49.44 52.38,49.34 52.52,48.82 C52.62,48.45 52.36,48.06 52.02,47.89 C51.68,47.72 51.28,47.71 50.9,47.71 C47.58,47.68 44.26,47.68 40.94,47.7 C39.91,47.71 36.86,47.47 36.1,48.36 C35.03,49.62 38.16,49.43 38.91,49.43 C43,49.44 47.08,49.44 51.16,49.44 Z" id="Path" fill="#000000"></path> </g> </g> </g> </svg> 