<?xml version="1.0" encoding="UTF-8"?> <svg xmlns="http://www.w3.org/2000/svg" xmlns:xlink="http://www.w3.org/1999/xlink" width="80px" height="80px" viewBox="0 0 80 80"> <!-- Generator: Sketch 55.2 (78181) - https://sketchapp.com --> <title>Web</title> <desc>Created with Sketch.</desc> <defs> <linearGradient x1="50%" y1="75.2390124%" x2="50%" y2="0%" id="linearGradient-1"> <stop stop-color="#F4BF7C" offset="0%"></stop> <stop stop-color="#F2D387" offset="100%"></stop> </linearGradient> </defs> <g id="Web" stroke="none" stroke-width="1" fill="none" fill-rule="evenodd"> <circle id="Oval" fill="#FFFFFF" cx="40" cy="40" r="40"></circle> <g id="note" transform="translate(17.000000, 20.000000)" fill="url(#linearGradient-1)" fill-rule="nonzero"> <path d="M33.6599276,18.6226415 C34.1707005,18.6226415 34.5849057,19.0197472 34.5849057,19.509434 C34.5849057,19.9992094 34.170793,20.3962264 33.6599276,20.3962264 L9.79290263,20.3962264 C9.28212972,20.3962264 8.86792453,19.9991208 8.86792453,19.509434 C8.86792453,19.0197472 9.28212972,18.6226415 9.79290263,18.6226415 L33.6599276,18.6226415 Z M6.83450943,18.8824717 C6.99945283,19.0474151 7.09433962,19.2762075 7.09433962,19.509434 C7.09433962,19.7426604 6.99936415,19.9714528 6.83450943,20.1363075 C6.66956604,20.3013396 6.44077358,20.3962264 6.20754717,20.3962264 C5.97432075,20.3962264 5.7455283,20.3013396 5.58058491,20.1363075 C5.41564151,19.9714528 5.32075472,19.7426604 5.32075472,19.509434 C5.32075472,19.2762075 5.41573019,19.0474151 5.58058491,18.8824717 C5.7455283,18.7174396 5.97432075,18.6226415 6.20754717,18.6226415 C6.44077358,18.6226415 6.66956604,18.7175283 6.83450943,18.8824717 Z M33.6447386,23.9433962 C34.1639929,23.9433962 34.5849057,24.3405019 34.5849057,24.8301887 C34.5849057,25.3198755 34.1638988,25.7169811 33.6447386,25.7169811 L29.3175256,25.7169811 C28.7983653,25.7169811 28.3773585,25.3198755 28.3773585,24.8301887 C28.3773585,24.3405019 28.7983653,23.9433962 29.3175256,23.9433962 L33.6447386,23.9433962 Z M45.1640625,0 C46.1763984,0 47,0.81647996 47,1.82006233 L47,31.6689025 C47,33.174276 45.7645977,34.398996 44.2460938,34.398996 L42.8691406,34.398996 C42.3622383,34.398996 41.9511719,33.991484 41.9511719,33.4889648 C41.9511719,32.9864456 42.3622383,32.5789336 42.8691406,32.5789336 L44.2460938,32.5789336 C44.7522617,32.5789336 45.1640625,32.1706937 45.1640625,31.6689025 L45.1640625,1.82006233 L9.1795957,1.82006233 L9.1795957,7.28024931 L37.8204043,7.28024931 C38.8327402,7.28024931 39.6563418,8.09672927 39.6563418,9.10031164 L39.6563418,24.2067379 C39.6563418,24.7092572 39.2452754,25.1167691 38.738373,25.1167691 C38.2314707,25.1167691 37.8204043,24.7092572 37.8204043,24.2067379 L37.8204043,15.652445 L1.8359375,15.652445 L1.8359375,32.5786606 L6.42568945,32.5786606 C7.94419336,32.5786606 9.1795957,33.8033806 9.1795957,35.3087541 L9.1795957,39.859183 L12.4846504,39.859183 C12.9915527,39.859183 13.4026191,40.2666949 13.4026191,40.7692141 C13.4026191,41.2717333 12.9915527,41.6792453 12.4846504,41.6792453 L8.26171875,41.6792453 C8.02047656,41.6792453 7.78318164,41.5816899 7.61262305,41.4126972 L0.268873047,34.1321748 C0.0986816406,33.9635461 0,33.727211 0,33.4886918 L0,9.10031164 C0,8.09672927 0.823601562,7.28024931 1.8359375,7.28024931 L7.3436582,7.28024931 L7.3436582,1.82006233 C7.3436582,0.81647996 8.16725977,0 9.1795957,0 L45.1640625,0 Z M6.42578125,34.398814 L3.13412891,34.398814 L7.34375,38.5720349 L7.34375,35.3088451 C7.34375,34.8070539 6.93194922,34.398814 6.42578125,34.398814 Z M37.8204043,9.10031164 L1.8359375,9.10031164 L1.8359375,13.8324737 L37.8204043,13.8324737 L37.8204043,9.10031164 Z M20.3962264,29.2641509 C22.8410747,29.2641509 24.8300923,31.1314015 24.8301887,33.4265769 L24.8301887,46.0951051 C24.8301887,46.5947881 24.3985521,47 23.8662838,47 C23.3340156,47 22.902379,46.5947881 22.902379,46.0951051 L22.902379,37.7701628 L17.8900738,37.7701628 L17.8900738,46.0951051 C17.8900738,46.5947881 17.4584372,47 16.926169,47 C16.3939007,47 15.9622642,46.5947881 15.9622642,46.0951051 L15.9622642,33.4266674 C15.9622642,31.131492 17.9513782,29.2641509 20.3962264,29.2641509 Z M22.902379,35.9602825 L22.902379,33.4265769 C22.902379,32.1292291 21.7781768,31.0738502 20.3962264,31.0738502 C19.014276,31.0738502 17.8900738,32.1292291 17.8900738,33.4265769 L17.8900738,35.9602825 L22.902379,35.9602825 Z M20.3962264,23.0566038 C20.8859132,23.0566038 21.2830189,23.462983 21.2830189,23.9641054 L21.2830189,26.5830644 C21.2830189,27.0841868 20.8859132,27.490566 20.3962264,27.490566 C19.9065396,27.490566 19.509434,27.0841868 19.509434,26.5830644 L19.509434,23.9641054 C19.509434,23.462983 19.9065396,23.0566038 20.3962264,23.0566038 Z M16.565659,27.6121081 C16.9435386,27.9899916 16.9435386,28.6027338 16.5655622,28.9807141 C16.376574,29.1696075 16.1289443,29.2641509 15.8813146,29.2641509 C15.6336849,29.2641509 15.3860551,29.1696075 15.1970669,28.9807141 L13.5852965,27.3689272 C13.2074169,26.9909469 13.2074169,26.3782047 13.5852965,26.0003212 C13.9633697,25.6225344 14.5759121,25.6225344 14.9538886,26.0003212 L16.565659,27.6121081 Z M27.2113519,25.9960727 C27.5836533,26.3682901 27.5836533,26.9718446 27.2112565,27.3441574 L25.5704994,28.9849641 C25.3843487,29.1710251 25.1404369,29.2641509 24.8965251,29.2641509 C24.6526133,29.2641509 24.4087016,29.1710251 24.2225508,28.9849641 C23.8503447,28.6126514 23.8503447,28.0090968 24.2225508,27.6368794 L25.8633079,25.9960727 C26.2357047,25.6239506 26.8390504,25.6239506 27.2113519,25.9960727 Z M39.6457415,27.7503962 C39.8107736,27.9153396 39.9056604,28.1441321 39.9056604,28.3773585 C39.9056604,28.611383 39.8106849,28.8393774 39.6457415,29.0042321 C39.4808868,29.1700623 39.2520943,29.2641509 39.0188679,29.2641509 C38.7856415,29.2641509 38.5568491,29.1700623 38.3919057,29.0042321 C38.2268736,28.8393774 38.1320755,28.6114717 38.1320755,28.3773585 C38.1320755,28.1441321 38.2269623,27.9154283 38.3919057,27.7503962 C38.5568491,27.5853642 38.7856415,27.490566 39.0188679,27.490566 C39.2520943,27.490566 39.4808868,27.5853642 39.6457415,27.7503962 Z M38.9946633,31.0377358 C39.4977662,31.0377358 39.9056604,31.4544313 39.9056604,31.9684828 L39.9056604,38.8870043 C39.9056604,40.426646 38.679518,41.6792453 37.172396,41.6792453 L27.5148617,41.6792453 C27.0117589,41.6792453 26.6037736,41.2624568 26.6037736,40.7484983 C26.6037736,40.2345398 27.0117589,39.8177513 27.5148617,39.8177513 L37.1724871,39.8177513 C37.6748611,39.8177513 38.0835752,39.4002182 38.0835752,38.8870043 L38.0835752,31.9684828 C38.0835752,31.4545243 38.4915605,31.0377358 38.9946633,31.0377358 Z M33.6447386,29.2641509 C34.1639929,29.2641509 34.5849057,29.6612566 34.5849057,30.1509434 C34.5849057,30.6406302 34.1638988,31.0377358 33.6447386,31.0377358 L29.3175256,31.0377358 C28.7983653,31.0377358 28.3773585,30.6406302 28.3773585,30.1509434 C28.3773585,29.6612566 28.7983653,29.2641509 29.3175256,29.2641509 L33.6447386,29.2641509 Z M9.70124834,23.9433962 C10.2204086,23.9433962 10.6415094,24.3405019 10.6415094,24.8301887 C10.6415094,25.3198755 10.2205026,25.7169811 9.70134235,25.7169811 L5.37412935,25.7169811 C4.85496908,25.7169811 4.43396226,25.3198755 4.43396226,24.8301887 C4.43396226,24.3405019 4.85496908,23.9433962 5.37412935,23.9433962 L9.70124834,23.9433962 Z M9.70124834,29.2641509 C10.2204086,29.2641509 10.6415094,29.6612566 10.6415094,30.1509434 C10.6415094,30.6406302 10.2205026,31.0377358 9.70134235,31.0377358 L5.37412935,31.0377358 C4.85496908,31.0377358 4.43396226,30.6406302 4.43396226,30.1509434 C4.43396226,29.6612566 4.85496908,29.2641509 5.37412935,29.2641509 L9.70124834,29.2641509 Z" id="Combined-Shape"></path> </g> </g> </svg> 