<!-- icon666.com - MILLIONS vector ICONS FREE --><svg version="1.1" id="Capa_1" xmlns="http://www.w3.org/2000/svg" xmlns:xlink="http://www.w3.org/1999/xlink" x="0px" y="0px" viewBox="0 0 231 231" style="enable-background:new 0 0 231 231;" xml:space="preserve"><path d="M215.359,38.199h-14.407c-3.083-15-16.425-26.397-32.369-26.397c-15.944,0-29.286,11.397-32.369,26.397H95.952 c-3.083-15-16.425-26.397-32.369-26.397c-15.944,0-29.286,11.397-32.369,26.397H16.808C7.963,38.199,0,45.084,0,53.929V203.07 c0,8.845,7.963,16.129,16.808,16.129h198.552c8.845,0,15.641-7.284,15.641-16.129V53.929C231,45.084,224.204,38.199,215.359,38.199z M94,183.199H31v-77h63V183.199z M147,183.199h-30v-27h30V183.199z M147,134.199h-30v-28h30V134.199z M200,183.199h-30v-27h30 V183.199z M200,134.199h-30v-28h30V134.199z" fill="#000000" style="fill: rgb(16, 206, 154);"></path></svg>